<svg xmlns="http://www.w3.org/2000/svg" xmlns:svgjs="http://svgjs.com/svgjs" xmlns:xlink="http://www.w3.org/1999/xlink" width="288" height="288"><svg xmlns="http://www.w3.org/2000/svg" width="288" height="288" version="1.0" viewBox="0 0 259 226"><g fill="orange" class="color000 svgShape" transform="matrix(.1 0 0 -.1 0 226)"><path d="M1232 2244 c-27 -14 -133 -178 -630 -972 l-597 -956 0 -66 c0 -57 5-74 30 -115 35 -57 100 -110 153 -125 24 -6 401 -10 1112 -10 872 1 1082 3
1113 14 114 41 194 169 173 278 -9 45 -1166 1916 -1201 1941 -37 27 -111 32
-153 11z m543 -1175 c259 -419 472 -765 473 -770 2 -5 -413 -9 -953 -9 -526 0
-955 4 -953 8 7 20 953 1531 958 1531 3 1 216 -342 475 -760z" class="color000 svgShape"/><path d="M1170 1438c0-35 7-189 15-343 8-154 15-295 15-312l0-33 94 0 94 0 6 93c3 50 10 198 16 327 6 129 12 256 15 283l4 47-129 0-130 0 0-62zM1223 654c-97-48-98-214-2-266 70-38 166-13 201 53 25 46 24 122-2 164-37 60-128 83-197 49z" class="color000 svgShape"/></g></svg></svg>