<?xml version="1.0" standalone="no"?>
<!DOCTYPE svg PUBLIC "-//W3C//DTD SVG 20010904//EN"
 "http://www.w3.org/TR/2001/REC-SVG-20010904/DTD/svg10.dtd">
<svg version="1.0" xmlns="http://www.w3.org/2000/svg"
 width="235.000000pt" height="235.000000pt" viewBox="0 0 235.000000 235.000000"
 preserveAspectRatio="xMidYMid meet">

<g transform="translate(0.000000,235.000000) scale(0.100000,-0.100000)"
fill="#000000" stroke="none">
<path d="M1005 2339 c-227 -33 -475 -155 -649 -318 -125 -118 -273 -369 -315
-536 -74 -292 -49 -560 78 -820 123 -252 294 -423 546 -546 260 -127 528 -152
820 -78 156 39 378 164 509 288 78 73 178 215 237 336 127 260 152 528 78 820
-39 156 -164 378 -288 509 -118 125 -369 273 -536 315 -157 40 -335 51 -480
30z m308 -294 c326 -57 594 -284 695 -588 65 -195 65 -369 1 -561 -44 -133
-108 -235 -214 -341 -148 -148 -317 -230 -528 -257 -173 -22 -378 24 -542 120
-107 63 -244 200 -307 307 -96 164 -142 369 -120 542 50 398 341 707 731 777
102 19 181 19 284 1z"/>
<path d="M1024 1830 c-178 -46 -324 -157 -420 -320 -20 -33 -39 -60 -43 -60
-4 0 -31 7 -60 16 -48 14 -55 14 -77 -1 -16 -10 -24 -24 -23 -43 0 -15 35
-128 77 -252 l77 -225 38 0 c34 0 56 15 222 154 156 130 185 159 185 181 0 36
-24 55 -87 71 -29 7 -53 15 -53 19 0 3 20 29 46 57 31 36 67 63 117 88 148 73
291 54 430 -56 80 -63 151 -64 212 -4 40 41 53 90 36 145 -25 83 -208 204
-356 235 -96 20 -234 18 -321 -5z"/>
<path d="M1538 1253 c-158 -131 -188 -161 -188 -183 0 -36 24 -55 88 -71 28
-7 52 -15 52 -19 0 -3 -20 -29 -46 -57 -31 -36 -67 -63 -117 -88 -149 -73
-291 -54 -430 56 -80 63 -151 64 -212 3 -40 -40 -52 -90 -36 -144 25 -84 207
-204 356 -235 298 -62 586 64 741 325 20 33 39 60 43 60 4 0 31 -7 60 -16 48
-14 55 -14 77 1 14 9 24 25 24 38 0 34 -148 469 -162 479 -37 23 -65 6 -250
-149z"/>
</g>
</svg>
