<svg xmlns="http://www.w3.org/2000/svg" xmlns:svgjs="http://svgjs.com/svgjs" xmlns:xlink="http://www.w3.org/1999/xlink" width="288" height="288"><svg xmlns="http://www.w3.org/2000/svg" width="288" height="288" version="1.0" viewBox="0 0 296 324"><g fill="#2a569a" class="color000 svgShape" transform="matrix(.1 0 0 -.1 0 324)"><path d="M1045 3225 c-261 -41 -475 -148 -667 -334 -325 -314 -451 -767 -336-1206 117 -446 499 -803 952 -890 465 -89 942 92 1222 464 363 483 328 1154
-85 1593 -276 294 -689 436 -1086 373z m392 -304 c45 -11 110 -33 144 -49 l63
-28 -138 4 c-154 5 -248 -7 -371 -45 -379 -118 -666 -437 -739 -823 -9 -47
-16 -138 -17 -214 l0 -131 -20 50 c-47 113 -62 194 -62 335 -1 197 43 349 145
505 139 212 364 362 617 410 99 19 269 12 378 -14z m-72 -647 c147 -69 209
-254 134 -402 -132 -266 -527 -193 -565 104 -12 100 42 213 133 278 86 60 198
68 298 20z" class="color000 svgShape"/><path d="M2517 1426 c-67 -25 -112 -62 -150 -124 -72 -116 -71 -226 4 -339
l27 -41 -45 -81 c-111 -196 -236 -273 -448 -275 l-80 -1 -3 118 c-1 64 -4 117
-5 117 -2 0 -41 -15 -88 -34 -179 -73 -348 -101 -548 -93 -181 7 -331 41 -479
108 l-63 28 3 -307 3 -307 27 -52 c33 -61 68 -89 151 -116 55 -18 95 -21 349
-25 390 -6 502 11 581 86 46 44 60 80 66 177 l6 90 125 7 c145 8 217 25 312
75 94 49 185 149 267 291 l64 112 46 0 c61 0 156 45 200 95 54 62 75 119 75
205 1 122 -56 214 -167 272 -53 27 -175 35 -230 14z" class="color000 svgShape"/></g></svg></svg>