<?xml version="1.0" encoding="UTF-8"?>
<!DOCTYPE svg PUBLIC "-//W3C//DTD SVG 1.1//EN" "http://www.w3.org/Graphics/SVG/1.1/DTD/svg11.dtd">
<!-- Creator: CorelDRAW -->
<svg xmlns="http://www.w3.org/2000/svg" xml:space="preserve" width="143.558mm" height="156.588mm" version="1.1" style="shape-rendering:geometricPrecision; text-rendering:geometricPrecision; image-rendering:optimizeQuality; fill-rule:evenodd; clip-rule:evenodd"
viewBox="0 0 14240.67 15533.18"
 xmlns:xlink="http://www.w3.org/1999/xlink"
 xmlns:xodm="http://www.corel.com/coreldraw/odm/2003">
 <defs>
  <style type="text/css">
   <![CDATA[
    .fil0 {fill:black}
    .fil1 {fill:black;fill-rule:nonzero}
   ]]>
  </style>
 </defs>
 <g id="Layer_x0020_1">
  <metadata id="CorelCorpID_0Corel-Layer"/>
  <path class="fil0" d="M2451.87 304.24l2946 0 0 -31.93c164.71,-352.38 1303.4,-373.61 1524.93,0l0 31.57 2946 0c352.38,164.71 373.61,1303.4 0,1524.93l-2946 0 0 393.05 -1524.93 0 0 -392.7 -2946 0c-373.61,-221.53 -352.38,-1360.22 0,-1524.93z"/>
  <path class="fil0" d="M-0 3216.71l0 1782.02 0 185.73 0 1782.02c83.8,174.99 663.36,187.23 776.15,0l0 -1782.02 0 -185.73 0 -1782.02c-112.79,-187.23 -692.34,-174.99 -776.15,0z"/>
  <path class="fil0" d="M4877.24 2656.64l2515.66 0c321.85,0 585.46,261.89 588.35,583.09l1637.35 0c2465.36,-5.9 4318.63,1768.46 4254.63,4156.71l0 647.92 -656.21 0 0 -647.92c32.22,-1202.01 -819.91,-3252.32 -3121.5,-3368.58 -79.25,-3.41 -123.4,12.97 -58.92,22.45 584.5,147.12 2412.39,925.38 2412.39,3346.13l0 647.92 -2279.49 0 6.48 -783.14c1.54,-185.94 -118.5,-317.76 -324.21,-317.76l-8677.98 0 0 -3703.73 3115.09 0c2.9,-321.19 266.51,-583.09 588.35,-583.09z"/>
  <path class="fil0" d="M10175.57 8381.79l3677.16 0c213.36,0 387.93,174.57 387.93,387.93l0 0c0,213.37 -174.58,387.93 -387.93,387.93l-3677.16 0c-213.36,0 -387.93,-174.57 -387.93,-387.93l0 0c0,-213.37 174.58,-387.93 387.93,-387.93z"/>
  <path class="fil0" d="M12589.4 10808.44l742.24 1139.14c273.85,420.26 625.46,1151.26 625.46,1657.08 0,1079.84 -865.89,1928.53 -1948.3,1928.53 -584.96,0 -1110.23,-250.83 -1481.56,-701.11 -282.44,-342.47 -440.38,-780.17 -440.38,-1227.42 0,-758.59 947.5,-2240.26 1407.75,-2877.36l527.9 -730.74 566.89 811.88zm-600.36 357.88c245.08,304.09 1280.26,1869.13 1280.26,2411.99 0,542.86 -418.9,1260.5 -1260.5,1260.5 -841.6,0 -1260.5,-775.9 -1260.5,-1260.5 0,-484.6 772.65,-1727.78 1240.74,-2411.99z"/>
  <path class="fil1" d="M2174.84 10160.83c165.22,0 313.09,40.12 443.6,120.34 130.51,80.21 232.87,190.37 307.11,330.45 74.23,140.09 111.34,298.73 111.34,475.93 0,177.2 -37.11,336.44 -111.34,477.72 -74.24,141.29 -176.6,252.63 -307.11,334.05 -130.51,81.41 -278.38,122.12 -443.6,122.12 -107.76,0 -207.14,-18.56 -298.13,-55.67 -90.99,-37.12 -168.82,-90.4 -233.47,-159.85l0 818.96 -484.91 0 0 -2424.54 445.4 0 0 222.7c59.87,-83.81 139.48,-148.46 238.86,-193.96 99.38,-45.49 210.13,-68.25 332.25,-68.25zm-89.79 1418.81c129.3,0 238.25,-44.91 326.86,-134.7 88.6,-89.79 132.91,-207.73 132.91,-353.8 0,-148.47 -43.71,-267.6 -131.11,-357.4 -87.4,-89.79 -196.96,-134.69 -328.65,-134.69 -122.13,0 -227.49,41.31 -316.09,123.92 -88.59,82.61 -132.9,204.14 -132.9,364.58 0,158.04 43.7,279.57 131.1,364.57 87.4,85.01 193.37,127.52 317.89,127.52zm1266.18 -1971.96l484.91 0 0 908.75 1048.83 0 0 -908.75 484.91 0 0 2370.66 -484.91 0 0 -1023.69 -1048.83 0 0 1023.69 -484.91 0 0 -2370.66zm5933.91 0l0 129.3 -1084.75 2241.35 -528.01 0 962.63 -1932.45 -1016.5 0 0 -438.21 1666.64 0zm-1851.67 1512.19l0 132.91 -1666.64 736.34 0 -423.84 890.79 -380.74 -890.79 -380.74 0 -420.25 1666.64 736.34z"/>
 </g>
</svg>
