<?xml version="1.0" standalone="no"?>
<!DOCTYPE svg PUBLIC "-//W3C//DTD SVG 20010904//EN"
 "http://www.w3.org/TR/2001/REC-SVG-20010904/DTD/svg10.dtd">
<svg version="1.0" xmlns="http://www.w3.org/2000/svg"
 width="429.000000pt" height="331.000000pt" viewBox="0 0 429.000000 331.000000"
 preserveAspectRatio="xMidYMid meet">

<g transform="translate(0.000000,331.000000) scale(0.100000,-0.100000)"
fill="#000000" stroke="none">
<path d="M107 3274 c-36 -19 -53 -36 -69 -69 -12 -25 -26 -45 -30 -45 -4 0 -8
-679 -8 -1510 0 -861 4 -1510 9 -1510 5 0 14 -13 21 -30 17 -40 44 -70 64 -70
9 0 16 -4 16 -10 0 -5 9 -10 20 -10 11 0 20 -4 20 -10 0 -7 472 -10 1395 -10
923 0 1395 3 1395 10 0 6 9 10 20 10 11 0 20 5 20 10 0 6 6 10 13 10 7 0 19
10 27 22 8 12 27 35 43 51 15 16 27 32 27 36 0 3 9 13 20 21 11 8 20 18 20 23
0 4 16 23 35 43 19 19 35 38 35 42 0 4 23 31 50 60 27 29 50 57 50 62 0 5 21
33 48 61 95 102 102 111 102 116 0 3 13 18 30 33 16 15 30 33 30 39 0 5 22 34
50 63 27 29 50 56 50 60 0 4 20 28 45 52 25 25 45 50 45 56 0 5 5 10 10 10 6
0 10 4 10 9 0 5 12 22 28 38 15 16 34 39 42 51 8 12 20 22 27 22 7 0 13 8 13
18 0 10 9 24 20 32 11 8 20 18 20 22 0 5 15 24 33 42 50 53 87 98 87 107 0 5
5 9 11 9 15 0 39 26 39 42 0 8 9 20 20 28 11 8 20 18 20 23 0 4 15 23 33 42
62 67 77 84 77 92 0 5 9 15 20 23 11 8 20 20 20 27 0 7 5 13 10 13 6 0 10 7
10 15 0 8 5 15 10 15 6 0 10 37 10 90 0 53 -4 90 -10 90 -5 0 -10 7 -10 15 0
8 -4 15 -10 15 -5 0 -10 7 -10 16 0 9 -8 24 -18 33 -10 9 -40 43 -67 76 -28
33 -62 72 -77 87 -16 14 -28 31 -28 36 0 6 -23 34 -50 63 -28 29 -50 56 -50
61 0 4 -20 28 -45 52 -25 25 -45 50 -45 56 0 5 -4 10 -10 10 -5 0 -10 4 -10 9
0 5 -12 22 -27 38 -16 16 -35 39 -43 51 -8 12 -20 22 -27 22 -7 0 -13 7 -13
16 0 9 -14 29 -30 44 -17 15 -30 32 -30 37 0 4 -11 17 -25 27 -14 10 -25 23
-25 28 0 5 -11 20 -25 34 -14 14 -25 29 -25 34 0 6 -7 10 -15 10 -8 0 -15 7
-15 15 0 8 -4 15 -10 15 -5 0 -10 5 -10 11 0 6 -14 24 -30 39 -17 15 -30 31
-30 34 0 4 -10 17 -22 30 -13 13 -32 36 -43 52 -11 15 -35 43 -52 61 -18 18
-33 37 -33 43 0 14 -25 40 -39 40 -6 0 -11 4 -11 9 0 8 -29 44 -77 97 -13 14
-23 27 -23 30 0 3 -14 19 -30 34 -17 15 -30 35 -30 44 0 9 -5 16 -11 16 -13 0
-33 20 -42 43 -3 9 -28 31 -54 47 l-47 30 -1390 0 -1391 -1 -48 -25z m2647
-410 c9 -3 16 -12 16 -20 0 -8 5 -14 10 -14 6 0 10 -7 10 -15 0 -8 7 -15 15
-15 8 0 15 -4 15 -9 0 -9 33 -49 88 -106 17 -19 32 -37 32 -40 0 -3 10 -17 23
-30 12 -13 33 -38 47 -56 14 -17 37 -45 53 -61 15 -16 27 -34 27 -39 0 -5 5
-9 10 -9 6 0 10 -5 10 -10 0 -6 20 -31 45 -56 25 -24 45 -48 45 -52 0 -5 22
-32 50 -61 27 -29 50 -57 50 -61 0 -8 48 -63 128 -147 12 -13 22 -26 22 -29 0
-3 13 -19 30 -34 16 -15 30 -33 30 -39 0 -5 22 -34 50 -63 27 -29 50 -56 50
-60 0 -4 16 -23 35 -42 19 -20 35 -40 35 -46 0 -5 5 -10 10 -10 6 0 10 -5 10
-11 0 -6 14 -24 31 -39 24 -20 30 -32 25 -48 -4 -12 -12 -22 -17 -22 -15 0
-39 -26 -39 -42 0 -8 -9 -20 -20 -28 -11 -8 -20 -18 -20 -23 0 -4 -9 -18 -20
-30 -60 -65 -80 -90 -80 -98 0 -5 -5 -9 -11 -9 -14 0 -39 -26 -39 -40 0 -7
-14 -25 -30 -40 -17 -15 -30 -31 -30 -34 0 -7 -17 -27 -77 -91 -18 -19 -33
-38 -33 -42 0 -5 -9 -15 -20 -23 -11 -8 -20 -20 -20 -27 0 -7 -4 -13 -10 -13
-5 0 -10 -7 -10 -15 0 -8 -7 -15 -15 -15 -8 0 -15 -4 -15 -10 0 -5 -11 -20
-25 -34 -14 -14 -25 -29 -25 -35 0 -5 -11 -18 -25 -29 -14 -11 -25 -23 -25
-27 0 -4 -14 -20 -30 -35 -17 -15 -30 -35 -30 -44 0 -9 -5 -16 -11 -16 -12 0
-27 -15 -73 -80 -17 -22 -33 -40 -38 -40 -4 0 -8 -5 -8 -10 0 -6 -20 -31 -45
-56 -25 -24 -45 -48 -45 -52 0 -5 -22 -32 -50 -61 -27 -29 -50 -59 -50 -67 0
-12 -168 -14 -1165 -14 l-1165 0 0 1208 c0 665 3 1212 7 1215 8 9 2285 9 2307
1z"/>
</g>
</svg>
