<svg xmlns="http://www.w3.org/2000/svg" xmlns:svgjs="http://svgjs.com/svgjs" xmlns:xlink="http://www.w3.org/1999/xlink" width="288" height="288"><svg xmlns="http://www.w3.org/2000/svg" width="288" height="288" version="1.0" viewBox="0 0 87 76"><g fill="#fff" class="color000 svgShape" transform="matrix(.1 0 0 -.1 0 76)"><path d="M520 746c0-10 11-33 25-53 13-20 23-38 21-40-2-2-23 6-47 17-74 33-122 24-99-20 12-23 62-50 138-74 72-24 71-50-1-99l-39-26-81 41c-106 53-177 58-248 16-43-26-99-91-99-116 0-16-6-15-36 5-23 15-27 15-41 0-29-29 13-107 58-107 9 0 26-15 37-34 13-23 33-38 59-46 42-14 73-37 73-55 0-24 38-44 169-89 137-47 176-53 176-26 0 10-26 24-77 40-100 33-165 92-138 125 16 20 93 30 119 16 27-15 26-20-4-65-14-20-25-38-25-40 0-2 14-6 31-10 29-5 37-1 90 56 32 35 73 91 89 125 17 34 36 65 42 69 7 4 31 7 55 5 38-2 47 2 73 31 17 18 30 35 30 39 0 19-81 115-112 133-21 11-52 42-69 69-54 82-169 159-169 113zM394 35c-10-25 10-39 35-26 21 12 29 31 12 31-5 0-16 3-25 6-10 4-18 0-22-11z" class="color000 svgShape"/></g></svg></svg>