<?xml version="1.0" standalone="no"?>
<!DOCTYPE svg PUBLIC "-//W3C//DTD SVG 20010904//EN"
 "http://www.w3.org/TR/2001/REC-SVG-20010904/DTD/svg10.dtd">
<svg version="1.0" xmlns="http://www.w3.org/2000/svg"
 width="429.000000pt" height="331.000000pt" viewBox="0 0 429.000000 331.000000"
 preserveAspectRatio="xMidYMid meet">

<g transform="translate(0.000000,331.000000) scale(0.100000,-0.100000)"
fill="#000000" stroke="none">
<path d="M1360 3302 c0 -4 -16 -16 -36 -27 -39 -21 -74 -49 -74 -59 0 -4 -10
-18 -22 -31 -13 -13 -34 -38 -48 -56 -14 -17 -37 -45 -52 -61 -16 -16 -28 -34
-28 -39 0 -6 -22 -32 -50 -59 -27 -27 -50 -53 -50 -58 0 -6 -16 -24 -35 -41
-19 -17 -35 -34 -35 -38 0 -5 -9 -15 -20 -23 -11 -8 -20 -21 -20 -30 0 -9 -9
-22 -20 -30 -11 -8 -20 -17 -20 -21 0 -4 -15 -23 -32 -42 -104 -109 -138 -149
-138 -158 0 -5 -12 -22 -27 -37 -16 -15 -39 -42 -53 -61 -14 -18 -40 -48 -57
-67 -18 -18 -33 -36 -33 -39 0 -3 -10 -16 -22 -29 -25 -25 -64 -72 -88 -105
-8 -12 -20 -21 -27 -21 -7 0 -13 -8 -13 -18 0 -10 -9 -24 -20 -32 -11 -8 -20
-18 -20 -22 0 -5 -15 -23 -32 -42 -18 -18 -44 -48 -58 -66 -14 -18 -37 -45
-53 -61 -15 -15 -27 -32 -27 -36 0 -5 -9 -15 -20 -23 -11 -8 -20 -18 -20 -23
0 -4 -10 -19 -22 -32 -41 -43 -46 -52 -57 -91 -24 -85 -8 -165 44 -220 19 -20
35 -40 35 -43 0 -4 9 -13 20 -21 11 -8 20 -20 20 -28 0 -16 24 -42 39 -42 6 0
11 -4 11 -10 0 -5 13 -25 30 -43 16 -19 30 -38 30 -41 0 -4 23 -29 50 -56 28
-27 50 -53 50 -58 0 -6 15 -25 33 -44 17 -18 41 -46 52 -62 11 -16 35 -44 52
-62 18 -18 33 -36 33 -39 0 -3 12 -18 27 -33 36 -36 73 -84 73 -94 0 -4 5 -8
11 -8 14 0 39 -26 39 -40 0 -7 14 -25 30 -40 17 -15 30 -31 30 -34 0 -7 17
-27 78 -91 17 -19 32 -38 32 -42 0 -5 9 -15 20 -23 11 -8 20 -20 20 -27 0 -7
5 -13 10 -13 6 0 10 -5 10 -10 0 -6 20 -32 45 -58 66 -70 85 -92 85 -98 0 -3
13 -19 30 -34 16 -15 30 -35 30 -44 0 -9 6 -16 13 -16 7 0 19 -10 27 -22 21
-30 71 -90 92 -109 10 -9 18 -19 18 -23 0 -11 48 -56 60 -56 5 0 10 -4 10 -10
0 -5 9 -10 20 -10 11 0 20 -4 20 -10 0 -7 472 -10 1395 -10 923 0 1395 3 1395
10 0 6 9 10 20 10 11 0 20 5 20 10 0 6 7 10 16 10 20 0 44 24 44 44 0 9 5 16
10 16 6 0 10 9 10 20 0 11 5 20 10 20 7 0 10 510 10 1510 0 1000 -3 1510 -10
1510 -5 0 -10 9 -10 20 0 11 -4 20 -10 20 -5 0 -10 7 -10 16 0 20 -30 47 -70
64 -17 7 -30 16 -30 21 0 5 -600 9 -1395 9 -767 0 -1395 -3 -1395 -8z m2490
-1647 l0 -1215 -1160 0 c-740 0 -1160 3 -1160 10 0 5 -16 25 -35 44 -19 20
-35 39 -35 43 0 5 -9 15 -20 23 -11 8 -20 22 -20 32 0 10 -6 18 -13 18 -7 0
-19 9 -27 21 -24 33 -63 80 -87 105 -13 13 -23 26 -23 29 0 3 -15 21 -32 39
-18 19 -44 49 -58 67 -14 19 -37 47 -52 62 -16 16 -28 33 -28 39 0 5 -17 26
-37 46 -21 20 -56 60 -78 87 -22 28 -52 62 -67 77 -16 14 -28 32 -28 40 0 7
-9 20 -20 28 -11 8 -20 18 -20 23 0 4 -16 21 -35 38 -19 17 -35 35 -35 41 0 5
-22 31 -50 58 -27 27 -50 54 -50 60 0 6 -12 23 -27 39 -16 15 -35 38 -43 51
-8 12 -30 38 -47 56 -18 18 -33 35 -33 38 0 2 20 26 45 51 24 26 47 55 50 66
4 10 11 19 16 19 14 0 39 26 39 40 0 7 14 25 30 40 17 15 30 31 30 34 0 5 15
23 78 90 17 20 32 39 32 44 0 4 9 14 20 22 11 8 20 19 20 25 0 6 9 17 20 25
11 8 20 18 20 23 0 4 15 23 33 42 17 19 47 51 65 70 17 19 32 38 32 43 0 4 9
14 20 22 11 8 20 22 20 32 0 10 5 18 11 18 12 0 30 19 64 66 11 16 32 41 48
56 15 15 27 30 27 33 0 3 15 21 33 39 17 18 41 46 52 62 11 16 35 44 52 63 18
18 33 37 33 42 0 5 19 29 43 53 23 24 52 56 64 70 l21 26 1151 0 1151 0 0
-1215z"/>
</g>
</svg>
