<?xml version="1.0" standalone="no"?>
<!DOCTYPE svg PUBLIC "-//W3C//DTD SVG 20010904//EN"
 "http://www.w3.org/TR/2001/REC-SVG-20010904/DTD/svg10.dtd">
<svg version="1.0" xmlns="http://www.w3.org/2000/svg"
 width="100.000000pt" height="41.000000pt" viewBox="0 0 100.000000 41.000000"
 preserveAspectRatio="xMidYMid meet">

<g transform="translate(0.000000,41.000000) scale(0.100000,-0.100000)"
fill="#000000" stroke="none">
<path d="M396 395 c-110 -28 -213 -97 -249 -168 -13 -25 -13 -32 4 -64 11 -21
19 -47 19 -58 0 -18 15 -27 96 -54 96 -33 96 -33 262 -29 106 2 175 8 189 16
40 22 61 72 64 149 3 67 1 74 -27 110 -17 21 -59 52 -95 71 -78 40 -172 50
-263 27z"/>
<path d="M881 290 c-72 -50 -81 -64 -81 -130 0 -32 -6 -64 -14 -76 -13 -18
-12 -23 10 -52 21 -26 32 -32 65 -32 21 0 39 3 39 7 0 3 -10 20 -23 37 -12 17
-28 43 -34 58 -11 25 -10 27 53 64 82 48 95 63 101 119 l6 45 -34 -1 c-22 -1
-54 -15 -88 -39z"/>
<path d="M90 128 c-25 -9 -56 -17 -70 -18 -24 -1 -24 -1 -6 -15 11 -8 35 -15
53 -15 32 0 43 -12 22 -25 -7 -5 -2 -16 12 -32 21 -22 29 -23 86 -19 89 7 96
16 27 40 -55 20 -60 24 -69 61 l-10 41 -45 -18z"/>
</g>
</svg>
