<?xml version="1.0" standalone="no"?>
<!DOCTYPE svg PUBLIC "-//W3C//DTD SVG 20010904//EN"
 "http://www.w3.org/TR/2001/REC-SVG-20010904/DTD/svg10.dtd">
<svg version="1.0" xmlns="http://www.w3.org/2000/svg"
 width="477.000000pt" height="416.000000pt" viewBox="0 0 477.000000 416.000000"
 preserveAspectRatio="xMidYMid meet">

<g transform="translate(0.000000,416.000000) scale(0.100000,-0.100000)"
fill="#000000" stroke="none">
<path d="M520 3905 l0 -255 -42 0 c-24 0 -48 -4 -54 -8 -21 -13 -34 -51 -41
-112 l-6 -60 -131 0 c-149 0 -185 -11 -223 -69 l-23 -34 0 -606 c0 -755 -20
-692 229 -701 l145 -5 12 -73 c7 -40 18 -79 24 -87 8 -10 31 -15 61 -15 l49 0
0 -260 0 -260 205 0 205 0 2 257 3 258 53 3 c50 3 54 5 67 35 7 18 16 58 20
90 l7 57 140 0 c160 0 186 9 219 72 18 35 19 67 19 630 0 654 2 635 -63 682
-25 19 -46 21 -171 24 l-143 3 -11 71 c-13 89 -30 108 -94 108 l-48 0 0 255 0
255 -205 0 -205 0 0 -255z"/>
<path d="M3200 2140 c-18 -18 -20 -33 -20 -140 0 -116 1 -122 25 -144 l25 -23
0 -302 c0 -320 2 -332 49 -375 17 -15 21 -31 21 -81 0 -34 -3 -64 -6 -67 -3
-3 -80 14 -172 38 -92 24 -177 44 -190 44 -44 0 -99 -37 -121 -83 -20 -42 -21
-57 -21 -462 0 -398 1 -421 20 -460 13 -26 34 -49 59 -63 39 -22 42 -22 588
-22 l550 0 33 22 c63 43 74 69 78 176 l4 97 77 23 c169 52 315 170 384 312 59
122 69 174 68 351 -1 146 0 157 20 175 47 43 49 55 49 375 l0 302 25 23 c24
22 25 28 25 144 0 164 4 160 -178 160 -189 0 -182 6 -182 -160 0 -119 2 -131
20 -142 19 -12 20 -24 20 -311 0 -327 2 -342 59 -389 l31 -27 0 -128 c0 -142
-15 -222 -57 -311 -32 -68 -109 -153 -178 -197 -46 -29 -153 -75 -175 -75 -6
0 -10 38 -10 88 0 82 2 90 26 113 35 32 79 121 93 187 6 29 11 117 11 196 0
133 1 144 21 162 46 40 49 66 49 378 l0 295 25 25 c24 24 25 31 25 134 0 95
-3 113 -21 136 -20 26 -21 26 -165 26 -189 0 -184 4 -184 -159 0 -114 1 -120
25 -142 l25 -24 0 -305 c0 -287 1 -307 20 -338 11 -18 31 -38 45 -44 24 -11
25 -14 25 -118 0 -103 -12 -197 -31 -247 l-9 -25 -33 29 c-25 22 -56 34 -139
52 -89 20 -107 27 -112 45 -3 11 -6 73 -6 137 0 114 0 116 25 127 14 6 34 26
45 44 19 31 20 51 20 337 l0 303 25 30 c23 27 25 37 25 137 0 94 -3 112 -21
135 -20 26 -21 26 -162 26 -78 0 -147 -4 -153 -8 -25 -17 -34 -56 -34 -156 0
-97 2 -107 25 -134 l25 -30 0 -291 c0 -245 3 -297 16 -331 9 -22 25 -45 35
-51 17 -9 19 -23 19 -134 0 -69 -3 -125 -6 -125 -5 0 -162 39 -246 61 l-38 10
0 82 c0 82 0 82 35 110 20 16 38 42 44 65 7 21 11 157 11 327 0 279 1 291 20
303 18 11 20 23 20 142 0 166 7 160 -182 160 -125 0 -140 -2 -158 -20z"/>
<path d="M403 1228 c-14 -26 -18 -57 -18 -148 0 -91 4 -122 18 -147 l18 -33
310 0 310 0 14 34 c34 81 27 265 -12 308 -15 17 -38 18 -319 18 l-303 0 -18
-32z"/>
<path d="M2370 907 l-35 -12 -3 -317 -2 -316 44 -17 c35 -14 67 -16 148 -13
57 3 115 11 131 18 l27 13 0 314 0 313 -27 12 c-40 17 -240 21 -283 5z"/>
<path d="M600 778 c-24 -13 -57 -40 -74 -61 -26 -32 -31 -49 -34 -106 -4 -74
14 -125 60 -168 58 -54 34 -53 878 -53 l780 0 0 205 0 205 -783 0 -783 0 -44
-22z"/>
</g>
</svg>
