<?xml version="1.0" standalone="no"?>
<!DOCTYPE svg PUBLIC "-//W3C//DTD SVG 20010904//EN"
 "http://www.w3.org/TR/2001/REC-SVG-20010904/DTD/svg10.dtd">
<svg version="1.0" xmlns="http://www.w3.org/2000/svg"
 width="259.000000pt" height="226.000000pt" viewBox="0 0 259.000000 226.000000"
 preserveAspectRatio="xMidYMid meet">

<g transform="translate(0.000000,226.000000) scale(0.100000,-0.100000)"
fill="#000000" stroke="none">
<path d="M1232 2244 c-27 -14 -133 -178 -630 -972 l-597 -956 0 -66 c0 -57 5
-74 30 -115 35 -57 100 -110 153 -125 24 -6 401 -10 1112 -10 872 1 1082 3
1113 14 114 41 194 169 173 278 -9 45 -1166 1916 -1201 1941 -37 27 -111 32
-153 11z m543 -1175 c259 -419 472 -765 473 -770 2 -5 -413 -9 -953 -9 -526 0
-955 4 -953 8 7 20 953 1531 958 1531 3 1 216 -342 475 -760z"/>
<path d="M1170 1438 c0 -35 7 -189 15 -343 8 -154 15 -295 15 -312 l0 -33 94
0 94 0 6 93 c3 50 10 198 16 327 6 129 12 256 15 283 l4 47 -129 0 -130 0 0
-62z"/>
<path d="M1223 654 c-97 -48 -98 -214 -2 -266 70 -38 166 -13 201 53 25 46 24
122 -2 164 -37 60 -128 83 -197 49z"/>
</g>
</svg>
