<?xml version="1.0" standalone="no"?>
<!DOCTYPE svg PUBLIC "-//W3C//DTD SVG 20010904//EN"
 "http://www.w3.org/TR/2001/REC-SVG-20010904/DTD/svg10.dtd">
<svg version="1.0" xmlns="http://www.w3.org/2000/svg"
 width="296.000000pt" height="324.000000pt" viewBox="0 0 296.000000 324.000000"
 preserveAspectRatio="xMidYMid meet">

<g transform="translate(0.000000,324.000000) scale(0.100000,-0.100000)"
fill="#000000" stroke="none">
<path d="M1045 3225 c-261 -41 -475 -148 -667 -334 -325 -314 -451 -767 -336
-1206 117 -446 499 -803 952 -890 329 -63 667 8 943 197 165 113 333 312 414
492 31 68 36 75 74 86 62 19 164 73 231 124 84 63 157 154 209 261 205 422
-28 929 -481 1045 -88 23 -275 26 -359 7 -49 -12 -50 -12 -115 31 -247 164
-570 234 -865 187z m394 -305 c46 -11 111 -33 144 -48 l61 -28 -138 4 c-154 5
-248 -7 -371 -45 -379 -118 -666 -437 -739 -823 -9 -47 -16 -138 -17 -214 l0
-131 -20 50 c-47 113 -62 194 -62 335 -1 197 43 349 145 505 139 212 364 362
617 410 103 20 271 13 380 -15z m901 -126 c187 -53 342 -216 380 -401 17 -82
8 -224 -20 -296 -93 -245 -354 -394 -599 -343 -110 23 -188 64 -270 141 -87
82 -144 188 -163 303 -25 152 28 325 134 439 147 156 339 213 538 157z m-988
-513 c80 -36 101 -60 114 -137 6 -38 23 -99 38 -136 l27 -67 -20 -47 c-67
-151 -225 -222 -378 -170 -143 48 -231 215 -189 359 51 177 244 270 408 198z"/>
<path d="M1862 2608 l-72 -73 127 -127 128 -128 -130 -130 -130 -130 75 -75
75 -75 130 130 130 130 130 -130 130 -130 75 75 75 75 -130 130 -130 130 130
130 130 130 -70 70 c-38 38 -74 70 -80 70 -6 0 -66 -56 -135 -125 l-125 -125
-125 125 c-69 69 -128 125 -130 125 -3 0 -38 -33 -78 -72z"/>
<path d="M2517 1426 c-67 -25 -112 -62 -150 -124 -72 -116 -71 -226 4 -339
l27 -41 -45 -81 c-111 -196 -236 -273 -448 -275 l-80 -1 -3 118 c-1 64 -4 117
-5 117 -2 0 -41 -15 -88 -34 -179 -73 -348 -101 -548 -93 -181 7 -331 41 -479
108 l-63 28 3 -307 3 -307 27 -52 c33 -61 68 -89 151 -116 55 -18 95 -21 349
-25 390 -6 502 11 581 86 46 44 60 80 66 177 l6 90 125 7 c145 8 217 25 312
75 94 49 185 149 267 291 l64 112 46 0 c61 0 156 45 200 95 54 62 75 119 75
205 1 122 -56 214 -167 272 -53 27 -175 35 -230 14z"/>
</g>
</svg>
