<svg xmlns="http://www.w3.org/2000/svg" xmlns:svgjs="http://svgjs.com/svgjs" xmlns:xlink="http://www.w3.org/1999/xlink" width="288" height="288"><svg xmlns="http://www.w3.org/2000/svg" width="288" height="288" fill-rule="evenodd" clip-rule="evenodd" image-rendering="optimizeQuality" shape-rendering="geometricPrecision" text-rendering="geometricPrecision" viewBox="0 0 534 364"><path fill="#2a569a" d="M 131.5,-0.5 C 140.833,-0.5 150.167,-0.5 159.5,-0.5C 203.728,9.23156 229.228,36.5649 236,81.5C 237.672,125.009 218.839,155.842 179.5,174C 143.069,186.513 110.402,180.18 81.5,155C 54.4488,125.746 47.6155,92.2464 61,54.5C 75.3203,24.2719 98.8203,5.9386 131.5,-0.5 Z M 136.5,22.5 C 171.134,20.8891 195.3,35.8891 209,67.5C 218.53,105.935 205.697,134.102 170.5,152C 135.427,163.199 107.593,153.699 87,123.5C 71.9777,93.3233 75.8111,65.8233 98.5,41C 109.534,31.3157 122.2,25.1491 136.5,22.5 Z" class="color19171a svgShape" opacity=".96"/><path fill="#2a569a" d="M 110.5,40.5 C 111.552,40.3505 112.552,40.5172 113.5,41C 124.014,51.6809 134.681,62.1809 145.5,72.5C 156.5,61.8333 167.5,51.1667 178.5,40.5C 184.708,45.5265 189.875,51.1932 194,57.5C 183.319,68.0141 172.819,78.6807 162.5,89.5C 173.362,100.527 184.028,111.694 194.5,123C 189.396,128.821 183.896,134.321 178,139.5C 167,128.5 156,117.5 145,106.5C 134,117.5 123,128.5 112,139.5C 106.667,134.167 101.333,128.833 96,123.5C 95.3333,122.833 95.3333,122.167 96,121.5C 106.529,110.637 117.363,100.137 128.5,90C 117.319,78.9859 106.319,67.8193 95.5,56.5C 100.522,51.1463 105.522,45.813 110.5,40.5 Z" class="color19171a svgShape" opacity=".951"/><path fill="#2a569a" d="M 533.5,131.5 C 533.5,203.833 533.5,276.167 533.5,348.5C 529.877,354.951 524.543,359.451 517.5,362C 350.5,362.667 183.5,362.667 16.5,362C 8.31563,358.981 2.64896,353.481 -0.5,345.5C -0.5,275.167 -0.5,204.833 -0.5,134.5C 2.22543,126.609 7.55877,121.109 15.5,118C 27.1041,116.588 38.7707,116.088 50.5,116.5C 52.9051,125.55 56.5717,134.05 61.5,142C 49.5046,142.5 37.5046,142.667 25.5,142.5C 25.5,207.5 25.5,272.5 25.5,337.5C 186.5,337.5 347.5,337.5 508.5,337.5C 508.5,272.5 508.5,207.5 508.5,142.5C 415.498,142.833 322.498,142.5 229.5,141.5C 234.245,134.008 237.912,126.008 240.5,117.5C 331.832,116.333 423.165,116.167 514.5,117C 523.058,119.073 529.391,123.907 533.5,131.5 Z" class="color19171a svgShape" opacity=".981"/><path fill="#2a569a" d="M 306.5,159.5 C 330.332,156.539 352.332,161.372 372.5,174C 380.337,176.383 388.337,177.05 396.5,176C 409.252,172.152 422.252,170.819 435.5,172C 439.385,172.739 443.052,174.073 446.5,176C 454.913,181.957 463.413,187.79 472,193.5C 476.461,200.115 478.794,207.448 479,215.5C 479.667,231.833 479.667,248.167 479,264.5C 478.814,274.701 474.981,283.201 467.5,290C 458.499,294.832 449.832,300.165 441.5,306C 436.733,307.211 431.9,308.045 427,308.5C 413.797,306.741 400.63,304.741 387.5,302.5C 382.774,303.01 378.108,303.843 373.5,305C 351.699,318.581 328.032,323.248 302.5,319C 296.086,318.05 289.752,316.717 283.5,315C 273.752,311.195 264.086,307.195 254.5,303C 236.127,297.21 217.461,296.044 198.5,299.5C 191.991,299.391 186.491,297.057 182,292.5C 179.138,286.248 176.472,279.915 174,273.5C 169.152,268.878 163.319,266.378 156.5,266C 149.85,265.001 143.183,264.667 136.5,265C 133.274,267.547 129.607,269.047 125.5,269.5C 123.895,275.378 121.728,281.044 119,286.5C 118.888,291.238 118.722,295.904 118.5,300.5C 115.906,299.408 113.739,297.741 112,295.5C 109.728,290.41 108.394,285.077 108,279.5C 106.939,282.562 105.106,285.062 102.5,287C 98.5454,287.111 94.5454,287.778 90.5,289C 87.5674,290.271 84.9007,291.938 82.5,294C 75.4452,296.614 73.9452,294.781 78,288.5C 82.6988,283.466 87.6988,278.8 93,274.5C 93.2734,272.899 93.7734,271.399 94.5,270C 88.9192,269.814 83.7526,268.314 79,265.5C 78.5172,264.552 78.3505,263.552 78.5,262.5C 67.0903,263.442 56.9236,260.442 48,253.5C 47.3333,252.167 46.6667,250.833 46,249.5C 45.3333,242.5 45.3333,235.5 46,228.5C 47.9647,224.417 51.1314,221.584 55.5,220C 63.0808,218.094 70.7475,216.594 78.5,215.5C 79.3636,213.803 80.6969,212.637 82.5,212C 86.414,210.717 90.414,209.884 94.5,209.5C 94.6564,205.418 94.1564,201.418 93,197.5C 87.3651,192.867 82.0318,187.867 77,182.5C 74.6621,179.886 74.9954,177.886 78,176.5C 82.3554,178.261 86.5221,180.428 90.5,183C 94.4423,183.993 98.4423,184.66 102.5,185C 105.106,186.938 106.939,189.438 108,192.5C 108.61,189.173 109.11,185.839 109.5,182.5C 112.956,182.596 116.123,183.596 119,185.5C 120.667,189.5 122.333,193.5 124,197.5C 124.263,201.835 124.097,206.168 123.5,210.5C 128.215,210.351 132.549,211.518 136.5,214C 145.614,214.868 154.614,214.201 163.5,212C 167.062,211.261 170.228,209.761 173,207.5C 176.243,201.445 178.91,195.112 181,188.5C 185.353,182.373 191.353,179.707 199,180.5C 219.309,183.852 239.142,182.019 258.5,175C 266.084,171.472 273.751,168.139 281.5,165C 289.874,162.695 298.207,160.861 306.5,159.5 Z" class="color19171a svgShape" opacity=".988"/></svg></svg>