<?xml version="1.0" standalone="no"?>
<!DOCTYPE svg PUBLIC "-//W3C//DTD SVG 20010904//EN"
 "http://www.w3.org/TR/2001/REC-SVG-20010904/DTD/svg10.dtd">
<svg version="1.0" xmlns="http://www.w3.org/2000/svg"
 width="534.000000pt" height="445.000000pt" viewBox="0 0 534.000000 445.000000"
 preserveAspectRatio="xMidYMid meet">

<g transform="translate(0.000000,445.000000) scale(0.100000,-0.100000)"
fill="#000000" stroke="none">
<path d="M1736 4431 c-38 -25 -55 -57 -56 -103 0 -25 124 -350 400 -1050 330
-839 404 -1017 427 -1035 l28 -23 1280 -2 1280 -3 3 -977 2 -978 -2425 0
-2425 0 2 978 3 977 98 3 97 3 0 119 0 120 -135 0 c-91 0 -146 -4 -168 -13
-52 -22 -98 -68 -123 -122 l-24 -50 0 -1030 c0 -713 3 -1042 11 -1070 14 -53
99 -136 155 -153 59 -17 4958 -18 5016 0 45 13 122 77 143 119 13 24 15 177
15 1094 0 1038 -1 1067 -20 1104 -22 44 -70 88 -117 108 -27 11 -255 13 -1276
13 -984 0 -1247 3 -1254 13 -5 6 -171 422 -368 922 -197 501 -368 934 -381
962 -37 86 -121 118 -188 74z"/>
<path d="M1379 3383 c-81 -84 -486 -549 -498 -571 -13 -24 -5 -68 13 -80 6 -4
56 -9 111 -12 l100 -5 5 -237 c3 -130 7 -238 10 -241 27 -24 69 -27 355 -27
l306 0 24 25 25 24 0 226 0 225 75 0 c67 0 79 3 100 25 14 13 25 35 25 48 0
23 -155 211 -418 507 -147 166 -158 170 -233 93z"/>
<path d="M3010 2029 c-116 -14 -220 -44 -344 -98 -234 -102 -366 -129 -560
-115 -275 19 -315 1 -365 -164 -34 -114 -88 -144 -284 -164 -102 -10 -112 -9
-146 10 -20 11 -55 23 -78 27 l-42 7 6 63 c5 53 2 70 -15 103 -33 64 -43 114
-33 165 7 37 6 47 -5 47 -37 0 -78 -73 -90 -158 l-7 -52 -28 40 c-29 40 -40
45 -116 53 -25 3 -63 18 -90 36 -94 63 -114 22 -30 -62 28 -29 67 -64 85 -77
27 -21 34 -34 42 -84 5 -32 7 -62 5 -66 -2 -4 -26 -10 -53 -13 -61 -7 -100
-25 -107 -49 -5 -14 -17 -18 -60 -18 -110 0 -214 -35 -254 -86 -18 -23 -21
-40 -21 -124 0 -84 3 -101 23 -131 34 -52 110 -88 212 -101 68 -8 92 -16 110
-34 14 -14 46 -27 85 -35 59 -11 61 -13 55 -38 -3 -14 -23 -39 -43 -55 -148
-118 -180 -220 -43 -135 34 22 69 34 108 38 52 5 60 9 89 48 l32 41 6 -50 c12
-88 50 -158 86 -158 15 0 16 6 9 43 -9 49 3 112 31 165 11 20 20 51 20 69 0
29 3 33 27 33 15 0 47 10 71 21 39 19 56 21 141 16 118 -6 213 -31 250 -66 18
-17 38 -55 55 -108 50 -151 93 -173 305 -156 228 19 363 -5 602 -108 205 -88
281 -103 514 -104 169 0 199 3 271 23 45 13 110 39 145 58 177 95 227 102 437
60 225 -44 339 -33 441 44 30 22 82 57 117 76 77 43 129 101 151 169 21 65 31
557 13 665 -19 112 -56 163 -171 235 -53 33 -118 74 -143 92 -87 58 -213 65
-406 23 -181 -39 -274 -33 -372 25 -84 50 -143 74 -233 96 -95 23 -296 32
-405 18z"/>
</g>
</svg>
