<?xml version="1.0" standalone="no"?>
<!DOCTYPE svg PUBLIC "-//W3C//DTD SVG 20010904//EN"
 "http://www.w3.org/TR/2001/REC-SVG-20010904/DTD/svg10.dtd">
<svg version="1.0" xmlns="http://www.w3.org/2000/svg"
 width="1280.000000pt" height="853.000000pt" viewBox="0 0 1280.000000 853.000000"
 preserveAspectRatio="xMidYMid meet">
<metadata>
Created by potrace 1.15, written by Peter Selinger 2001-2017
</metadata>
<g transform="translate(0.000000,853.000000) scale(0.100000,-0.100000)"
fill="#000000" stroke="none">
<path d="M5900 7770 c-106 -19 -186 -80 -229 -173 -22 -49 -56 -173 -75 -276
-4 -23 -36 -40 -85 -46 -211 -26 -336 -51 -376 -75 -33 -20 -112 -50 -133 -50
-8 0 -28 -6 -45 -14 -18 -8 -68 -27 -112 -41 -114 -38 -217 -105 -238 -155
-12 -30 -27 -106 -34 -178 -7 -69 28 -131 99 -175 41 -26 48 -34 42 -51 -4
-12 -7 -41 -6 -66 4 -183 3 -423 -3 -620 l-7 -234 -71 -83 c-39 -46 -74 -83
-78 -83 -14 0 -275 -286 -292 -320 -10 -19 -28 -51 -40 -70 -21 -33 -22 -50
-28 -300 -6 -270 -5 -529 6 -1250 3 -223 8 -612 10 -865 11 -1013 15 -1086 57
-1155 4 -8 11 -24 15 -34 13 -39 67 -133 108 -186 43 -56 145 -150 163 -150 5
0 16 -7 23 -17 64 -77 438 -239 558 -241 25 -1 51 -8 62 -18 10 -9 60 -25 111
-36 197 -40 285 -47 648 -49 321 -1 368 0 488 20 238 38 365 71 482 124 30 14
66 28 80 32 14 4 41 16 60 26 19 11 39 19 44 19 26 0 204 121 274 185 98 91
153 175 196 297 44 124 54 236 66 768 6 234 15 520 20 635 6 116 14 392 20
615 5 223 15 606 21 852 10 369 10 457 -1 503 -10 42 -11 58 -2 67 25 25 2
108 -50 185 -15 23 -28 47 -28 53 0 6 -17 29 -38 53 -21 23 -49 58 -64 77 -14
19 -67 79 -118 133 -50 53 -90 97 -87 97 3 0 126 -51 274 -114 147 -63 283
-117 302 -121 43 -9 111 -45 139 -73 12 -12 28 -22 36 -22 17 0 72 -60 109
-120 45 -73 114 -110 205 -110 46 0 119 32 129 55 3 8 9 13 13 10 12 -7 60 53
83 104 25 57 20 157 -12 219 -25 49 -89 94 -169 118 -57 17 -78 35 -191 168
-111 131 -247 227 -341 242 -22 4 -43 11 -46 15 -3 5 -13 9 -23 9 -11 0 -25
15 -36 40 -39 86 -104 130 -193 130 -76 0 -113 -15 -170 -69 -48 -46 -43 -46
-159 11 -46 23 -63 37 -63 52 0 11 -1 75 -3 143 -2 72 0 126 6 132 7 7 6 15
-2 25 -12 14 -16 124 -7 171 3 11 5 27 6 35 0 8 16 26 35 40 48 34 87 94 72
109 -8 8 -3 19 20 43 53 55 68 130 39 186 -45 86 -225 184 -394 216 -18 3 -56
16 -85 29 -92 43 -257 87 -417 113 -52 8 -98 18 -102 22 -3 4 -23 59 -44 122
-60 183 -126 280 -226 331 -40 20 -114 23 -198 9z m88 -325 c11 -27 23 -68 26
-91 l7 -41 -56 -2 -56 -2 7 28 c3 16 10 42 14 58 5 17 12 50 15 73 8 51 16 46
43 -23z m1297 -1547 l65 -32 0 -51 c0 -103 31 -153 137 -222 56 -36 62 -43 46
-52 -10 -6 -12 -11 -5 -11 6 0 12 -4 12 -10 0 -15 -307 113 -322 135 -8 11
-11 275 -3 275 2 0 34 -14 70 -32z"/>
</g>
</svg>
