<?xml version="1.0" standalone="no"?>
<!DOCTYPE svg PUBLIC "-//W3C//DTD SVG 20010904//EN"
 "http://www.w3.org/TR/2001/REC-SVG-20010904/DTD/svg10.dtd">
<svg version="1.0" xmlns="http://www.w3.org/2000/svg"
 width="288.000000pt" height="343.000000pt" viewBox="0 0 288.000000 343.000000"
 preserveAspectRatio="xMidYMid meet">

<g transform="translate(0.000000,343.000000) scale(0.100000,-0.100000)"
fill="#000000" stroke="none">
<path d="M784 3391 c-76 -46 -108 -132 -102 -274 2 -77 8 -102 32 -151 34 -70
96 -135 158 -167 23 -12 106 -51 183 -85 125 -56 137 -64 115 -72 -550 -210
-1028 -397 -1044 -408 -35 -22 -66 -87 -66 -135 0 -27 14 -79 34 -131 l34 -87
-34 -21 c-47 -27 -79 -97 -71 -154 4 -23 24 -86 46 -141 55 -137 103 -175 206
-163 l35 4 35 -92 c26 -67 46 -101 70 -123 43 -37 98 -53 146 -42 29 7 327
118 337 127 2 1 -4 16 -13 34 -9 17 -19 53 -22 81 -3 27 -7 49 -8 49 -2 0 -73
-27 -158 -60 -86 -33 -160 -60 -164 -60 -12 0 -64 143 -55 151 4 3 216 86 472
183 334 128 471 185 488 202 47 52 12 134 -57 134 -24 0 -223 -72 -581 -210
-299 -115 -546 -207 -549 -205 -11 12 -58 145 -52 149 3 3 177 70 386 149 677
259 719 276 738 298 35 43 12 116 -42 134 -29 9 -40 5 -530 -184 -244 -94
-449 -171 -456 -171 -11 0 -70 139 -62 146 2 2 279 110 617 240 338 130 618
239 622 243 4 3 -7 40 -23 82 l-30 77 -232 103 c-267 119 -307 148 -333 235
-13 44 -13 64 -4 109 6 30 14 55 17 55 3 0 230 -72 504 -160 274 -88 509 -160
521 -160 13 0 45 7 72 15 69 21 158 19 204 -4 84 -43 104 -81 262 -491 160
-414 170 -444 170 -519 0 -110 -50 -168 -208 -243 l-83 -39 20 -28 c11 -16 26
-49 33 -75 7 -25 18 -46 25 -46 21 0 181 86 234 126 60 46 115 123 134 189 19
61 19 163 0 242 -22 96 -292 790 -335 864 -100 169 -258 238 -455 196 l-70
-15 -497 159 c-327 105 -511 159 -540 159 -24 0 -56 -8 -74 -19z"/>
<path d="M2010 2443 c-28 -10 -69 -56 -80 -89 -26 -79 42 -174 125 -174 105 0
170 117 115 207 -31 51 -103 77 -160 56z"/>
<path d="M1769 1995 c-117 -63 -68 -245 65 -245 86 0 136 50 136 135 0 42 -5
52 -39 86 -34 35 -44 39 -87 39 -27 -1 -61 -7 -75 -15z"/>
<path d="M2208 1994 c-80 -43 -79 -187 2 -229 35 -18 106 -19 138 -1 82 45 83
182 2 230 -35 20 -106 20 -142 0z"/>
<path d="M1120 1562 c-42 -21 -80 -75 -80 -114 0 -75 61 -138 133 -138 142 0
190 193 63 254 -44 21 -73 20 -116 -2z"/>
<path d="M1564 1566 c-68 -30 -97 -103 -69 -174 54 -135 255 -93 255 53 0 51
-28 97 -73 118 -42 20 -71 21 -113 3z"/>
<path d="M2004 1566 c-70 -31 -99 -109 -65 -179 37 -76 123 -100 192 -54 42
28 59 60 59 112 0 98 -95 160 -186 121z"/>
<path d="M882 1120 c-59 -36 -78 -118 -42 -177 74 -122 250 -73 250 69 0 100
-119 162 -208 108z"/>
<path d="M1324 1121 c-81 -49 -81 -173 0 -226 88 -58 206 6 206 111 0 104
-117 169 -206 115z"/>
<path d="M1763 1119 c-38 -24 -67 -90 -58 -135 11 -60 75 -114 136 -114 36 0
90 32 110 64 39 63 14 157 -50 191 -41 21 -100 19 -138 -6z"/>
<path d="M656 679 c-34 -27 -56 -70 -56 -109 0 -76 57 -130 135 -130 78 0 135
54 135 130 0 76 -57 130 -135 130 -38 0 -60 -6 -79 -21z"/>
<path d="M1085 667 c-89 -89 -31 -227 95 -227 120 0 175 146 86 227 -31 29
-42 33 -92 33 -50 0 -59 -3 -89 -33z"/>
<path d="M1525 667 c-89 -89 -31 -227 97 -227 41 0 54 5 85 33 32 30 37 41 41
90 4 55 3 58 -36 97 -37 37 -43 40 -97 40 -51 0 -60 -3 -90 -33z"/>
<path d="M451 252 c-121 -65 -74 -252 64 -252 73 0 135 62 135 137 0 67 -67
133 -135 133 -17 0 -46 -8 -64 -18z"/>
<path d="M1333 250 c-121 -73 -74 -250 67 -250 136 0 180 195 57 253 -46 22
-85 21 -124 -3z"/>
</g>
</svg>
