<?xml version="1.0" standalone="no"?>
<!DOCTYPE svg PUBLIC "-//W3C//DTD SVG 20010904//EN"
 "http://www.w3.org/TR/2001/REC-SVG-20010904/DTD/svg10.dtd">
<svg version="1.0" xmlns="http://www.w3.org/2000/svg"
 width="534.000000pt" height="364.000000pt" viewBox="0 0 534.000000 364.000000"
 preserveAspectRatio="xMidYMid meet">

<g transform="translate(0.000000,364.000000) scale(0.100000,-0.100000)"
fill="#000000" stroke="none">
<path d="M1287 3625 c-345 -66 -624 -330 -709 -673 -30 -121 -30 -322 1 -437
66 -247 235 -458 461 -575 133 -68 219 -91 368 -97 283 -13 492 67 687 262
105 105 145 163 200 292 79 184 88 422 23 623 -57 177 -188 354 -342 460 -69
47 -205 109 -287 131 -100 27 -297 34 -402 14z m338 -232 c225 -55 407 -229
482 -458 36 -111 38 -266 4 -375 -38 -125 -87 -206 -176 -296 -66 -66 -97 -89
-175 -127 -170 -83 -334 -97 -507 -42 -280 88 -473 352 -473 644 0 110 20 195
72 301 33 68 57 101 127 170 180 179 405 243 646 183z"/>
<path d="M1045 3150 l-80 -80 165 -165 165 -165 -165 -165 -165 -165 80 -80
80 -80 145 143 c80 79 155 151 168 162 l23 19 164 -164 165 -165 80 80 80 80
-165 165 -165 165 165 165 165 165 -83 83 -82 82 -165 -165 -165 -165 -165
165 -165 165 -80 -80z"/>
<path d="M132 2434 c-57 -28 -97 -73 -118 -131 -17 -50 -20 -2064 -3 -2128 14
-53 99 -136 155 -153 59 -17 4958 -18 5016 0 45 13 122 77 143 119 13 24 15
177 15 1097 l0 1070 -32 48 c-23 33 -50 57 -87 76 l-53 28 -1378 0 -1378 0
-21 -62 c-12 -35 -35 -87 -51 -117 -17 -30 -30 -58 -30 -63 0 -4 628 -8 1395
-8 l1395 0 0 -975 0 -975 -2425 0 -2425 0 0 975 0 975 180 0 c99 0 180 3 180
6 0 3 -12 26 -26 50 -15 25 -39 77 -55 117 l-27 72 -159 3 c-153 2 -160 2
-211 -24z"/>
<path d="M3062 2030 c-123 -16 -241 -48 -343 -95 -222 -100 -380 -133 -573
-119 -276 19 -310 3 -366 -168 -37 -114 -98 -146 -311 -163 -74 -6 -90 -4
-120 13 -19 11 -53 23 -75 27 l-41 6 5 68 c4 59 1 74 -22 117 -14 27 -26 54
-26 60 0 9 -57 27 -80 25 -3 0 -10 -24 -16 -53 -7 -29 -12 -48 -13 -41 0 7
-15 28 -32 48 -27 30 -37 35 -77 35 -33 0 -62 9 -108 35 -34 19 -69 35 -78 35
-43 0 12 -83 100 -151 47 -36 54 -46 64 -95 14 -67 9 -84 -27 -84 -49 0 -101
-20 -121 -45 -17 -21 -28 -25 -74 -25 -66 0 -160 -24 -205 -51 -50 -31 -63
-65 -63 -167 0 -76 3 -94 23 -123 31 -48 114 -86 216 -101 63 -9 89 -17 106
-34 14 -14 46 -27 85 -35 55 -11 61 -14 56 -33 -3 -12 -6 -24 -6 -27 0 -4 -25
-27 -56 -53 -62 -51 -114 -111 -114 -132 0 -21 44 -17 73 6 38 30 91 50 135
50 39 0 74 26 99 74 9 16 12 10 18 -30 13 -90 55 -164 92 -164 5 0 7 31 5 70
-4 58 0 77 19 112 12 24 25 61 28 83 6 36 9 40 44 47 21 4 52 15 70 24 68 36
325 -3 383 -57 13 -12 35 -58 50 -103 51 -153 103 -179 314 -157 196 20 369
-10 572 -100 216 -95 362 -124 582 -116 198 7 271 28 466 133 51 27 61 29 170
29 79 -1 134 -6 175 -19 33 -9 107 -20 165 -23 127 -7 193 9 262 62 26 19 75
51 110 71 177 102 192 148 186 579 -4 251 -7 297 -23 339 -22 60 -81 121 -155
160 -30 16 -74 44 -97 63 -77 62 -125 77 -243 76 -67 0 -139 -8 -200 -21 -141
-31 -180 -34 -256 -22 -49 8 -88 22 -134 49 -85 51 -128 68 -225 92 -94 23
-287 32 -393 19z"/>
</g>
</svg>
