<?xml version="1.0"?>
<svg xmlns="http://www.w3.org/2000/svg" version="1" viewBox="0 0 50 50" enable-background="new 0 0 50 50">
    <path style="text-indent:0;text-align:start;line-height:normal;text-transform:none;block-progression:tb;-inkscape-font-specification:Bitstream Vera Sans" d="M 25 0 C 11.204726 0 0 11.204726 0 25 C 0 38.795274 11.204726 50 25 50 C 38.795274 50 50 38.795274 50 25 C 50 11.204726 38.795274 0 25 0 z M 25 2 C 37.714394 2 48 12.285606 48 25 C 48 37.714394 37.714394 48 25 48 C 12.285606 48 2 37.714394 2 25 C 2 12.285606 12.285606 2 25 2 z M 22.90625 3.09375 C 11.700474 4.1410188 3 13.592355 3 25 C 3 36.407645 11.700474 45.858981 22.90625 46.90625 A 1.0001 1.0001 0 0 0 24 46 C 24.06042 45.335363 24.384848 45 25 45 C 25.615152 45 25.939578 45.335363 26 46 A 1.0001 1.0001 0 0 0 27.09375 46.90625 C 38.299526 45.858981 47 36.407645 47 25 C 47 13.592355 38.299526 4.1410188 27.09375 3.09375 A 1.0001 1.0001 0 0 0 26 4 C 25.939578 4.6646368 25.615152 5 25 5 C 24.384848 5 24.060422 4.6646368 24 4 A 1.0001 1.0001 0 0 0 22.90625 3.09375 z M 22.5 5.21875 C 22.998685 6.2012826 23.829045 7 25 7 C 26.170955 7 27.001315 6.2012826 27.5 5.21875 C 37.397835 6.4486361 45 14.815722 45 25 C 45 35.184278 37.397835 43.551364 27.5 44.78125 C 27.001315 43.798717 26.170955 43 25 43 C 23.829045 43 22.998685 43.798717 22.5 44.78125 C 12.602165 43.551364 5 35.184278 5 25 C 5 14.815722 12.602165 6.4486361 22.5 5.21875 z M 16.71875 9 A 1.0043849 1.0043849 0 0 0 17 11 L 22 11 A 1.0001 1.0001 0 1 0 22 9 L 17 9 A 1.0001 1.0001 0 0 0 16.90625 9 A 1.001098 1.001098 0 0 0 16.8125 9 A 1.0043849 1.0043849 0 0 0 16.71875 9 z M 27.71875 9 A 1.0043849 1.0043849 0 0 0 28 11 L 33 11 A 1.0001 1.0001 0 1 0 33 9 L 28 9 A 1.0001 1.0001 0 0 0 27.90625 9 A 1.001098 1.001098 0 0 0 27.8125 9 A 1.0043849 1.0043849 0 0 0 27.71875 9 z M 12.71875 14 A 1.0043849 1.0043849 0 0 0 13 16 L 22 16 A 1.0001 1.0001 0 1 0 22 14 L 13 14 A 1.0001 1.0001 0 0 0 12.90625 14 A 1.001098 1.001098 0 0 0 12.8125 14 A 1.0043849 1.0043849 0 0 0 12.71875 14 z M 27.71875 14 A 1.0043849 1.0043849 0 0 0 28 16 L 37 16 A 1.0001 1.0001 0 1 0 37 14 L 28 14 A 1.0001 1.0001 0 0 0 27.90625 14 A 1.001098 1.001098 0 0 0 27.8125 14 A 1.0043849 1.0043849 0 0 0 27.71875 14 z M 9.71875 19 A 1.0043849 1.0043849 0 0 0 10 21 L 22 21 A 1.0001 1.0001 0 1 0 22 19 L 10 19 A 1.0001 1.0001 0 0 0 9.90625 19 A 1.001098 1.001098 0 0 0 9.8125 19 A 1.0043849 1.0043849 0 0 0 9.71875 19 z M 27.71875 19 A 1.0043849 1.0043849 0 0 0 28 21 L 40 21 A 1.0001 1.0001 0 1 0 40 19 L 28 19 A 1.0001 1.0001 0 0 0 27.90625 19 A 1.001098 1.001098 0 0 0 27.8125 19 A 1.0043849 1.0043849 0 0 0 27.71875 19 z M 8.71875 24 A 1.0043849 1.0043849 0 0 0 9 26 L 22 26 A 1.0001 1.0001 0 1 0 22 24 L 9 24 A 1.0001 1.0001 0 0 0 8.90625 24 A 1.001098 1.001098 0 0 0 8.8125 24 A 1.0043849 1.0043849 0 0 0 8.71875 24 z M 27.71875 24 A 1.0043849 1.0043849 0 0 0 28 26 L 41 26 A 1.0001 1.0001 0 1 0 41 24 L 28 24 A 1.0001 1.0001 0 0 0 27.90625 24 A 1.001098 1.001098 0 0 0 27.8125 24 A 1.0043849 1.0043849 0 0 0 27.71875 24 z M 9.71875 29 A 1.0043849 1.0043849 0 0 0 10 31 L 22 31 A 1.0001 1.0001 0 1 0 22 29 L 10 29 A 1.0001 1.0001 0 0 0 9.90625 29 A 1.001098 1.001098 0 0 0 9.8125 29 A 1.0043849 1.0043849 0 0 0 9.71875 29 z M 27.71875 29 A 1.0043849 1.0043849 0 0 0 28 31 L 40 31 A 1.0001 1.0001 0 1 0 40 29 L 28 29 A 1.0001 1.0001 0 0 0 27.90625 29 A 1.001098 1.001098 0 0 0 27.8125 29 A 1.0043849 1.0043849 0 0 0 27.71875 29 z M 12.71875 34 A 1.0043849 1.0043849 0 0 0 13 36 L 22 36 A 1.0001 1.0001 0 1 0 22 34 L 13 34 A 1.0001 1.0001 0 0 0 12.90625 34 A 1.001098 1.001098 0 0 0 12.8125 34 A 1.0043849 1.0043849 0 0 0 12.71875 34 z M 27.71875 34 A 1.0043849 1.0043849 0 0 0 28 36 L 37 36 A 1.0001 1.0001 0 1 0 37 34 L 28 34 A 1.0001 1.0001 0 0 0 27.90625 34 A 1.001098 1.001098 0 0 0 27.8125 34 A 1.0043849 1.0043849 0 0 0 27.71875 34 z M 16.71875 38 A 1.0043849 1.0043849 0 0 0 17 40 L 22 40 A 1.0001 1.0001 0 1 0 22 38 L 17 38 A 1.0001 1.0001 0 0 0 16.90625 38 A 1.001098 1.001098 0 0 0 16.8125 38 A 1.0043849 1.0043849 0 0 0 16.71875 38 z M 27.71875 38 A 1.0043849 1.0043849 0 0 0 28 40 L 33 40 A 1.0001 1.0001 0 1 0 33 38 L 28 38 A 1.0001 1.0001 0 0 0 27.90625 38 A 1.001098 1.001098 0 0 0 27.8125 38 A 1.0043849 1.0043849 0 0 0 27.71875 38 z"/>
</svg>
