<?xml version="1.0" standalone="no"?>
<!DOCTYPE svg PUBLIC "-//W3C//DTD SVG 20010904//EN"
 "http://www.w3.org/TR/2001/REC-SVG-20010904/DTD/svg10.dtd">
<svg version="1.0" xmlns="http://www.w3.org/2000/svg"
 width="484.000000pt" height="410.000000pt" viewBox="0 0 484.000000 410.000000"
 preserveAspectRatio="xMidYMid meet">

<g transform="translate(0.000000,410.000000) scale(0.100000,-0.100000)"
fill="#000000" stroke="none">
<path d="M0 3965 l0 -135 221 0 c121 0 219 -3 217 -7 -2 -5 -15 -32 -31 -60
-55 -105 -56 -199 -4 -257 12 -14 80 -59 152 -100 218 -126 286 -192 320 -311
22 -73 15 -177 -16 -261 -34 -90 -89 -137 -259 -223 -228 -115 -298 -177 -445
-391 -32 -47 -80 -115 -107 -151 l-48 -66 0 -302 0 -301 218 0 217 -1 34 -49
c18 -28 62 -77 97 -110 l64 -59 0 -178 c0 -199 4 -213 67 -239 36 -16 87 -11
113 9 43 33 50 58 50 182 l0 120 149 0 149 0 4 -127 c3 -118 5 -128 27 -152
14 -15 42 -31 62 -37 31 -10 43 -9 76 7 62 31 73 64 73 234 l0 145 83 28 c45
16 90 31 100 34 32 10 93 -67 119 -150 20 -61 23 -94 23 -222 0 -171 -16 -283
-57 -404 -26 -80 -28 -95 -28 -253 l0 -168 179 0 c162 0 180 2 185 18 3 9 41
228 86 487 44 259 90 508 101 554 15 60 20 106 17 165 l-3 81 -81 135 c-45 74
-107 182 -138 239 l-56 104 0 975 0 975 32 -7 c53 -11 104 -51 129 -103 l24
-48 5 -750 5 -750 27 -73 c95 -256 209 -394 349 -424 74 -15 116 -3 146 41 57
84 6 316 -131 601 l-41 85 -5 645 c-6 635 -6 646 -29 720 -68 225 -207 371
-389 409 -37 8 -356 11 -1052 11 l-1000 0 0 -135z"/>
<path d="M3155 2560 c-107 -214 -202 -431 -234 -534 -20 -65 -21 -88 -21 -508
l0 -440 -125 -133 c-113 -119 -125 -136 -125 -169 0 -47 28 -76 76 -76 31 0
46 10 104 66 l69 66 3 -298 c3 -290 4 -300 26 -342 35 -66 88 -119 150 -149
l57 -28 740 0 c735 0 740 0 786 21 65 30 124 87 154 148 l25 52 -2 895 -3 894
-48 120 c-27 66 -102 229 -167 363 l-119 242 -625 0 -626 0 -95 -190z m1325
-132 c87 -182 160 -350 190 -439 19 -56 20 -87 20 -759 l0 -700 -815 0 -815 0
0 238 0 239 386 401 385 402 51 0 c61 0 107 26 139 76 27 45 24 145 -6 186
-49 65 -149 87 -224 48 -55 -28 -81 -74 -81 -144 l0 -57 -322 -336 -323 -335
-3 343 -3 344 26 72 c32 91 136 326 209 471 l56 112 526 0 525 0 79 -162z"/>
<path d="M980 908 c0 -23 -4 -67 -10 -97 -5 -31 -17 -112 -26 -179 -9 -70 -29
-161 -45 -210 -27 -81 -29 -95 -29 -249 l0 -163 182 2 183 3 52 295 c28 162
52 304 52 315 1 18 -4 20 -49 17 -64 -5 -113 12 -162 56 -54 49 -78 101 -85
183 -6 68 -6 69 -34 69 -27 0 -29 -2 -29 -42z"/>
</g>
</svg>
