<?xml version="1.0" encoding="iso-8859-1"?>
<!-- Generator: Adobe Illustrator 16.0.0, SVG Export Plug-In . SVG Version: 6.00 Build 0)  -->
<!DOCTYPE svg PUBLIC "-//W3C//DTD SVG 1.1//EN" "http://www.w3.org/Graphics/SVG/1.1/DTD/svg11.dtd">
<svg version="1.1" id="Capa_1" xmlns="http://www.w3.org/2000/svg" xmlns:xlink="http://www.w3.org/1999/xlink" x="0px" y="0px"
	 width="925.551px" height="925.55px" viewBox="0 0 925.551 925.55" style="enable-background:new 0 0 925.551 925.55;"
	 xml:space="preserve">
<g>
	<path d="M778.471,142.264c-20.625-20.38-53.866-20.181-74.245,0.445c-20.379,20.625-20.18,53.865,0.445,74.244l42.25,41.747H157.5
		C70.654,258.7,0,329.354,0,416.2v224.743c0,86.846,70.654,157.5,157.5,157.5h626.007c28.995,0,52.5-23.505,52.5-52.5
		s-23.505-52.5-52.5-52.5H157.5c-28.949,0-52.5-23.553-52.5-52.5V416.2c0-28.948,23.551-52.5,52.5-52.5h588.212l-41.689,42.191
		c-20.379,20.625-20.18,53.865,0.445,74.244c10.232,10.11,23.567,15.155,36.898,15.155c13.541,0,27.078-5.207,37.347-15.601
		l131.683-133.271c9.786-9.904,15.237-23.291,15.154-37.214c-0.083-13.924-5.695-27.244-15.599-37.03L778.471,142.264z"/>
</g>
<g>
</g>
<g>
</g>
<g>
</g>
<g>
</g>
<g>
</g>
<g>
</g>
<g>
</g>
<g>
</g>
<g>
</g>
<g>
</g>
<g>
</g>
<g>
</g>
<g>
</g>
<g>
</g>
<g>
</g>
</svg>
