<?xml version="1.0" standalone="no"?>
<!DOCTYPE svg PUBLIC "-//W3C//DTD SVG 20010904//EN"
 "http://www.w3.org/TR/2001/REC-SVG-20010904/DTD/svg10.dtd">
<svg version="1.0" xmlns="http://www.w3.org/2000/svg"
 width="235.000000pt" height="235.000000pt" viewBox="0 0 235.000000 235.000000"
 preserveAspectRatio="xMidYMid meet">

<g transform="translate(0.000000,235.000000) scale(0.100000,-0.100000)"
fill="#000000" stroke="none">
<path d="M1005 2339 c-227 -33 -475 -155 -649 -318 -125 -118 -273 -369 -315
-536 -74 -292 -49 -560 78 -820 123 -252 294 -423 546 -546 260 -127 528 -152
820 -78 156 39 378 164 509 288 78 73 178 215 237 336 127 260 152 528 78 820
-39 156 -164 378 -288 509 -118 125 -369 273 -536 315 -157 40 -335 51 -480
30z m308 -294 c326 -57 594 -284 695 -588 65 -195 65 -369 1 -561 -44 -133
-108 -235 -214 -341 -148 -148 -317 -230 -528 -257 -173 -22 -378 24 -542 120
-107 63 -244 200 -307 307 -96 164 -142 369 -120 542 50 398 341 707 731 777
102 19 181 19 284 1z"/>
<path d="M642 1707 l-102 -102 210 -210 c116 -115 210 -214 210 -220 0 -5 -95
-104 -210 -220 l-210 -210 103 -103 102 -102 210 210 c115 116 214 210 220
210 6 0 105 -94 220 -210 l210 -210 102 102 103 103 -210 210 c-115 116 -210
215 -210 220 0 5 95 104 210 220 l210 210 -103 103 -102 102 -210 -210 c-115
-116 -214 -210 -220 -210 -5 0 -104 95 -220 210 l-210 210 -103 -103z"/>
</g>
</svg>
