<?xml version="1.0" standalone="no"?>
<!DOCTYPE svg PUBLIC "-//W3C//DTD SVG 20010904//EN"
 "http://www.w3.org/TR/2001/REC-SVG-20010904/DTD/svg10.dtd">
<svg version="1.0" xmlns="http://www.w3.org/2000/svg"
 width="72.000000pt" height="100.000000pt" viewBox="0 0 72.000000 100.000000"
 preserveAspectRatio="xMidYMid meet">

<g transform="translate(0.000000,100.000000) scale(0.100000,-0.100000)"
fill="#000000" stroke="none">
<path d="M224 964 c-19 -19 -34 -39 -34 -44 0 -5 -37 -10 -82 -12 l-83 -3 -13
-39 c-10 -30 -12 -128 -10 -408 l3 -368 25 -25 c45 -45 147 -65 330 -65 183 0
285 20 330 65 l25 25 3 353 c2 193 0 371 -3 395 -4 30 -18 55 -47 86 -63 70
-83 76 -258 76 l-153 0 -33 -36z m358 -49 c8 -19 8 -31 0 -50 -12 -25 -12 -25
-152 -25 -140 0 -140 0 -152 25 -8 19 -8 31 0 50 12 25 12 25 152 25 140 0
140 0 152 -25z m-100 -342 c60 -59 108 -114 108 -123 0 -19 -210 -230 -230
-230 -19 0 -230 210 -230 230 0 19 210 230 230 230 8 0 63 -48 122 -107z"/>
<path d="M260 545 l-95 -95 98 -98 97 -97 97 97 98 98 -95 95 c-52 52 -97 95
-100 95 -3 0 -48 -43 -100 -95z m120 -55 c0 -83 -1 -90 -20 -90 -19 0 -20 7
-20 90 0 83 1 90 20 90 19 0 20 -7 20 -90z m-3 -121 c15 -15 5 -39 -17 -39
-22 0 -32 24 -17 39 6 6 14 11 17 11 3 0 11 -5 17 -11z"/>
<path d="M44 975 c-13 -33 4 -45 59 -45 58 0 82 15 71 44 -9 22 -122 23 -130
1z"/>
</g>
</svg>
