<svg xmlns="http://www.w3.org/2000/svg" xmlns:svgjs="http://svgjs.com/svgjs" xmlns:xlink="http://www.w3.org/1999/xlink" width="288" height="288"><svg xmlns="http://www.w3.org/2000/svg" width="288" height="288" version="1.0" viewBox="0 0 377 258"><g fill="#fff" class="color000 svgShape" transform="matrix(.1 0 0 -.1 0 258)"><path d="M1849 2551c-23-23-29-38-29-71 0-52 13-76 50-95 24-12 84-15 362-15 245 0 340 4 358 13 34 17 63 79 55 117-4 16-20 41-37 55l-30 25-350 0-350 0-29-29zM520 2283c-55-9-151-46-206-79-124-74-229-208-279-355-36-109-46-306-21-439 43-233 220-438 434-501l42-12 0-259 0-258 375 0 375 0 0 250 0 250 120 0 119 0 3-363 3-364 30-48c22-36 45-57 84-77l53-28 1059 0 1059 0 0 60 0 60-1047 2c-878 3-1051 5-1069 17-48 32-49 35-52 399l-3 342 101 0 100 0 0-280 0-280 985 0 985 0 0 65 0 65-918 0-919 0-6 362c-4 199-7 613-7 920l0 558-687-1c-379-1-699-4-713-6zm595-1073l0-705-247-3-248-2 0 710 0 710 248-2 247-3 0-705z" class="color000 svgShape"/><path d="M781 1803c-18-9-47-35-62-56-24-33-29-50-29-100 0-104 61-175 160-185 92-9 179 57 195 149 14 75-34 167-102 195-44 19-121 17-162-3zM778 1370c-58-31-82-74-86-150-2-53 1-72 20-104 29-50 95-86 155-86 148 0 234 177 142 294-50 63-157 84-231 46zm133-132c15-28 3-67-24-77-27-10-65 5-72 31-20 61 66 102 96 46zM782 939c-60-30-92-87-92-165 0-47 5-67 25-97 75-109 250-100 312 16 27 51 23 136-9 184-51 77-152 103-236 62zm122-125c41-40-7-109-59-86-14 6-27 23-31 37-13 50 53 86 90 49zM2060 2170l0-120 170 0 170 0 0 120 0 120-170 0-170 0 0-120zM2540 1585l0-707 248 4c198 4 258 8 302 22 204 65 357 219 427 431 25 73 27 94 27 245 1 191-11 247-77 375-28 54-64 103-112 151-77 77-133 114-234 153-63 24-77 25-323 29l-258 4 0-707zM2060 1780l0-120 170 0 170 0 0 120 0 120-170 0-170 0 0-120zM2060 1390l0-120 170 0 170 0 0 120 0 120-170 0-170 0 0-120zM2060 1000l0-120 170 0 170 0 0 120 0 120-170 0-170 0 0-120zM2830 703c0-68 4-93 18-109 38-47 96-57 149-24 38 23 53 67 53 158l0 62-110 0-110 0 0-87z" class="color000 svgShape"/></g></svg></svg>