<?xml version="1.0" standalone="no"?>
<!DOCTYPE svg PUBLIC "-//W3C//DTD SVG 20010904//EN"
 "http://www.w3.org/TR/2001/REC-SVG-20010904/DTD/svg10.dtd">
<svg version="1.0" xmlns="http://www.w3.org/2000/svg"
 width="296.000000pt" height="296.000000pt" viewBox="0 0 296.000000 296.000000"
 preserveAspectRatio="xMidYMid meet">

<g transform="translate(0.000000,296.000000) scale(0.100000,-0.100000)"
fill="#000000" stroke="none">
<path d="M1335 2954 c-220 -31 -346 -68 -510 -148 -147 -72 -269 -160 -390
-281 -215 -215 -355 -481 -411 -780 -26 -138 -26 -392 0 -530 39 -207 129
-422 248 -590 81 -115 238 -272 353 -353 168 -119 383 -209 590 -248 138 -26
392 -26 530 0 207 39 422 129 590 248 115 81 272 238 353 353 119 168 209 383
248 590 26 138 26 392 0 530 -39 207 -129 422 -248 590 -81 115 -238 272 -353
353 -162 115 -368 204 -565 243 -91 19 -365 33 -435 23z m375 -309 c156 -32
310 -97 441 -185 82 -55 253 -227 309 -309 140 -208 204 -419 204 -671 0 -252
-64 -463 -204 -671 -55 -82 -227 -254 -309 -309 -208 -140 -419 -204 -671
-204 -252 0 -463 64 -671 204 -82 55 -254 227 -309 309 -140 208 -204 419
-204 671 0 252 64 463 204 671 56 82 227 254 309 309 138 93 316 165 466 189
39 6 81 13 95 15 50 9 267 -3 340 -19z"/>
<path d="M1412 2520 c-70 -43 -92 -128 -49 -191 60 -90 181 -88 237 4 71 116
-71 258 -188 187z"/>
<path d="M852 2250 c-61 -37 -88 -116 -63 -182 5 -13 131 -164 280 -337 149
-173 271 -317 271 -321 0 -5 -101 -140 -225 -300 -124 -161 -225 -302 -225
-312 0 -20 42 -68 60 -68 29 0 65 40 274 313 222 289 225 292 263 294 40 1
582 240 616 271 35 31 49 72 44 125 -6 69 -55 118 -125 125 -46 4 -66 -3 -276
-98 -125 -56 -228 -100 -230 -99 -1 2 -115 135 -254 295 -184 214 -259 295
-283 303 -47 16 -90 13 -127 -9z"/>
<path d="M503 1604 c-44 -22 -73 -71 -73 -124 0 -148 194 -191 263 -59 60 114
-72 241 -190 183z"/>
<path d="M2311 1602 c-41 -22 -71 -74 -71 -122 0 -106 118 -175 207 -120 155
94 23 327 -136 242z"/>
<path d="M1412 710 c-94 -57 -94 -183 0 -240 87 -53 208 17 208 120 0 71 -69
140 -140 140 -19 0 -50 -9 -68 -20z"/>
</g>
</svg>
