<?xml version="1.0" standalone="no"?>
<!DOCTYPE svg PUBLIC "-//W3C//DTD SVG 20010904//EN"
 "http://www.w3.org/TR/2001/REC-SVG-20010904/DTD/svg10.dtd">
<svg version="1.0" xmlns="http://www.w3.org/2000/svg"
 width="405.000000pt" height="433.000000pt" viewBox="0 0 405.000000 433.000000"
 preserveAspectRatio="xMidYMid meet">

<g transform="translate(0.000000,433.000000) scale(0.100000,-0.100000)"
fill="#000000" stroke="none">
<path d="M1608 4284 c-29 -9 -54 -24 -64 -39 l-16 -25 -427 -2 -426 -3 -25
-50 c-22 -43 -25 -63 -25 -150 0 -118 8 -164 36 -199 l20 -26 425 0 424 0 0
-60 0 -60 220 0 220 0 0 60 0 60 424 0 c370 0 427 2 440 15 58 59 61 318 5
390 l-20 25 -424 0 -423 0 -16 25 c-23 35 -101 55 -210 54 -50 0 -112 -7 -138
-15z"/>
<path d="M1338 3548 c-46 -12 -93 -63 -109 -118 l-12 -40 -444 0 -443 0 0
-530 0 -530 1249 0 1250 0 28 -24 c28 -24 28 -26 31 -155 l4 -131 324 0 324 0
0 123 c0 280 -54 482 -178 664 -100 147 -279 274 -462 329 -62 19 -69 23 -40
23 114 2 313 -52 429 -115 80 -44 99 -59 180 -137 184 -180 291 -459 291 -763
l0 -124 95 0 95 0 0 73 c0 233 -35 445 -99 598 -122 293 -386 530 -711 638
-142 46 -200 53 -542 58 l-328 5 -11 41 c-14 52 -63 102 -114 116 -51 14 -754
13 -807 -1z"/>
<path d="M30 3418 l-25 -14 -3 -542 -2 -543 35 -14 c44 -19 106 -19 150 -1
l35 15 0 539 c0 486 -2 541 -16 553 -23 19 -142 23 -174 7z"/>
<path d="M580 2163 c-1 -10 -7 -31 -14 -48 l-13 -30 -22 43 c-12 23 -26 42
-32 42 -5 0 -32 -11 -59 -25 l-50 -25 25 -50 25 -49 -45 14 c-25 7 -47 10 -49
7 -11 -19 -34 -112 -28 -116 4 -2 52 -18 107 -35 96 -29 101 -32 123 -72 12
-23 20 -44 18 -46 -2 -3 -47 9 -100 25 l-95 30 -20 -60 -20 -59 25 -9 c13 -5
58 -20 99 -32 41 -13 75 -25 75 -29 0 -3 -20 -15 -45 -27 l-44 -21 -112 35
c-61 19 -112 34 -114 32 -9 -11 -35 -109 -31 -117 3 -4 27 -14 53 -21 l48 -12
-48 -24 c-26 -13 -47 -29 -47 -35 0 -5 13 -32 28 -59 l28 -49 40 24 c21 13 42
25 46 25 4 0 1 -20 -6 -44 l-14 -45 60 -20 59 -20 9 24 c5 12 21 62 35 109 25
81 29 87 67 107 22 11 42 18 45 15 3 -2 -9 -49 -26 -103 -16 -54 -27 -101 -23
-104 15 -13 106 -39 112 -32 4 5 20 52 36 105 16 54 31 98 35 98 3 0 15 -20
27 -45 l21 -44 -35 -112 c-19 -61 -34 -112 -32 -114 8 -8 111 -34 118 -30 4 3
13 26 20 52 l12 48 24 -47 c13 -27 26 -48 29 -48 2 0 29 12 59 27 l55 26 -25
50 -25 49 23 -8 c56 -19 70 -12 89 43 21 63 28 57 -107 98 -89 27 -92 28 -113
71 -11 25 -21 46 -21 48 0 2 41 -9 91 -25 50 -17 96 -28 102 -26 10 3 37 79
37 104 0 7 -37 24 -82 38 -46 14 -90 28 -98 31 -9 3 0 13 29 31 l43 25 107
-32 c58 -18 111 -35 117 -37 10 -3 51 115 42 121 -2 1 -25 9 -53 17 l-50 16
48 23 c26 13 47 28 47 33 0 5 -12 31 -27 57 l-27 48 -48 -24 c-26 -13 -48 -23
-48 -20 0 2 7 22 14 44 8 23 12 43 8 46 -11 6 -115 36 -117 33 -2 -1 -17 -50
-35 -108 -32 -105 -33 -106 -76 -128 -25 -11 -46 -21 -48 -21 -2 0 12 48 30
107 19 58 33 107 32 109 -11 9 -113 33 -119 27 -4 -5 -19 -48 -34 -98 -15 -49
-30 -94 -33 -99 -3 -5 -16 12 -29 38 l-24 46 32 103 c18 56 34 107 36 114 3 6
-18 18 -50 27 -69 20 -77 20 -77 -1z"/>
<path d="M2843 1895 c-35 -15 -63 -60 -63 -100 0 -36 28 -81 57 -94 16 -8 203
-11 586 -11 517 0 564 2 583 18 66 53 54 156 -21 188 -50 21 -1094 20 -1142
-1z"/>
<path d="M3349 1518 c-138 -194 -241 -373 -279 -488 -28 -82 -24 -191 8 -263
31 -70 111 -149 185 -183 55 -26 73 -29 157 -29 83 1 102 4 152 29 70 33 140
101 176 170 24 46 27 61 27 156 l0 105 -62 127 c-52 106 -212 359 -280 446
l-18 22 -66 -92z m137 -311 c62 -100 108 -194 118 -244 9 -42 -9 -105 -41
-143 -102 -122 -291 -77 -333 79 -18 67 13 145 133 333 27 43 53 76 58 73 4
-3 34 -47 65 -98z"/>
<path d="M1142 1433 c-17 -26 -29 -50 -27 -53 2 -3 23 -20 48 -38 l45 -32 36
44 c20 25 36 48 36 53 0 11 -84 73 -98 73 -5 0 -23 -21 -40 -47z"/>
<path d="M1340 1280 c-23 -28 -41 -52 -39 -53 3 -1 23 -20 47 -42 l42 -39 40
39 c22 21 40 44 40 50 0 6 -20 30 -44 54 l-43 42 -43 -51z"/>
<path d="M600 1187 c0 -3 -57 -209 -126 -459 -139 -504 -138 -494 -81 -588 99
-164 348 -152 437 20 40 78 40 77 -95 566 -112 407 -135 484 -135 461z"/>
<path d="M2108 1126 c-121 -75 -166 -136 -188 -257 -13 -68 -9 -134 17 -287 8
-51 13 -96 9 -99 -10 -11 -64 117 -76 182 -7 36 -15 65 -19 65 -14 0 -110
-100 -126 -131 -38 -73 -57 -147 -62 -244 -7 -123 10 -191 62 -252 153 -179
514 -111 618 115 16 35 22 66 21 122 0 85 -23 142 -90 221 -98 116 -134 302
-103 524 6 42 9 78 7 80 -2 1 -33 -16 -70 -39z m-5 -537 c14 -30 45 -76 68
-104 72 -86 86 -152 49 -224 -42 -83 -134 -131 -249 -131 -79 0 -134 27 -165
79 -22 37 -27 129 -12 205 l8 40 39 -46 c61 -72 142 -87 196 -36 41 39 46 83
23 234 -24 164 -25 204 -1 108 10 -40 29 -96 44 -125z"/>
<path d="M2116 457 c-8 -53 -41 -106 -76 -124 -31 -16 -109 -17 -147 -2 -15 5
-40 22 -55 36 l-26 25 -7 -22 c-10 -32 2 -101 25 -137 23 -38 78 -68 141 -76
35 -5 56 -1 95 17 104 49 135 123 99 242 -8 27 -21 58 -28 68 -13 18 -15 16
-21 -27z"/>
<path d="M1511 1100 l-43 -40 33 -45 c19 -24 38 -45 42 -45 12 0 97 62 97 70
0 10 -72 100 -79 100 -3 -1 -26 -19 -50 -40z"/>
<path d="M1657 898 l-47 -30 22 -36 c46 -78 38 -74 97 -41 33 19 51 35 47 44
-10 26 -56 95 -64 94 -4 0 -28 -14 -55 -31z"/>
</g>
</svg>
