<?xml version="1.0" standalone="no"?>
<!DOCTYPE svg PUBLIC "-//W3C//DTD SVG 20010904//EN"
 "http://www.w3.org/TR/2001/REC-SVG-20010904/DTD/svg10.dtd">
<svg version="1.0" xmlns="http://www.w3.org/2000/svg"
 width="347.000000pt" height="296.000000pt" viewBox="0 0 347.000000 296.000000"
 preserveAspectRatio="xMidYMid meet">

<g transform="translate(0.000000,296.000000) scale(0.100000,-0.100000)"
fill="#000000" stroke="none">
<path d="M625 2916 c-78 -119 -23 -389 108 -532 51 -57 140 -108 205 -119 l39
-6 -15 -52 c-8 -29 -16 -54 -18 -56 -2 -2 -36 10 -76 27 -103 43 -184 62 -290
68 -223 13 -429 -72 -508 -209 -27 -46 -30 -61 -28 -122 1 -53 -3 -79 -18
-105 -17 -32 -19 -62 -22 -367 -2 -210 1 -346 8 -371 14 -56 80 -127 138 -149
40 -15 77 -18 252 -18 l205 0 54 31 c30 17 68 49 85 73 l31 43 2 381 1 382 39
12 c71 22 69 23 76 -84 4 -54 13 -125 22 -158 20 -77 82 -207 151 -316 154
-245 178 -374 128 -709 -44 -299 62 -476 326 -541 85 -21 396 -19 480 4 164
44 264 132 304 267 20 67 20 201 1 335 -8 55 -15 143 -15 195 0 163 33 258
155 455 117 189 157 298 170 473 4 51 11 92 14 92 33 0 147 -41 241 -87 134
-66 180 -74 297 -48 137 30 253 97 290 168 48 94 -42 241 -192 312 -102 48
-163 60 -300 59 -138 -1 -221 -18 -330 -68 l-73 -34 -11 43 c-6 23 -13 49 -16
57 -5 12 4 17 32 23 192 36 345 251 347 490 2 128 -25 185 -85 185 -51 0 -85
-26 -123 -93 -46 -82 -110 -141 -201 -183 -149 -69 -281 -79 -440 -36 -183 51
-438 51 -620 1 -163 -46 -301 -33 -453 41 -95 45 -147 94 -192 179 -37 68 -68
91 -124 91 -26 0 -40 -6 -51 -24z m1365 -506 c207 -59 301 -164 287 -320 -11
-123 -97 -255 -267 -410 -50 -47 -98 -96 -105 -110 -19 -39 -39 -335 -31 -479
12 -243 41 -316 172 -435 71 -65 86 -85 99 -128 50 -170 -39 -288 -255 -334
-130 -28 -303 -9 -407 45 -49 25 -102 78 -119 118 -20 47 -17 140 6 190 11 25
58 81 113 135 87 85 97 99 115 158 33 106 45 303 33 498 -17 245 -4 215 -147
354 -136 133 -203 222 -234 310 -24 69 -26 164 -4 216 41 98 164 174 339 208
102 20 308 12 405 -16z m-1525 -487 c20 -26 53 -81 73 -122 l37 -75 3 -292 c3
-258 1 -294 -13 -308 -14 -13 -42 -16 -174 -16 -109 0 -161 4 -169 12 -9 9
-12 91 -12 308 l0 295 44 75 c58 100 121 170 151 170 17 0 35 -14 60 -47z"/>
<path d="M1686 630 c-61 -24 -135 -73 -159 -106 -10 -14 -21 -40 -24 -59 -4
-28 -1 -38 21 -58 41 -38 107 -52 241 -52 134 1 198 20 230 69 35 54 -19 130
-134 186 -82 41 -115 45 -175 20z"/>
<path d="M340 1810 c-12 -12 -20 -33 -20 -55 0 -72 86 -104 129 -49 28 35 26
69 -4 99 -30 31 -77 33 -105 5z"/>
</g>
</svg>
