<svg xmlns="http://www.w3.org/2000/svg" xmlns:svgjs="http://svgjs.com/svgjs" xmlns:xlink="http://www.w3.org/1999/xlink" width="288" height="288"><svg xmlns="http://www.w3.org/2000/svg" width="288" height="288" version="1.0" viewBox="0 0 184 348"><g fill="#fff" class="color000 svgShape" transform="matrix(.1 0 0 -.1 0 348)"><path d="M770 3275l0-205-89 0-89 0-297-162-296-163 5-35c6-39 29-74 70-104 27-21 35-21 846-21 811 0 819 0 846 21 41 30 64 65 70 104l5 35-300 163-299 162-86 0-86 0 0 205 0 205-150 0-150 0 0-205zM249 2503c-17-21-45-57-61-82-65-103-12-215 102-215 114 0 167 112 102 215-34 52-91 119-102 119-4 0-23-17-41-37zM669 2503c-17-21-45-57-61-82-65-103-12-215 102-215 114 0 167 112 102 215-34 52-91 119-102 119-4 0-23-17-41-37zM1089 2503c-17-21-45-57-61-82-65-103-12-215 102-215 114 0 167 112 102 215-34 52-91 119-102 119-4 0-23-17-41-37zM1509 2503c-17-21-45-57-61-82-65-103-12-215 102-215 114 0 167 112 102 215-34 52-91 119-102 119-4 0-23-17-41-37zM250 2108c-71-85-90-120-90-171 0-40 5-53 34-85 33-35 38-37 96-37 58 0 63 2 96 37 45 50 48 113 6 174-29 43-96 124-103 124-2 0-20-19-39-42zM670 2108c-71-85-90-120-90-171 0-40 5-53 34-85 33-35 38-37 96-37 58 0 63 2 96 37 45 50 48 113 6 174-29 43-96 124-103 124-2 0-20-19-39-42zM1090 2108c-71-85-90-120-90-171 0-40 5-53 34-85 33-35 38-37 96-37 58 0 63 2 96 37 45 50 48 113 6 174-29 43-96 124-103 124-2 0-20-19-39-42zM1510 2108c-71-85-90-120-90-171 0-40 5-53 34-85 33-35 38-37 96-37 58 0 63 2 96 37 45 50 48 113 6 174-29 43-96 124-103 124-2 0-20-19-39-42zM495 1544c-16-8-41-25-53-37-51-48-52-53-52-407 0-310 1-333 20-369 22-43 61-78 97-87l23-6 0-319 0-319 390 0 390 0 0 319 0 319 23 6c36 9 75 44 97 87 19 36 20 59 20 366 0 368 0 369-73 427l-39 31-406 3c-355 2-411 0-437-14z" class="color000 svgShape"/></g></svg></svg>