<?xml version="1.0" standalone="no"?>
<!DOCTYPE svg PUBLIC "-//W3C//DTD SVG 20010904//EN"
 "http://www.w3.org/TR/2001/REC-SVG-20010904/DTD/svg10.dtd">
<svg version="1.0" xmlns="http://www.w3.org/2000/svg"
 width="147.000000pt" height="328.000000pt" viewBox="0 0 147.000000 328.000000"
 preserveAspectRatio="xMidYMid meet">

<g transform="translate(0.000000,328.000000) scale(0.100000,-0.100000)"
fill="#000000" stroke="none">
<path d="M380 3158 l0 -123 -115 115 -115 115 -75 -75 -75 -75 190 -190 190
-190 0 -210 0 -210 -190 -190 -190 -190 75 -75 75 -75 120 120 c115 114 120
118 120 89 0 -46 55 -146 104 -192 80 -74 116 -87 241 -87 125 0 161 13 241
87 49 46 104 146 104 192 0 29 5 25 120 -89 l120 -120 75 75 75 75 -190 190
-190 190 0 210 0 210 190 190 190 190 -75 75 -75 75 -115 -115 -115 -115 0
123 0 122 -355 0 -355 0 0 -122z m500 -213 l0 -125 -66 -70 c-37 -38 -72 -70
-79 -70 -6 0 -42 31 -78 69 l-67 69 0 126 0 126 145 0 145 0 0 -125z m-66
-644 l68 -68 -4 -111 c-2 -93 -6 -115 -24 -138 -69 -93 -169 -93 -238 0 -18
23 -22 45 -24 138 l-4 111 68 68 c38 38 73 69 79 69 6 0 41 -31 79 -69z"/>
<path d="M289 1527 c-51 -34 -77 -79 -84 -150 -4 -34 -5 -186 -3 -337 2 -233
6 -280 20 -305 20 -37 53 -68 96 -89 l32 -17 0 -314 0 -315 385 0 385 0 0 315
0 314 33 17 c42 21 75 52 95 89 14 25 18 72 20 305 2 151 1 303 -3 337 -7 71
-33 116 -84 150 -34 23 -34 23 -446 23 -412 0 -412 0 -446 -23z"/>
</g>
</svg>
