<?xml version="1.0" encoding="UTF-8" standalone="no"?>
<svg
   version="1.0"
   width="147.000000pt"
   height="328.000000pt"
   viewBox="0 0 147.000000 328.000000"
   preserveAspectRatio="xMidYMid meet"
   id="svg19647"
   sodipodi:docname="do-not-milk.svg"
   inkscape:version="1.2.1 (9c6d41e410, 2022-07-14)"
   xmlns:inkscape="http://www.inkscape.org/namespaces/inkscape"
   xmlns:sodipodi="http://sodipodi.sourceforge.net/DTD/sodipodi-0.dtd"
   xmlns="http://www.w3.org/2000/svg"
   xmlns:svg="http://www.w3.org/2000/svg">
  <defs
     id="defs19651" />
  <sodipodi:namedview
     id="namedview19649"
     pagecolor="#ffffff"
     bordercolor="#000000"
     borderopacity="0.25"
     inkscape:showpageshadow="2"
     inkscape:pageopacity="0.0"
     inkscape:pagecheckerboard="0"
     inkscape:deskcolor="#d1d1d1"
     inkscape:document-units="pt"
     showgrid="false"
     inkscape:zoom="1.3533118"
     inkscape:cx="33.990688"
     inkscape:cy="217.24483"
     inkscape:window-width="1920"
     inkscape:window-height="1017"
     inkscape:window-x="-8"
     inkscape:window-y="-8"
     inkscape:window-maximized="1"
     inkscape:current-layer="g19645" />
  <g
     transform="translate(0.000000,328.000000) scale(0.100000,-0.100000)"
     fill="#000000"
     stroke="none"
     id="g19645">
    <path
       d="M380 3158 l0 -123 -115 115 -115 115 -75 -75 -75 -75 190 -190 190 -190 0 -210 0 -210 -190 -190 -190 -190 75 -75 75 -75 120 120 c115 114 120 118 120 89 0 -46 55 -146 104 -192 80 -74 116 -87 241 -87 125 0 161 13 241 87 49 46 104 146 104 192 0 29 5 25 120 -89 l120 -120 75 75 75 75 -190 190 -190 190 0 210 0 210 190 190 190 190 -75 75 -75 75 -115 -115 -115 -115 0 123 0 122 -355 0 -355 0 0 -122z m500 -213 l0 -125 -66 -70 c-37 -38 -72 -70 -79 -70 -6 0 -42 31 -78 69 l-67 69 0 126 0 126 145 0 145 0 0 -125z m-66 -644 l68 -68 -4 -111 c-2 -93 -6 -115 -24 -138 -69 -93 -169 -93 -238 0 -18 23 -22 45 -24 138 l-4 111 68 68 c38 38 73 69 79 69 6 0 41 -31 79 -69z"
       id="path19641" />
    <path
       d="m 330,1543 c -37,-9 -87,-55 -106,-97 -17,-37 -19,-70 -19,-356 0,-285 2,-319 19,-356 20,-44 60,-81 98,-90 l 23,-6 V 319 0 h 390 390 v 319 319 l 23,6 c 38,9 78,46 98,90 17,37 19,71 19,356 0,356 -3,371 -76,426 l -37,29 -401,2 c -221,0 -410,-1 -421,-4 z"
       id="path21261" />
  </g>
</svg>
