<svg xmlns="http://www.w3.org/2000/svg" xmlns:svgjs="http://svgjs.com/svgjs" xmlns:xlink="http://www.w3.org/1999/xlink" width="288" height="288"><svg xmlns="http://www.w3.org/2000/svg" width="288" height="288" version="1.0" viewBox="0 0 316 286"><g fill="#fff" class="color000 svgShape" transform="matrix(.1 0 0 -.1 0 286)"><path d="M2 1988 l3 -873 22 -40 c28 -53 78 -99 133 -124 42 -19 65 -21 397-21 l353 0 -35 45 c-55 73 -59 155 -9 215 l26 30 -301 0 -301 0 0 644 0 645
37 -15 c25 -11 60 -15 108 -12 60 3 79 8 115 33 84 59 95 65 121 65 14 0 41
-11 60 -25 126 -92 231 -98 335 -18 77 58 129 61 183 9 39 -37 93 -56 161 -56
69 0 108 14 164 59 67 54 103 54 176 -2 105 -80 215 -76 324 12 52 42 107 43
156 2 102 -83 218 -89 314 -16 89 68 116 69 193 10 25 -19 63 -40 84 -45 l39
-11 0 -229 0 -230 -130 0 c-126 0 -130 -1 -130 -21 0 -17 -4 -20 -22 -15 -230
67 -478 37 -670 -81 -70 -42 -178 -129 -178 -143 0 -6 42 -10 98 -10 76 0 106
-4 134 -19 36 -18 38 -18 66 -1 16 10 63 31 103 46 66 25 88 28 194 28 151 1
223 -20 371 -111 58 -34 107 -63 110 -63 2 0 4 41 4 90 l0 90 70 0 70 0 0
-347 c0 -389 -5 -425 -66 -550 -148 -299 -525 -427 -819 -279 l-64 32 -101
-101 -100 -100 0 -138 0 -137 -45 0 -45 0 0 91 0 91 -31 -26 c-39 -33 -68 -40
-130 -33 l-49 6 0 -169 0 -170 250 0 250 0 0 220 c0 121 2 220 5 220 3 0 44
-12 92 -27 77 -23 106 -26 228 -27 116 0 153 3 217 21 264 76 465 255 559 497
65 168 65 174 52 1349 l-6 607 -144 0 -143 0 0 -116 0 -116 -22 16 c-83 59
-123 76 -186 76 -72 0 -120 -17 -168 -60 -61 -53 -105 -52 -179 5 -103 78
-215 72 -324 -15 -45 -36 -97 -42 -134 -16 -92 67 -100 70 -167 74 -82 5 -127
-8 -180 -53 -22 -19 -50 -37 -61 -40 -32 -10 -84 3 -105 27 -11 11 -41 31 -69
44 -90 42 -186 26 -273 -46 -50 -41 -108 -42 -154 -1 -54 47 -97 64 -162 64
-69 0 -123 -19 -172 -62 -60 -53 -107 -51 -181 8 -33 26 -33 26 -33 119 l0 92
-145 0 -145 0 2 -872z" class="color000 svgShape"/><path d="M2179 1668 c-36 -13 -77 -31 -92 -41 l-27 -17 1 -173 c1 -163 1 -170
15 -131 37 103 141 174 253 174 157 -1 271 -115 271 -270 -1 -103 -48 -184
-139 -238 -39 -23 -58 -27 -130 -28 l-83 -2 -74 -73 c-41 -40 -74 -76 -74 -80
0 -3 26 -16 58 -29 86 -34 220 -39 309 -12 129 40 228 121 291 240 42 81 55
148 50 258 -4 80 -10 103 -41 169 -49 103 -129 183 -233 232 -71 34 -85 37
-183 40 -91 3 -115 0 -172 -19z" class="color000 svgShape"/><path d="M1195 1669 c-44 -25 -45 -33 -45 -276 l0 -233 -93 0 c-81 0 -96 -3
-112 -20 -30 -33 -23 -74 20 -122 120 -136 570 -589 590 -594 13 -3 32 -3 43
0 11 4 158 148 326 321 324 333 329 339 290 390 -13 17 -30 21 -132 25 l-117
5 -3 236 c-2 225 -3 237 -23 255 -20 18 -44 19 -373 21 -243 2 -357 -1 -371
-8z" class="color000 svgShape"/></g></svg></svg>