<svg xmlns="http://www.w3.org/2000/svg" xmlns:svgjs="http://svgjs.com/svgjs" xmlns:xlink="http://www.w3.org/1999/xlink" width="288" height="288"><svg xmlns="http://www.w3.org/2000/svg" width="288" height="288" version="1.0" viewBox="0 0 315 238"><g fill="#fff" class="color000 svgShape" transform="matrix(.1 0 0 -.1 0 238)"><path d="M2 1508l3-873 22-41c29-54 101-117 151-132 27-8 156-12 417-12l377 0-65 70c-71 75-85 108-73 180l6 40-275 0-275 0 0 105c0 58 2 105 4 105 2 0 20-7 39-15 77-32 166-16 247 45 72 54 107 54 178 1 81-61 163-72 255-34l37 16 0 79c0 43-3 78-8 78-4 0-24-14-45-31-64-53-108-50-187 12-92 71-205 63-316-22-56-42-98-42-158 3l-45 33-1 633 0 632-145 0-145 0 2-872zM2860 1730c0-468-3-650-11-650-6 0-29 14-50 31-88 69-201 75-286 14-79-56-109-68-148-55-18 6-39 18-47 27-24 30-110 63-163 63-93 0-95-2-95-86l0-74 40 21c50 26 86 19 140-26 53-44 99-58 175-53 49 3 72 10 105 33 85 59 96 65 126 65 20 0 50-14 86-39 30-22 70-43 89-48l34-9 3-102 3-102-276 0-275 0 6-40c12-72-2-105-73-180l-65-70 377 0c261 0 390 4 417 12 50 15 122 78 151 132l22 41 3 873 2 872-145 0-145 0 0-650z" class="color000 svgShape"/><path d="M1170 1230 c-19 -19 -20 -33 -20 -255 l0 -235 -90 0 c-83 0 -93 -2-115 -25 -30 -29 -31 -50 -6 -90 10 -16 151 -164 312 -328 256 -259 298 -298
324 -298 26 0 69 40 323 298 161 164 302 312 313 328 25 40 24 61 -6 90 -23
24 -31 25 -135 25 l-110 0 0 235 c0 222 -1 236 -20 255 -19 19 -33 20 -385 20
-352 0 -366 -1 -385 -20z" class="color000 svgShape"/></g></svg></svg>