<svg xmlns="http://www.w3.org/2000/svg" xmlns:svgjs="http://svgjs.com/svgjs" xmlns:xlink="http://www.w3.org/1999/xlink" width="288" height="288"><svg xmlns="http://www.w3.org/2000/svg" width="288" height="288" version="1.0" viewBox="0 0 249 257"><g fill="#2a569a" class="color000 svgShape" transform="matrix(.1 0 0 -.1 0 257)"><path d="M137 2560c-46-14-93-56-116-103-17-36-21-62-21-150l0-107 1246 0 1246 0-3 118c-4 109-6 122-31 159-15 22-44 51-65 64l-38 24-1095 2c-602 1-1108-2-1123-7zM10 1983c0-91 5-126 18-154 10-21 187-200 445-448l427-412 0-451 0-450 34-34 34-34 151 0c95 0 160 4 176 12 15 6 87 83 161 170l134 159 0 63 0 63 63 7c293 32 532 251 583 538 26 143 2 298-67 429l-30 55 136 134c74 74 142 138 151 143 37 21 54 87 54 210l0 117-1235 0-1235 0 0-117zm1939-794c21-121-21-243-114-328-58-52-141-90-204-94l-36-2-2 105-1 105 160 154c181 173 177 172 197 60z" class="color000 svgShape"/></g></svg></svg>