<?xml version="1.0" standalone="no"?>
<!DOCTYPE svg PUBLIC "-//W3C//DTD SVG 20010904//EN"
 "http://www.w3.org/TR/2001/REC-SVG-20010904/DTD/svg10.dtd">
<svg version="1.0" xmlns="http://www.w3.org/2000/svg"
 width="249.000000pt" height="257.000000pt" viewBox="0 0 249.000000 257.000000"
 preserveAspectRatio="xMidYMid meet">

<g transform="translate(0.000000,257.000000) scale(0.100000,-0.100000)"
fill="#000000" stroke="none">
<path d="M137 2560 c-46 -14 -93 -56 -116 -103 -17 -36 -21 -62 -21 -150 l0
-107 1246 0 1246 0 -3 118 c-4 109 -6 122 -31 159 -15 22 -44 51 -65 64 l-38
24 -1095 2 c-602 1 -1108 -2 -1123 -7z"/>
<path d="M10 1983 c0 -91 5 -126 18 -154 10 -21 187 -200 445 -448 l427 -412
0 -451 0 -450 34 -34 34 -34 151 0 c95 0 160 4 176 12 15 6 87 83 161 170
l134 159 0 63 0 63 63 7 c293 32 532 251 583 538 26 143 2 298 -67 429 l-30
55 136 134 c74 74 142 138 151 143 37 21 54 87 54 210 l0 117 -1235 0 -1235 0
0 -117z m1939 -794 c21 -121 -21 -243 -114 -328 -58 -52 -141 -90 -204 -94
l-36 -2 -2 105 -1 105 160 154 c181 173 177 172 197 60z"/>
</g>
</svg>
