<svg xmlns="http://www.w3.org/2000/svg" xmlns:svgjs="http://svgjs.com/svgjs" xmlns:xlink="http://www.w3.org/1999/xlink" width="288" height="288"><svg xmlns="http://www.w3.org/2000/svg" width="288" height="288" version="1.0" viewBox="0 0 405 433"><g fill="#fff" class="color000 svgShape" transform="matrix(.1 0 0 -.1 0 433)"><path d="M1608 4284c-29-9-54-24-64-39l-16-25-427-2-426-3-25-50c-22-43-25-63-25-150 0-118 8-164 36-199l20-26 425 0 424 0 0-60 0-60 220 0 220 0 0 60 0 60 424 0c370 0 427 2 440 15 58 59 61 318 5 390l-20 25-424 0-423 0-16 25c-23 35-101 55-210 54-50 0-112-7-138-15zM1338 3548c-46-12-93-63-109-118l-12-40-444 0-443 0 0-530 0-530 1249 0 1250 0 28-24c28-24 28-26 31-155l4-131 324 0 324 0 0 123c0 336-80 571-259 761-100 105-238 189-381 232-62 19-69 23-40 23 119 2 321-54 444-123 80-45 212-167 266-246 124-182 190-408 190-646l0-124 95 0 95 0 0 73c0 233-35 445-99 598-122 293-386 530-711 638-142 46-200 53-542 58l-328 5-11 41c-14 52-63 102-114 116-51 14-754 13-807-1zM30 3418l-25-14-3-542-2-543 35-14c44-19 106-19 150-1l35 15 0 539c0 486-2 541-16 553-23 19-142 23-174 7zM409 2149l-57-31 24-41c13-23 24-45 24-49 0-4-19-1-41 7-23 8-43 15-44 15-7 0-43-120-37-124 4-2 53-18 109-35 98-30 104-33 123-71 31-61 38-60-102-16l-77 24-16-53c-8-29-15-57-15-63 0-5 43-22 95-38 52-15 95-31 95-34 0-3-20-16-44-27l-44-22-109 34c-59 19-111 35-114 35-10 0-39-114-31-120 4-4 27-12 52-19l45-13-48-24c-26-14-47-26-47-29 0-2 12-29 27-59l26-55 50 26c44 22 49 23 43 6-21-54-19-72 10-84 16-6 43-13 60-16l32-5 32 104c30 97 34 105 70 126 22 12 43 22 48 22 5 0-5-46-23-102-18-57-30-106-26-110 3-3 30-13 59-22l53-15 9 24c5 13 19 57 31 97 12 40 25 77 29 81 4 4 17-12 30-35l22-43-35-112c-19-62-31-115-26-118 13-9 111-37 113-33 1 2 9 26 17 53l15 50 23-45c13-25 25-47 27-49 2-2 28 9 58 25l54 28-25 50c-18 36-21 47-10 43 9-3 31-9 50-12l34-7 16 58c9 32 16 59 14 60-1 1-49 17-107 35-99 32-106 36-127 74-13 22-23 43-23 46 0 4 43-7 96-23 53-17 99-26 104-22 8 10 42 106 37 109-1 1-40 14-87 29-47 15-92 30-100 33-10 3 2 13 33 29l48 25 99-31c55-17 105-33 113-36 9-3 19 12 30 49 9 30 17 58 17 64 0 6-20 16-45 22-25 6-45 13-45 16 0 2 18 14 40 26 22 13 40 27 40 31 0 5-11 31-25 58l-25 50-50-25-49-25 14 46c10 34 10 46 2 49-76 28-102 34-108 28-4-5-21-53-38-108-30-100-31-101-76-123-25-12-45-19-45-15 0 3 14 51 31 105 17 55 29 101 27 103-14 11-111 35-117 29-4-5-21-53-37-106-16-54-31-98-35-98-3 0-15 20-27 45l-21 44 34 108c19 59 35 111 35 115 0 11-108 41-119 33-6-3-13-21-17-40-9-51-20-51-46-1l-23 45-56-30zM2843 1895c-35-15-63-60-63-100 0-36 28-81 57-94 16-8 203-11 586-11 517 0 564 2 583 18 66 53 54 156-21 188-50 21-1094 20-1142-1zM3349 1518c-138-194-241-373-279-488-28-82-24-191 8-263 31-70 111-149 185-183 55-26 73-29 157-29 83 1 102 4 152 29 70 33 140 101 176 170 24 46 27 61 27 156l0 105-62 127c-52 106-212 359-280 446l-18 22-66-92zm137-311c62-100 108-194 118-244 9-42-9-105-41-143-102-122-291-77-333 79-18 67 13 145 133 333 27 43 53 76 58 73 4-3 34-47 65-98zM1103 1431l-32-49 37-28c20-15 42-31 48-36 8-6 26 9 53 41l41 49-49 36c-27 20-53 36-57 36-5 0-23-22-41-49zM1303 1281l-42-48 45-44 44-43 45 45 45 45-48 47-47 47-42-49zM2053 1114c-135-87-173-161-173-333 0-53 7-136 16-185 8-48 14-96 12-105-6-27-56 85-74 165-9 41-19 74-23 74-17 0-112-110-134-155-40-81-51-133-51-255-1-111 0-117 30-170 54-96 152-150 270-150 264 0 453 205 390 423-9 30-32 75-51 99-93 115-120 179-138 320-8 67-8 115 2 204 7 64 11 117 9 119-2 1-40-21-85-51zm17-533c17-34 46-78 64-99 46-51 66-94 66-141 0-55-15-90-58-134-74-76-232-103-317-52-63 36-78 76-73 191 4 98 12 122 30 89 21-38 79-84 114-91 77-14 144 44 144 126 0 19-9 89-20 155-25 147-24 184 0 89 10-40 33-100 50-133z" class="color000 svgShape"/><path d="M2080 486c0-53-23-107-57-136-29-26-42-30-89-30-66 0-113 18-142 55l-22 28 0-64c0-110 44-161 151-178 81-13 156 22 200 93 28 44 22 142-14 211-24 46-26 48-27 21zM1478 1104c-26-22-47-41-47-44-1-3 16-25 37-49l39-45 46 34c26 18 47 38 47 44 0 6-18 31-38 55l-38 43-46-38zM1619 897l-46-32 32-52 31-51 56 30 56 30-32 54c-17 29-35 53-41 53-5 0-31-14-56-32zM496 515c-59-21-108-65-138-125-75-146 7-326 164-360 52-11 60-9 507 114 250 69 456 128 458 130 5 5-5 8-503 145-221 61-412 111-425 111-13-1-41-7-63-15z" class="color000 svgShape"/></g></svg></svg>