<svg xmlns="http://www.w3.org/2000/svg" xmlns:svgjs="http://svgjs.com/svgjs" xmlns:xlink="http://www.w3.org/1999/xlink" width="288" height="288"><svg xmlns="http://www.w3.org/2000/svg" width="288" height="288" version="1.0" viewBox="0 0 265 268"><g fill="#90eb9c" class="color000 svgShape" transform="matrix(.1 0 0 -.1 0 268)"><path d="M1120 2665 c-281 -45 -525 -170 -730 -375 -268 -268 -401 -605 -387-980 8 -197 43 -346 123 -519 34 -73 135 -230 193 -301 l29 -35 -47 -225 -48
-225 1090 -3 c600 -1 1092 0 1095 3 3 3 -37 94 -88 204 l-92 199 68 81 c173
203 283 447 314 701 6 51 10 362 10 787 l0 703 -430 0 -430 0 0 -41 c0 -35 -3
-40 -17 -34 -173 66 -452 91 -653 60z m455 -309 c115 -30 232 -84 395 -184
l115 -71 3 145 3 144 135 0 135 0 -3 -592 -4 -593 -26 -97 c-96 -352 -350
-624 -683 -731 -125 -40 -191 -51 -320 -51 -129 0 -195 11 -320 51 -333 107
-589 382 -682 731 -23 84 -26 117 -26 247 0 130 3 163 26 250 29 109 85 233
144 323 50 75 162 193 243 254 122 93 311 172 476 198 98 15 276 4 389 -24z" class="color000 svgShape"/><path d="M1227 2110 c-176 -22 -338 -107 -463 -244 -150 -163 -218 -374 -193
-595 20 -180 93 -328 224 -457 95 -93 216 -162 341 -194 105 -27 273 -27 378
0 243 62 451 255 530 491 160 478 -171 970 -674 1002 -41 3 -105 1 -143 -3z
m266 -319 c74 -29 157 -92 206 -159 105 -139 120 -337 39 -496 -27 -53 -122
-152 -176 -183 -141 -83 -333 -83 -474 0 -54 31 -149 130 -176 182 -55 109
-67 244 -32 356 46 149 156 260 308 310 79 26 224 21 305 -10z" class="color000 svgShape"/><path d="M1224 1660 c-86 -27 -181 -126 -205 -213 -17 -63 -8 -174 19 -229 30
-60 90 -120 150 -150 68 -33 206 -33 274 0 60 30 120 90 150 150 19 39 23 63
23 142 0 109 -17 152 -85 220 -63 63 -112 83 -210 86 -47 2 -99 -1 -116 -6z" class="color000 svgShape"/></g></svg></svg>