<?xml version="1.0" standalone="no"?>
<!DOCTYPE svg PUBLIC "-//W3C//DTD SVG 20010904//EN"
 "http://www.w3.org/TR/2001/REC-SVG-20010904/DTD/svg10.dtd">
<svg version="1.0" xmlns="http://www.w3.org/2000/svg"
 width="288.000000pt" height="357.000000pt" viewBox="0 0 288.000000 357.000000"
 preserveAspectRatio="xMidYMid meet">

<g transform="translate(0.000000,357.000000) scale(0.100000,-0.100000)"
fill="#000000" stroke="none">
<path d="M726 3443 c-170 -340 -318 -679 -360 -827 l-26 -88 0 -570 0 -570
-152 -159 c-84 -88 -158 -170 -165 -182 -17 -30 -16 -62 2 -97 20 -38 43 -50
97 -50 41 0 47 4 131 91 l87 92 0 -359 c0 -209 5 -378 11 -404 23 -102 104
-211 194 -264 97 -58 69 -56 1065 -56 996 0 968 -2 1065 56 47 27 123 104 153
154 54 92 52 55 52 1230 0 1199 5 1108 -66 1298 -53 142 -131 315 -265 590
l-117 242 -821 0 -821 0 -64 -127z m1656 -250 c114 -237 225 -492 259 -594
l29 -87 0 -916 0 -916 -1060 0 -1060 0 1 313 0 312 498 520 498 519 65 1 c89
1 150 38 190 114 80 153 -20 321 -192 321 -134 0 -226 -98 -218 -231 l3 -57
-420 -439 -420 -440 -3 441 c-2 297 1 456 8 486 23 91 132 345 288 673 l71
147 691 0 691 0 81 -167z"/>
</g>
</svg>
