<?xml version="1.0" standalone="no"?>
<!DOCTYPE svg PUBLIC "-//W3C//DTD SVG 20010904//EN"
 "http://www.w3.org/TR/2001/REC-SVG-20010904/DTD/svg10.dtd">
<svg version="1.0" xmlns="http://www.w3.org/2000/svg"
 width="254.000000pt" height="357.000000pt" viewBox="0 0 254.000000 357.000000"
 preserveAspectRatio="xMidYMid meet">

<g transform="translate(0.000000,357.000000) scale(0.100000,-0.100000)"
fill="#000000" stroke="none">
<path d="M331 3328 c-134 -275 -212 -448 -265 -590 -71 -190 -66 -99 -66
-1298 0 -1175 -2 -1138 52 -1230 30 -50 106 -127 153 -154 97 -58 69 -56 1065
-56 996 0 968 -2 1065 56 47 27 123 104 153 154 54 92 52 55 52 1230 0 1199 5
1108 -66 1298 -53 142 -131 315 -265 590 l-117 242 -822 0 -822 0 -117 -242z
m409 18 c0 -8 -45 -195 -100 -416 l-100 -401 0 -484 0 -485 -165 0 -165 0 0
476 0 476 29 87 c34 102 145 357 259 594 l81 167 80 0 c63 0 81 -3 81 -14z
m1302 -153 c114 -237 225 -492 259 -594 l29 -87 0 -476 0 -476 -649 0 -648 0
-6 30 c-11 53 -55 70 -180 70 l-107 0 2 163 3 162 117 5 c104 4 119 7 141 28
32 30 40 74 22 118 -21 50 -62 64 -186 64 l-101 0 4 153 c1 83 7 158 11 165 6
9 47 12 148 12 158 0 180 7 199 66 9 25 9 43 0 68 -18 56 -44 66 -175 66 -63
0 -115 3 -115 6 0 5 49 203 71 287 l10 37 118 0 c65 0 132 5 149 11 40 14 62
49 62 99 0 33 -6 48 -29 71 -29 29 -31 29 -141 29 -101 0 -111 2 -106 18 3 9
8 29 12 45 l6 27 500 0 499 0 81 -167z m-1024 -1910 l2 -163 -140 0 -140 0 0
158 c0 87 3 162 7 166 4 3 66 5 137 4 l131 -3 3 -162z m0 -535 l-3 -163 -135
0 -135 0 -3 163 -2 162 140 0 140 0 -2 -162z m0 -480 l-3 -103 -135 0 -135 0
-3 103 -3 102 141 0 141 0 -3 -102z"/>
</g>
</svg>
