<?xml version="1.0" standalone="no"?>
<!DOCTYPE svg PUBLIC "-//W3C//DTD SVG 20010904//EN"
 "http://www.w3.org/TR/2001/REC-SVG-20010904/DTD/svg10.dtd">
<svg version="1.0" xmlns="http://www.w3.org/2000/svg"
 width="344.000000pt" height="268.000000pt" viewBox="0 0 344.000000 268.000000"
 preserveAspectRatio="xMidYMid meet">

<g transform="translate(0.000000,268.000000) scale(0.100000,-0.100000)"
fill="#000000" stroke="none">
<path d="M480 2658 c-65 -44 -86 -120 -52 -188 29 -58 67 -76 180 -83 326 -22
614 -189 793 -460 74 -113 137 -274 151 -387 l3 -25 -151 -5 c-130 -4 -155 -8
-172 -24 -27 -24 -37 -69 -21 -98 18 -35 429 -640 451 -665 11 -12 31 -24 45
-28 58 -14 73 3 313 355 252 371 258 383 205 435 -23 24 -28 25 -179 25 -85 0
-157 3 -159 8 -8 12 39 184 72 262 91 213 292 417 509 517 100 46 243 82 363
90 110 7 147 22 179 75 39 64 16 151 -50 196 -33 23 -41 24 -145 19 -186 -9
-343 -50 -509 -133 -230 -116 -435 -308 -548 -514 -18 -33 -35 -60 -38 -60 -3
0 -17 24 -32 53 -44 84 -151 218 -238 300 -231 217 -515 339 -825 354 -104 5
-112 4 -145 -19z"/>
<path d="M1130 885 c-741 -63 -1129 -210 -1130 -428 -1 -244 461 -397 1350
-447 691 -39 1495 40 1830 180 174 72 260 161 260 267 -2 221 -392 366 -1148
428 -274 23 -240 32 -322 -87 -102 -150 -118 -168 -164 -189 -52 -23 -100 -24
-151 0 -49 22 -80 56 -169 189 l-70 102 -65 -1 c-36 -1 -136 -7 -221 -14z
m316 -140 c44 -18 40 -36 -12 -53 -43 -15 -150 -10 -185 8 -73 40 110 81 197
45z m723 2 c71 -25 42 -54 -62 -63 -66 -6 -137 11 -145 34 -11 34 134 54 207
29z m-1089 -90 c19 -7 35 -19 35 -27 0 -8 -16 -20 -35 -27 -72 -24 -205 -7
-205 27 0 20 58 39 120 39 28 0 66 -5 85 -12z m1470 0 c19 -7 35 -19 35 -27 0
-8 -16 -20 -35 -27 -72 -24 -205 -7 -205 27 0 20 58 39 120 39 28 0 66 -5 85
-12z m-1126 -86 c92 -22 65 -61 -46 -69 -79 -5 -154 16 -146 40 10 29 119 45
192 29z m740 -4 c53 -16 56 -34 9 -53 -76 -32 -245 -2 -206 37 27 27 132 35
197 16z m-1750 -71 c138 -83 480 -135 1038 -156 186 -8 350 -8 535 0 560 21
901 73 1039 156 39 23 64 32 78 28 40 -12 116 -57 116 -69 0 -37 -224 -116
-453 -160 -329 -62 -555 -80 -1047 -80 -492 0 -718 18 -1047 80 -231 44 -453
123 -453 161 0 11 111 74 130 74 4 0 33 -15 64 -34z m1389 3 c75 -21 18 -68
-83 -68 -97 0 -159 47 -88 68 45 13 125 13 171 0z"/>
</g>
</svg>
