<?xml version="1.0" standalone="no"?>
<!DOCTYPE svg PUBLIC "-//W3C//DTD SVG 20010904//EN"
 "http://www.w3.org/TR/2001/REC-SVG-20010904/DTD/svg10.dtd">
<svg version="1.0" xmlns="http://www.w3.org/2000/svg"
 width="199.000000pt" height="254.000000pt" viewBox="0 0 199.000000 254.000000"
 preserveAspectRatio="xMidYMid meet">

<g transform="translate(0.000000,254.000000) scale(0.100000,-0.100000)"
fill="#000000" stroke="none">
<path d="M180 2052 l0 -488 -43 -11 c-57 -15 -95 -47 -118 -97 -17 -37 -19
-71 -19 -360 0 -306 1 -322 21 -364 16 -32 34 -51 70 -70 l49 -27 0 -317 0
-318 390 0 390 0 0 319 0 319 24 6 c32 8 83 51 100 85 7 14 17 48 20 75 l8 48
46 -7 c87 -13 233 -7 313 14 229 59 424 232 508 451 141 365 -23 779 -374 946
-109 52 -184 68 -320 68 -129 1 -205 -14 -302 -59 l-53 -24 0 150 0 149 -355
0 -355 0 0 -488z m500 148 l0 -130 -36 -47 c-78 -102 -131 -246 -141 -380 l-6
-83 -53 0 -54 0 0 385 0 385 145 0 145 0 0 -130z m685 -95 c207 -53 366 -219
406 -423 63 -327 -193 -635 -526 -635 -287 0 -516 219 -532 508 -9 160 42 291
158 406 133 133 322 188 494 144z"/>
<path d="M1310 1780 c-61 -121 -114 -220 -119 -220 -5 0 -34 40 -65 90 -32 49
-61 92 -66 95 -5 3 -48 -19 -94 -49 l-86 -55 122 -188 c66 -103 128 -193 137
-200 31 -24 78 -26 112 -7 27 16 59 73 195 339 90 176 164 322 164 325 0 7
-167 90 -180 90 -5 0 -59 -99 -120 -220z"/>
</g>
</svg>
