<svg xmlns="http://www.w3.org/2000/svg" xmlns:svgjs="http://svgjs.com/svgjs" xmlns:xlink="http://www.w3.org/1999/xlink" width="288" height="288"><svg xmlns="http://www.w3.org/2000/svg" width="288" height="288" version="1.0" viewBox="0 0 405 433"><g fill="#fff" class="color000 svgShape" transform="matrix(.1 0 0 -.1 0 433)"><path d="M1608 4284c-29-9-54-24-64-39l-16-25-427-2-426-3-25-50c-22-43-25-63-25-150 0-118 8-164 36-199l20-26 425 0 424 0 0-60 0-60 220 0 220 0 0 60 0 60 423 0c232 0 427 4 434 8 62 39 70 322 12 396l-20 26-424 0-423 0-16 25c-23 35-101 55-210 54-50 0-112-7-138-15zM1345 3551c-16-4-40-14-53-22-22-14-72-101-72-126 0-10-86-13-445-13l-445 0 0-530 0-530 1249 0 1250 0 28-24c28-24 28-26 31-150l4-126 325 0 326 0-6 173c-11 318-83 518-251 694-105 112-230 190-381 239-62 21-66 23-34 24 101 1 288-49 405-108 292-147 484-506 484-903l0-119 96 0 97 0-7 163c-4 89-14 200-22 247-81 466-423 813-909 922-77 18-137 21-417 25l-328 5-11 41c-14 52-63 102-114 116-45 12-750 14-800 2zM22 3414l-22-15 0-539 0-539 22-13c13-7 52-12 88-12 36 0 75 5 88 12l22 13 0 539 0 539-22 15c-15 11-45 16-88 16-43 0-73-5-88-16zM378 2154c-26-13-49-28-53-33-3-6 4-29 16-52l21-42-29 6c-15 3-35 8-45 12-13 5-19-5-32-50-9-30-14-59-12-64 3-4 49-21 102-37 93-28 98-31 125-74 15-24 26-46 24-48-3-3-148 38-188 54-9 3-19-14-32-56-10-33-16-61-14-63 2-2 49-17 103-34l100-31-50-25-49-25-105 34c-58 19-110 32-116 30-5-2-16-23-23-46-7-23-15-48-17-55-4-8 9-17 33-25 21-6 45-14 53-17 10-3-1-13-33-29-26-13-47-27-47-29 0-14 56-105 65-105 6 0 25 9 44 21 40 24 47 20 32-22-6-18-11-35-11-40 0-8 85-39 107-39 7 0 26 42 45 105 33 104 33 105 80 130 27 15 48 24 48 22 0-2-15-52-34-110l-33-106 59-20c68-23 56-36 103 108l30 94 24-51 24-51-32-99c-17-55-31-106-31-114 0-9 18-20 43-27 23-7 49-14 58-17 12-3 19 7 29 41 7 25 15 45 19 45 3 0 16-18 29-40l23-40 52 26c29 15 53 28 55 29 2 2-6 22-18 45-12 23-19 44-17 46 2 3 16 0 31-6 45-17 52-12 69 43 9 30 17 56 17 60 0 3-47 20-105 38-103 32-106 33-130 77-14 25-24 46-22 48 1 2 44-10 95-26 51-17 96-30 100-30 5 0 14 19 21 43 7 23 14 50 17 59 4 14-14 23-98 49l-103 32 50 24 51 25 111-35 112-35 15 46c24 70 22 77-31 93l-48 15 48 28 48 28-27 47c-15 25-29 49-31 53-2 5-22-1-45-13-22-11-42-18-45-15-3 3 0 19 6 37 6 18 11 35 11 39 0 7-90 34-113 35-5 0-24-47-43-105-33-105-34-106-79-128-25-12-45-18-45-14 0 5 14 48 30 97 17 49 30 94 30 101 0 12-108 50-117 41-2-3-19-52-37-109l-32-103-26 49-25 49 34 105c18 58 33 109 33 113 0 8-85 39-106 39-7 0-18-17-24-37-18-56-25-58-45-13-10 23-21 43-24 44-3 2-27-7-53-20zM2834 1891c-63-38-70-128-13-175l31-26 558 0c381 0 567 3 583 11 72 33 75 146 5 189-32 19-51 20-583 20-520 0-552-1-581-19zM3358 1533c-139-194-256-398-293-512-26-78-17-188 20-264 35-71 107-140 183-175 48-23 71-27 147-27 82 0 97 3 157 33 84 41 158 120 188 200 18 47 21 72 18 144-4 81-8 94-60 200-30 63-79 152-108 198-47 77-188 280-194 280-2 0-28-35-58-77zm117-307c132-203 158-304 99-388-96-139-300-103-344 60-13 52 2 110 58 212 43 80 120 200 127 200 3 0 30-38 60-84zM1067 1437l-35-54 50-37c28-20 51-36 52-34 1 2 18 24 38 49l37 46-22 20c-12 11-36 29-53 41l-31 22-36-53zM1262 1281l-41-48 45-44 44-43 45 44c25 24 45 47 45 51 0 3-22 24-48 47l-48 40-42-47zM2013 1115c-92-60-136-113-158-188-19-66-19-196 1-313 9-51 14-101 11-111-6-28-54 79-73 165l-16 74-55-54c-97-94-137-202-136-368 0-121 12-157 74-225 127-138 403-118 547 40 113 123 110 283-7 424-21 25-48 65-60 88-49 98-69 273-48 426 7 53 10 97 7 97-3-1-42-25-87-55zm-29-403c22-88 60-163 117-234 86-108 87-185 0-268-122-119-339-103-382 28-11 35-8 197 5 209 3 3 24-15 46-40 44-49 94-71 139-60 88 21 106 84 77 263-31 187-32 219-2 102z" class="color000 svgShape"/><path d="M2040 475c0-84-52-145-129-153-62-6-113 11-152 51l-31 31 4-72c4-85 23-116 88-150 96-49 218-12 266 80 20 39 17 119-7 182-25 68-39 79-39 31zM1436 1101l-45-39 36-46c20-25 38-46 40-46 3 0 27 16 54 36l49 36-37 48c-21 27-41 49-45 50-4 0-27-18-52-39zM1583 899c-24-17-43-32-43-34 0-13 56-95 65-95 5 0 31 13 57 28l47 28-30 52c-17 28-36 52-42 52-7-1-31-14-54-31zM766 686c-224-128-417-244-427-257-30-38-52-126-46-180 11-89 73-172 156-206 81-34 216-10 267 48 15 17 344 592 471 822 2 4 1 7-4 6-4 0-192-105-417-233z" class="color000 svgShape"/></g></svg></svg>