<?xml version="1.0" standalone="no"?>
<!DOCTYPE svg PUBLIC "-//W3C//DTD SVG 20010904//EN"
 "http://www.w3.org/TR/2001/REC-SVG-20010904/DTD/svg10.dtd">
<svg version="1.0" xmlns="http://www.w3.org/2000/svg"
 width="393.000000pt" height="367.000000pt" viewBox="0 0 393.000000 367.000000"
 preserveAspectRatio="xMidYMid meet">

<g transform="translate(0.000000,367.000000) scale(0.100000,-0.100000)"
fill="#000000" stroke="none">
<path d="M113 3646 c-36 -17 -60 -38 -80 -67 l-28 -43 -3 -1201 -2 -1201 23
-45 c13 -24 43 -57 66 -74 l43 -30 334 -3 335 -3 29 30 c29 28 30 34 30 115
l0 86 134 0 134 0 3 -86 c4 -82 5 -87 37 -115 l32 -29 246 0 246 0 -42 53
c-23 28 -61 76 -84 105 l-41 52 -92 0 -93 0 0 81 c0 149 0 149 -350 149 l-272
0 -29 -29 c-28 -28 -29 -34 -29 -115 l0 -86 -225 0 -225 0 0 1135 0 1135 1555
0 1555 0 0 -689 0 -688 83 -6 c45 -3 92 -8 105 -12 l22 -7 0 725 0 725 -28 53
c-22 43 -38 59 -81 81 l-53 28 -1602 0 -1601 0 -52 -24z"/>
<path d="M600 2430 l0 -580 440 0 440 0 0 580 0 580 -440 0 -440 0 0 -580z"/>
<path d="M2000 2890 l0 -100 365 0 365 0 0 100 0 100 -365 0 -365 0 0 -100z"/>
<path d="M2000 2435 l0 -105 159 0 158 0 6 56 c4 38 16 73 36 105 l30 49 -194
0 -195 0 0 -105z"/>
<path d="M2512 2499 c-28 -14 -51 -36 -67 -64 l-25 -42 0 -573 0 -574 -139
137 c-169 167 -210 190 -343 195 -103 5 -158 -11 -247 -68 -64 -42 -97 -84
-107 -138 -14 -75 -7 -86 339 -518 l332 -413 18 -87 c41 -197 138 -300 322
-339 101 -21 879 -22 989 0 138 26 235 95 291 204 53 106 55 125 55 794 0 596
-1 619 -20 657 -35 69 -69 85 -196 88 l-111 4 -11 59 c-13 71 -39 111 -87 133
-29 14 -59 16 -178 13 -78 -3 -146 -5 -152 -5 -5 0 -64 3 -130 6 l-120 7 -5
222 c-6 252 -8 258 -90 301 -38 19 -60 22 -160 22 -97 0 -122 -3 -158 -21z
m246 -676 l2 -522 26 -20 c36 -28 85 -27 112 2 21 22 22 33 24 272 l3 250 82
3 82 3 3 -252 c3 -250 3 -251 27 -270 30 -24 82 -24 112 0 24 19 24 21 29 268
l5 248 80 0 80 0 3 -245 c2 -234 3 -245 24 -267 14 -15 33 -23 54 -23 80 0 94
29 94 195 l0 125 80 0 80 0 0 -562 c0 -340 -4 -588 -10 -627 -18 -106 -63
-171 -145 -208 -36 -16 -82 -18 -485 -21 -387 -3 -453 -1 -506 13 -114 31
-164 97 -184 243 l-11 82 -335 416 -334 417 32 24 c18 13 57 31 86 39 47 14
57 14 109 -1 54 -16 69 -28 248 -206 l191 -189 87 0 87 0 0 670 0 671 83 -3
82 -3 3 -522z"/>
<path d="M2000 1975 l0 -105 160 0 160 0 0 105 0 105 -160 0 -160 0 0 -105z"/>
</g>
</svg>
