<?xml version="1.0" encoding="UTF-8" standalone="no"?>
<!-- Created with Inkscape (http://www.inkscape.org/) -->

<svg
   width="60"
   height="60"
   viewBox="0 0 15.875 15.875"
   version="1.1"
   id="svg27652"
   inkscape:version="1.2.1 (9c6d41e410, 2022-07-14)"
   sodipodi:docname="pulsator-on.svg"
   xmlns:inkscape="http://www.inkscape.org/namespaces/inkscape"
   xmlns:sodipodi="http://sodipodi.sourceforge.net/DTD/sodipodi-0.dtd"
   xmlns="http://www.w3.org/2000/svg"
   xmlns:svg="http://www.w3.org/2000/svg">
  <sodipodi:namedview
     id="namedview27654"
     pagecolor="#ffffff"
     bordercolor="#000000"
     borderopacity="0.25"
     inkscape:showpageshadow="2"
     inkscape:pageopacity="0.0"
     inkscape:pagecheckerboard="0"
     inkscape:deskcolor="#d1d1d1"
     inkscape:document-units="px"
     showgrid="false"
     inkscape:zoom="5.9651515"
     inkscape:cx="-42.413005"
     inkscape:cy="25.14605"
     inkscape:window-width="1920"
     inkscape:window-height="1017"
     inkscape:window-x="-8"
     inkscape:window-y="-8"
     inkscape:window-maximized="1"
     inkscape:current-layer="svg27652" />
  <defs
     id="defs27649" />
  <g
     inkscape:label="Слой 1"
     inkscape:groupmode="layer"
     id="layer1" />
  <g
     transform="matrix(0.01480407,0,0,-0.01480407,1.7197906,14.969433)"
     fill="#000000"
     stroke="none"
     id="g3803">
    <path
       d="M 0,920 C 0,893 3,890 30,890 H 60 V 465 C 60,53 61,39 80,20 95,5 113,0 150,0 c 37,0 55,5 70,20 19,19 20,33 20,445 v 425 h 30 30 V 773 656 l 30,29 c 29,28 30,31 30,127 0,120 -11,138 -90,138 -37,0 -55,-5 -70,-20 -19,-19 -20,-33 -20,-445 V 60 h -30 -30 v 425 c 0,412 -1,426 -20,445 C 87,943 67,950 40,950 2,950 0,948 0,920 Z"
       id="path3795" />
    <path
       d="M 501,749 C 371,725 279,611 279,475 279,223 575,104 758,283 c 49,48 82,126 82,192 0,169 -168,305 -339,274 z m 144,-84 c 67,-27 125,-115 125,-190 0,-22 -9,-58 -19,-80 -95,-208 -402,-147 -402,80 0,154 149,250 296,190 z"
       id="path3797" />
    <path
       d="m 480,475 c 0,-69 3,-125 6,-125 16,0 204,124 197,130 -16,14 -190,120 -197,120 -3,0 -6,-56 -6,-125 z"
       id="path3799" />
    <path
       d="M 300,177 V 60 h 30 30 v 88 c 0,85 -1,89 -30,117 l -30,29 z"
       id="path3801" />
  </g>
</svg>
