<?xml version="1.0" encoding="UTF-8" standalone="no"?>
<!-- Created with Inkscape (http://www.inkscape.org/) -->

<svg
   width="60"
   height="60"
   viewBox="0 0 15.875 15.875"
   version="1.1"
   id="svg27652"
   inkscape:version="1.2.1 (9c6d41e410, 2022-07-14)"
   sodipodi:docname="pulsator-off.svg"
   xmlns:inkscape="http://www.inkscape.org/namespaces/inkscape"
   xmlns:sodipodi="http://sodipodi.sourceforge.net/DTD/sodipodi-0.dtd"
   xmlns="http://www.w3.org/2000/svg"
   xmlns:svg="http://www.w3.org/2000/svg">
  <sodipodi:namedview
     id="namedview27654"
     pagecolor="#ffffff"
     bordercolor="#000000"
     borderopacity="0.25"
     inkscape:showpageshadow="2"
     inkscape:pageopacity="0.0"
     inkscape:pagecheckerboard="0"
     inkscape:deskcolor="#d1d1d1"
     inkscape:document-units="px"
     showgrid="false"
     inkscape:zoom="5.9651515"
     inkscape:cx="-42.413005"
     inkscape:cy="25.14605"
     inkscape:window-width="1920"
     inkscape:window-height="1017"
     inkscape:window-x="-8"
     inkscape:window-y="-8"
     inkscape:window-maximized="1"
     inkscape:current-layer="svg27652" />
  <defs
     id="defs27649" />
  <g
     inkscape:label="Слой 1"
     inkscape:groupmode="layer"
     id="layer1" />
  <g
     transform="matrix(0.01482774,0,0,-0.01482774,1.7197908,14.980677)"
     fill="#000000"
     stroke="none"
     id="g3840">
    <path
       d="M 0,920 C 0,893 3,890 30,890 H 60 V 465 C 60,53 61,39 80,20 95,5 113,0 150,0 c 37,0 55,5 70,20 19,19 20,33 20,445 v 425 h 30 30 V 773 656 l 30,29 c 29,28 30,31 30,127 0,120 -11,138 -90,138 -37,0 -55,-5 -70,-20 -19,-19 -20,-33 -20,-445 V 60 h -30 -30 v 425 c 0,412 -1,426 -20,445 C 87,943 67,950 40,950 2,950 0,948 0,920 Z"
       id="path3832" />
    <path
       d="M 493,745 C 363,715 279,609 279,474 c 0,-135 82,-238 216,-269 96,-23 185,4 263,78 110,107 107,283 -6,389 -74,69 -165,95 -259,73 z m 143,-76 c 40,-12 92,-64 115,-114 35,-75 16,-166 -47,-229 -78,-77 -209,-78 -292,-2 -101,91 -78,270 43,334 58,30 107,33 181,11 z"
       id="path3834" />
    <path
       d="m 470,475 v -85 h 90 90 v 85 85 h -90 -90 z"
       id="path3836" />
    <path
       d="M 300,177 V 60 h 30 30 v 88 c 0,85 -1,89 -30,117 l -30,29 z"
       id="path3838" />
  </g>
</svg>
