<?xml version="1.0" standalone="no"?>
<!DOCTYPE svg PUBLIC "-//W3C//DTD SVG 20010904//EN"
 "http://www.w3.org/TR/2001/REC-SVG-20010904/DTD/svg10.dtd">
<svg version="1.0" xmlns="http://www.w3.org/2000/svg"
 width="106.000000pt" height="327.000000pt" viewBox="0 0 106.000000 327.000000"
 preserveAspectRatio="xMidYMid meet">

<g transform="translate(0.000000,327.000000) scale(0.100000,-0.100000)"
fill="#000000" stroke="none">
<path d="M182 2613 c3 -652 3 -658 25 -705 30 -66 102 -139 170 -173 52 -26
68 -29 153 -29 85 0 101 3 153 29 68 34 140 107 170 173 22 47 22 53 25 705
l3 657 -351 0 -351 0 3 -657z m488 -79 c0 -511 -1 -528 -20 -559 -52 -85 -188
-85 -240 0 -19 31 -20 48 -20 559 l0 526 140 0 140 0 0 -526z"/>
<path d="M125 1543 c-37 -9 -87 -55 -106 -97 -17 -37 -19 -70 -19 -356 0 -285
2 -319 19 -356 20 -44 60 -81 98 -90 l23 -6 0 -319 0 -319 390 0 390 0 0 319
0 319 23 6 c38 9 78 46 98 90 17 37 19 71 19 356 0 356 -3 371 -76 426 l-37
29 -401 2 c-221 0 -410 -1 -421 -4z"/>
</g>
</svg>
