<?xml version="1.0" standalone="no"?>
<!DOCTYPE svg PUBLIC "-//W3C//DTD SVG 20010904//EN"
 "http://www.w3.org/TR/2001/REC-SVG-20010904/DTD/svg10.dtd">
<svg version="1.0" xmlns="http://www.w3.org/2000/svg"
 width="556.000000pt" height="501.000000pt" viewBox="0 0 556.000000 501.000000"
 preserveAspectRatio="xMidYMid meet">

<g transform="translate(0.000000,501.000000) scale(0.100000,-0.100000)"
fill="#000000" stroke="none">
<path d="M1060 4999 c-43 -18 -90 -59 -110 -99 -19 -37 -20 -59 -20 -339 l0
-300 -398 -3 -399 -3 -41 -29 c-26 -18 -51 -47 -67 -79 l-25 -51 0 -1958 c0
-1748 2 -1963 16 -1996 20 -49 60 -90 109 -113 39 -18 131 -19 2658 -19 2873
0 2654 -5 2720 58 61 58 57 -98 57 2068 l0 1986 -22 39 c-12 21 -39 51 -61 66
l-40 28 -2049 3 -2048 2 0 165 0 165 1838 2 1837 3 45 25 c145 82 140 292 -10
368 l-44 22 -1961 -1 c-1263 0 -1969 -4 -1985 -10z m-135 -959 l0 -55 -53 -3
c-50 -3 -54 -5 -68 -37 -8 -19 -14 -50 -14 -69 0 -66 1 -66 -139 -66 -157 0
-201 -16 -231 -82 -19 -41 -20 -70 -20 -618 0 -360 4 -589 10 -612 6 -20 26
-50 46 -67 l35 -31 144 0 144 0 6 -35 c3 -19 8 -52 11 -72 10 -65 19 -73 79
-73 l55 0 0 -260 0 -260 70 0 c60 0 70 2 70 18 0 74 109 85 125 12 7 -30 7
-30 76 -30 l69 0 0 260 0 260 54 0 c50 0 54 2 66 30 7 17 15 56 19 88 l6 57
135 3 c74 1 141 4 148 7 8 3 -7 28 -42 72 -103 127 -183 314 -205 476 -38 274
44 557 221 768 l57 67 -31 11 c-17 6 -89 11 -159 11 l-129 0 -1 48 c0 26 -6
63 -13 82 -12 33 -16 35 -67 40 l-54 5 0 55 0 55 2018 0 c1783 0 2019 -2 2027
-15 15 -24 13 -3873 -2 -3888 -17 -17 -5189 -17 -5206 0 -9 9 -12 454 -12
1943 0 1061 4 1935 8 1941 4 6 14 14 22 17 8 3 175 5 370 4 l355 -2 0 -55z
m255 -917 c16 -20 20 -36 16 -57 -9 -44 -25 -57 -65 -54 -42 4 -68 39 -58 80
16 61 71 77 107 31z m-14 -241 c37 -24 43 -87 13 -126 -40 -51 -98 -27 -106
46 -4 37 -2 49 16 67 21 21 56 27 77 13z m21 -303 c20 -38 15 -77 -12 -104
-13 -14 -31 -25 -40 -25 -47 0 -81 82 -54 131 23 44 84 42 106 -2z m-10 -265
c21 -22 25 -32 20 -66 -7 -49 -26 -70 -63 -70 -61 0 -87 90 -39 137 31 32 50
31 82 -1z m2 -280 c23 -30 27 -64 10 -97 -23 -43 -66 -50 -100 -16 -18 18 -20
30 -16 67 8 73 66 97 106 46z"/>
<path d="M2330 3975 c-347 -70 -621 -335 -707 -682 -25 -104 -23 -324 6 -428
90 -334 358 -590 691 -661 88 -19 282 -18 378 2 170 34 311 113 447 249 182
182 265 382 265 636 0 426 -299 794 -715 880 -105 22 -268 24 -365 4z m345
-230 c188 -48 353 -183 440 -360 50 -101 69 -183 69 -300 0 -384 -337 -699
-718 -672 -298 21 -543 226 -617 515 -25 99 -25 225 1 326 62 242 273 447 510
495 30 6 64 13 75 15 35 8 178 -3 240 -19z"/>
<path d="M2364 3490 c-5 -5 -66 -11 -134 -12 l-125 -3 -3 -39 c-2 -22 -1 -50
2 -63 6 -23 9 -23 131 -23 104 0 125 -2 125 -15 0 -12 14 -15 65 -15 51 0 65
3 65 15 0 13 21 15 125 15 l125 0 11 28 c7 17 8 40 2 62 l-8 35 -125 3 c-68 1
-129 7 -134 12 -6 6 -33 10 -61 10 -28 0 -55 -4 -61 -10z"/>
<path d="M2284 3265 c-23 -23 -32 -25 -114 -25 l-90 0 0 -155 0 -155 313 -2
312 -3 3 -42 3 -43 156 0 156 0 -5 76 c-9 140 -93 255 -218 300 -25 8 -83 18
-130 21 -72 5 -88 9 -107 29 -21 23 -29 24 -138 24 -110 0 -117 -1 -141 -25z"/>
<path d="M1990 3085 l0 -165 30 0 30 0 0 165 0 165 -30 0 -30 0 0 -165z"/>
<path d="M2689 2794 c-9 -11 -10 -20 -2 -32 9 -14 33 -17 164 -20 172 -3 199
0 199 26 0 38 -19 42 -186 42 -135 0 -164 -3 -175 -16z"/>
<path d="M3612 2484 c-21 -14 -22 -22 -22 -144 0 -127 0 -130 25 -146 l25 -16
0 -305 c0 -316 3 -338 44 -372 12 -10 16 -32 16 -86 l0 -73 -172 45 c-184 48
-217 50 -267 14 -59 -42 -61 -59 -61 -518 0 -403 1 -418 21 -460 14 -30 33
-50 60 -63 37 -19 61 -20 587 -20 l549 0 33 22 c63 43 75 69 78 176 l4 97 76
23 c215 66 379 230 437 437 11 39 18 117 22 225 4 138 8 168 23 185 38 44 40
58 40 368 l0 305 25 16 c25 16 25 19 25 146 0 166 6 160 -180 160 -186 0 -180
6 -180 -160 0 -127 0 -130 25 -146 l25 -16 0 -316 0 -315 40 -38 40 -38 0
-133 c0 -149 -13 -217 -60 -313 -51 -106 -157 -197 -283 -244 -32 -11 -62 -21
-67 -21 -6 0 -10 38 -10 88 0 84 1 90 28 115 16 15 39 48 52 73 40 81 50 140
50 302 0 128 2 154 15 159 9 3 25 23 35 44 19 35 20 60 20 336 l0 298 25 24
c24 22 25 29 25 140 0 164 4 161 -185 161 -143 0 -144 0 -164 -26 -18 -23 -21
-41 -21 -135 0 -100 2 -110 25 -137 l25 -30 0 -303 c0 -286 1 -306 20 -337 11
-18 31 -38 45 -44 25 -11 25 -13 25 -123 0 -112 -9 -185 -29 -238 l-11 -29
-34 30 c-19 17 -49 33 -68 37 -18 3 -65 13 -105 22 -84 19 -83 16 -83 183 0
104 1 107 25 118 14 6 34 26 45 44 19 31 20 51 20 338 l0 305 25 24 c24 22 25
28 25 140 0 163 2 161 -187 161 -141 0 -142 0 -162 -26 -18 -23 -21 -41 -21
-135 0 -100 2 -110 25 -137 l25 -30 0 -294 c0 -274 1 -296 20 -333 11 -22 27
-43 35 -48 12 -6 15 -32 15 -132 0 -69 -3 -125 -7 -125 -5 0 -68 16 -142 35
-74 19 -136 35 -138 35 -2 0 -3 37 -3 83 0 82 0 82 35 110 20 16 38 42 44 65
7 21 11 157 11 327 0 279 1 291 20 303 18 11 20 23 20 142 0 166 6 160 -180
160 -106 0 -140 -3 -158 -16z m-147 -1529 c14 -13 25 -31 25 -38 0 -25 -34
-57 -67 -63 -26 -5 -37 -1 -57 19 -14 15 -26 33 -26 42 0 25 46 65 75 65 14 0
37 -11 50 -25z m260 0 c32 -31 31 -50 -1 -82 -22 -22 -32 -25 -67 -20 -46 6
-67 27 -67 68 0 58 89 80 135 34z m259 4 c33 -26 33 -53 1 -84 -37 -38 -117
-27 -131 17 -22 71 67 117 130 67z m244 5 c25 -17 29 -60 10 -87 -22 -28 -69
-32 -101 -7 -70 55 17 146 91 94z"/>
<path d="M814 1575 c-35 -53 -37 -235 -3 -307 l12 -28 308 0 309 0 17 27 c15
22 18 49 18 153 0 104 -3 131 -18 153 l-17 27 -305 0 -305 0 -16 -25z m363
-11 c20 -20 24 -31 19 -57 -8 -41 -27 -59 -62 -59 -33 0 -64 33 -64 69 0 27
41 73 65 73 9 0 27 -12 42 -26z m-4 -186 c28 -22 32 -69 7 -101 -36 -46 -95
-31 -106 28 -12 66 48 110 99 73z"/>
<path d="M2784 1249 c-17 -5 -37 -15 -43 -23 -8 -9 -11 -101 -9 -317 l3 -304
30 -15 c40 -20 246 -21 293 -1 l32 13 0 313 0 313 -40 16 c-45 18 -211 21
-266 5z m84 -285 c25 -17 29 -60 10 -87 -22 -28 -69 -32 -101 -7 -70 56 17
146 91 94z m165 5 c12 -7 25 -17 29 -23 28 -41 -23 -102 -76 -92 -42 9 -56 24
-56 62 0 53 52 79 103 53z"/>
<path d="M1002 1119 c-103 -51 -140 -173 -84 -280 22 -43 38 -59 81 -81 l53
-28 779 0 779 0 0 205 0 205 -782 0 c-778 0 -783 0 -826 -21z m193 -164 c14
-13 25 -31 25 -38 0 -25 -34 -57 -67 -63 -26 -5 -37 -1 -57 19 -14 15 -26 33
-26 42 0 25 46 65 75 65 14 0 37 -11 50 -25z m258 14 c45 -24 50 -67 11 -98
-42 -33 -116 -21 -130 21 -20 64 53 111 119 77z m287 -7 c26 -21 30 -66 8 -89
-9 -8 -34 -17 -56 -20 -34 -5 -44 -1 -66 20 -32 32 -33 51 -1 82 29 30 83 33
115 7z m275 -7 c32 -31 31 -50 -1 -82 -21 -21 -32 -25 -65 -20 -52 7 -69 22
-69 63 0 63 87 88 135 39z m275 5 c33 -33 26 -76 -17 -99 -50 -26 -123 6 -123
54 0 55 99 86 140 45z m255 -5 c32 -31 31 -50 -1 -82 -20 -20 -31 -24 -57 -19
-61 12 -82 62 -43 101 32 32 70 32 101 0z"/>
</g>
</svg>
