<?xml version="1.0" standalone="no"?>
<!DOCTYPE svg PUBLIC "-//W3C//DTD SVG 20010904//EN"
 "http://www.w3.org/TR/2001/REC-SVG-20010904/DTD/svg10.dtd">
<svg version="1.0" xmlns="http://www.w3.org/2000/svg"
 width="512.000000pt" height="512.000000pt" viewBox="0 0 512.000000 512.000000"
 preserveAspectRatio="xMidYMid meet">

<g transform="translate(0.000000,512.000000) scale(0.100000,-0.100000)"
fill="#000000" stroke="none">
<path d="M572 4623 c-18 -9 -45 -32 -60 -51 l-27 -35 -3 -1965 c-2 -2188 -8
-2003 66 -2060 l35 -27 1104 -3 1103 -2 0 80 0 80 -1075 0 -1075 0 0 1920 0
1920 315 0 315 0 0 -494 0 -495 24 -28 24 -28 882 0 882 0 24 28 24 28 0 495
0 494 349 0 348 0 164 -157 c90 -87 237 -234 326 -327 l163 -169 0 -1006 0
-1006 80 -80 80 -80 0 1107 0 1106 -47 63 c-60 83 -579 602 -662 662 l-63 47
-1632 0 c-1490 0 -1634 -2 -1664 -17z m1479 -169 l24 -26 0 -398 0 -398 -24
-26 -24 -26 -268 0 -267 0 -26 31 -26 31 0 388 0 388 26 31 26 31 267 0 268 0
24 -26z"/>
<path d="M1085 2975 l-25 -24 0 -951 0 -951 25 -24 24 -25 841 0 840 0 0 140
0 140 -382 0 -383 0 747 747 748 748 270 -270 270 -270 0 358 0 358 -25 24
-24 25 -1451 0 -1451 0 -24 -25z"/>
<path d="M2985 1990 l-530 -530 258 0 257 0 0 -640 0 -640 550 0 550 0 0 640
0 640 257 0 258 0 -530 530 c-291 292 -532 530 -535 530 -3 0 -244 -238 -535
-530z"/>
<path d="M4480 960 l0 -320 -115 0 -115 0 0 -81 0 -80 143 3 c138 3 145 4 179
30 67 51 68 57 68 432 l0 336 -80 0 -80 0 0 -320z"/>
</g>
</svg>
