<?xml version="1.0" standalone="no"?>
<!DOCTYPE svg PUBLIC "-//W3C//DTD SVG 20010904//EN"
 "http://www.w3.org/TR/2001/REC-SVG-20010904/DTD/svg10.dtd">
<svg version="1.0" xmlns="http://www.w3.org/2000/svg"
 width="326.000000pt" height="321.000000pt" viewBox="0 0 326.000000 321.000000"
 preserveAspectRatio="xMidYMid meet">

<g transform="translate(0.000000,321.000000) scale(0.100000,-0.100000)"
fill="#000000" stroke="none">
<path d="M135 3198 c-49 -17 -92 -55 -114 -101 l-21 -43 0 -1277 c0 -1131 2
-1282 15 -1315 20 -47 50 -79 97 -103 36 -18 70 -19 813 -19 l775 0 0 135 0
135 -550 0 -550 0 0 580 0 580 718 0 718 0 91 103 c108 123 140 142 238 142
106 0 126 -14 320 -232 l170 -190 3 511 c1 281 0 521 -3 534 -6 24 -501 538
-539 559 -28 16 -2135 17 -2181 1z m1795 -593 l0 -335 -495 0 -495 0 0 335 0
335 495 0 495 0 0 -335z"/>
<path d="M1100 2605 l0 -165 165 0 165 0 0 165 0 165 -165 0 -165 0 0 -165z"/>
<path d="M2296 1858 c-13 -13 -203 -227 -420 -476 -392 -449 -396 -454 -396
-497 0 -32 7 -52 24 -72 24 -28 25 -28 178 -33 l153 -5 -4 -335 c-3 -285 -1
-341 12 -372 29 -69 20 -68 549 -68 454 0 474 1 506 20 17 11 33 21 34 22 1 2
5 167 8 368 l5 365 127 3 127 3 25 30 c33 39 35 95 4 135 -111 145 -790 919
-814 928 -36 14 -93 6 -118 -16z"/>
</g>
</svg>
