<?xml version="1.0" standalone="no"?>
<!DOCTYPE svg PUBLIC "-//W3C//DTD SVG 20010904//EN"
 "http://www.w3.org/TR/2001/REC-SVG-20010904/DTD/svg10.dtd">
<svg version="1.0" xmlns="http://www.w3.org/2000/svg"
 width="50.000000pt" height="50.000000pt" viewBox="0 0 50.000000 50.000000"
 preserveAspectRatio="xMidYMid meet">

<g transform="translate(0.000000,50.000000) scale(0.100000,-0.100000)"
fill="#000000" stroke="none">
<path d="M37 463 c-4 -3 -7 -87 -7 -185 0 -152 2 -180 15 -185 9 -3 19 -2 23
2 4 4 1 10 -5 12 -10 4 -13 48 -13 174 l0 169 134 0 c79 0 137 -4 141 -10 3
-5 13 -10 22 -10 14 0 14 3 -2 20 -16 18 -31 20 -160 20 -78 0 -145 -3 -148
-7z"/>
<path d="M94 397 c-2 -7 -3 -91 -2 -187 l3 -175 185 0 185 0 3 144 3 145 -43
43 -42 43 -143 0 c-108 0 -145 -3 -149 -13z m78 -74 l3 -68 105 0 105 0 3 59
3 59 30 -29 29 -28 0 -133 0 -133 -30 0 -29 0 -3 73 -3 72 -105 0 -105 0 -3
-72 -3 -73 -29 0 -30 0 0 170 0 170 30 0 c29 0 29 0 32 -67z m198 7 l0 -60
-90 0 -90 0 0 60 0 60 90 0 90 0 0 -60z m0 -215 l0 -65 -90 0 -90 0 0 65 0 65
90 0 90 0 0 -65z"/>
<path d="M130 80 c0 -5 5 -10 10 -10 6 0 10 5 10 10 0 6 -4 10 -10 10 -5 0
-10 -4 -10 -10z"/>
<path d="M410 80 c0 -5 5 -10 10 -10 6 0 10 5 10 10 0 6 -4 10 -10 10 -5 0
-10 -4 -10 -10z"/>
<path d="M310 330 c0 -29 4 -40 15 -40 11 0 15 11 15 40 0 29 -4 40 -15 40
-11 0 -15 -11 -15 -40z"/>
</g>
</svg>
