<?xml version="1.0" standalone="no"?>
<!DOCTYPE svg PUBLIC "-//W3C//DTD SVG 20010904//EN"
 "http://www.w3.org/TR/2001/REC-SVG-20010904/DTD/svg10.dtd">
<svg version="1.0" xmlns="http://www.w3.org/2000/svg"
 width="50.000000pt" height="50.000000pt" viewBox="0 0 50.000000 50.000000"
 preserveAspectRatio="xMidYMid meet">

<g transform="translate(0.000000,50.000000) scale(0.100000,-0.100000)"
fill="#000000" stroke="none">
<path d="M44 447 c-2 -7 -3 -100 -2 -207 l3 -195 205 0 205 0 3 164 3 165 -43
43 -42 43 -163 0 c-124 0 -165 -3 -169 -13z m78 -79 l3 -73 120 0 120 0 3 69
3 69 34 -33 35 -34 0 -153 0 -153 -30 0 -29 0 -3 88 -3 87 -125 0 -125 0 -3
-87 -3 -88 -29 0 -30 0 0 190 0 190 30 0 29 0 3 -72z m228 7 l0 -65 -105 0
-105 0 0 65 0 65 105 0 105 0 0 -65z m10 -235 l0 -80 -110 0 -110 0 0 80 0 80
110 0 110 0 0 -80z"/>
<path d="M80 90 c0 -5 5 -10 10 -10 6 0 10 5 10 10 0 6 -4 10 -10 10 -5 0 -10
-4 -10 -10z"/>
<path d="M400 90 c0 -5 5 -10 10 -10 6 0 10 5 10 10 0 6 -4 10 -10 10 -5 0
-10 -4 -10 -10z"/>
<path d="M280 375 c0 -41 2 -45 25 -45 23 0 25 4 25 45 0 41 -2 45 -25 45 -23
0 -25 -4 -25 -45z m27 -12 c-3 -10 -5 -4 -5 12 0 17 2 24 5 18 2 -7 2 -21 0
-30z"/>
</g>
</svg>
