<?xml version="1.0" standalone="no"?>
<!DOCTYPE svg PUBLIC "-//W3C//DTD SVG 20010904//EN"
 "http://www.w3.org/TR/2001/REC-SVG-20010904/DTD/svg10.dtd">
<svg version="1.0" xmlns="http://www.w3.org/2000/svg"
 width="534.000000pt" height="445.000000pt" viewBox="0 0 534.000000 445.000000"
 preserveAspectRatio="xMidYMid meet">

<g transform="translate(0.000000,445.000000) scale(0.100000,-0.100000)"
fill="#000000" stroke="none">
<path d="M3483 4430 c-17 -10 -37 -29 -43 -41 -7 -12 -180 -447 -385 -968
l-374 -946 -188 -3 -188 -2 -19 -53 c-10 -28 -33 -83 -52 -120 -19 -37 -34
-70 -34 -73 0 -2 138 -4 308 -4 303 0 307 0 335 23 23 18 97 197 427 1035 276
700 400 1025 400 1050 -1 98 -103 153 -187 102z"/>
<path d="M1160 3626 c-331 -69 -601 -327 -691 -661 -32 -115 -32 -335 0 -450
72 -268 250 -477 505 -595 113 -52 192 -71 331 -77 270 -12 491 73 680 262
180 180 265 387 265 643 0 243 -90 454 -269 632 -112 111 -214 173 -361 222
-86 28 -109 31 -245 34 -99 2 -172 -1 -215 -10z m318 -222 c44 -9 117 -35 171
-61 175 -84 307 -248 358 -443 22 -86 22 -235 -1 -320 -66 -246 -249 -429
-497 -496 -86 -23 -242 -23 -329 0 -247 67 -441 267 -495 512 -26 115 -17 264
22 370 120 322 442 505 771 438z"/>
<path d="M1015 3235 c-20 -20 -25 -34 -25 -77 1 -60 16 -86 57 -97 28 -7 28
-8 34 -102 6 -95 21 -139 68 -198 19 -25 19 -25 -9 -60 -40 -51 -60 -120 -60
-206 0 -69 -2 -75 -20 -75 -12 0 -32 -11 -45 -25 -32 -31 -35 -110 -6 -146
l19 -24 309 -3 c303 -3 310 -2 337 19 25 19 27 26 24 82 -3 57 -6 63 -34 82
-31 20 -32 22 -36 110 -4 93 -25 153 -70 202 l-20 22 32 39 c41 51 60 118 60
209 0 58 3 73 15 73 34 0 55 38 55 99 0 52 -3 62 -26 80 -26 20 -38 21 -331
21 l-304 0 -24 -25z m603 -77 c3 -17 -15 -18 -267 -18 -169 0 -272 4 -276 10
-17 27 14 30 273 28 245 -3 267 -4 270 -20z m-70 -146 c9 -119 -46 -219 -126
-229 -78 -10 -79 -75 -2 -88 78 -13 130 -102 130 -222 l0 -53 -196 0 -197 0 5
78 c5 77 28 143 62 171 8 7 37 18 63 25 43 11 48 15 51 43 3 33 3 33 -63 48
-44 10 -83 52 -100 109 -15 51 -20 147 -8 160 4 3 90 5 192 4 l186 -3 3 -43z
m70 -689 c3 -10 -56 -13 -272 -13 -152 0 -276 4 -276 8 0 5 3 12 7 15 4 4 126
6 271 5 202 -2 266 -6 270 -15z"/>
<path d="M1482 3013 c-4 -23 -66 -86 -99 -99 -46 -20 -97 -17 -143 6 l-40 20
11 -27 c31 -81 123 -116 205 -77 51 24 76 72 71 136 -2 29 -4 48 -5 41z"/>
<path d="M1295 2552 c-27 -17 -85 -88 -85 -105 0 -4 63 -7 140 -7 89 0 140 4
140 10 0 6 -24 35 -53 65 -59 61 -89 69 -142 37z"/>
<path d="M192 2459 c-78 -15 -136 -62 -171 -139 -20 -44 -21 -60 -21 -1075 0
-713 3 -1042 11 -1070 14 -53 99 -136 155 -153 59 -17 4958 -18 5016 0 45 13
122 77 143 119 13 24 15 177 15 1094 0 1038 -1 1067 -20 1104 -22 44 -70 88
-120 109 -23 10 -82 17 -167 20 l-133 5 0 -126 0 -126 98 -3 97 -3 3 -977 2
-978 -2425 0 -2425 0 2 978 3 977 122 3 122 3 -33 62 c-19 34 -44 90 -56 125
l-23 62 -76 -1 c-42 -1 -95 -5 -119 -10z"/>
</g>
</svg>
