<svg xmlns="http://www.w3.org/2000/svg" xmlns:svgjs="http://svgjs.com/svgjs" xmlns:xlink="http://www.w3.org/1999/xlink" width="288" height="288"><svg xmlns="http://www.w3.org/2000/svg" width="288" height="288" version="1.0" viewBox="0 0 344 330"><g fill="#2a569a" class="color000 svgShape" transform="matrix(.1 0 0 -.1 0 330)"><path d="M1880 3285 c-162 -36 -290 -96 -412 -194 -194 -154 -318 -379 -350-637 -24 -185 22 -402 123 -581 61 -109 234 -281 343 -342 268 -152 590 -170
855 -50 l65 30 250 -249 c276 -274 296 -288 406 -286 181 4 301 186 236 359
-16 42 -57 89 -263 296 l-244 245 31 67 c16 36 42 106 57 154 24 79 27 104 27
248 1 137 -2 172 -22 244 -91 334 -347 591 -677 681 -104 29 -329 37 -425 15z
m380 -314 c193 -62 360 -229 421 -421 46 -144 34 -340 -31 -475 -158 -330
-550 -465 -879 -303 -121 59 -230 169 -288 288 -94 193 -95 390 -2 580 80 164
258 306 433 346 88 20 263 12 346 -15z" class="color000 svgShape"/><path d="M2011 2786c-54-30-67-106-26-154 30-36 66-47 110-32 82 27 92 145 15 185-35 18-67 19-99 1zM1891 2506c-7-8-11-34-9-58l3-43 48-3 47-3 0-190 0-189-45 0-46 0 3-57 3-58 170 0 170 0 3 58 3 57-50 0-51 0-2 248-3 247-116 3c-92 2-119 0-128-12zM180 2841c-73-23-132-72-161-136-18-38-19-98-19-1274 0-943 3-1243 12-1275 16-54 90-128 144-144 31-9 267-12 970-12 913 0 930 1 974 21 60 27 88 54 116 114l24 50 0 544 0 544-37-7c-21-3-84-6-140-6l-103 0 0-490 0-490-840 0-840 0 0 1145 0 1145 353 0 353 0 23 79c13 44 34 103 47 131 13 29 24 56 24 61 0 11-864 11-900 0z" class="color000 svgShape"/><path d="M477 2314c-4-4-7-67-7-141l0-133 271 0 271 0-6 23c-8 28-34 182-38 222l-3 30-241 3c-132 1-243-1-247-4zM470 1710l0-140 411 0 410 0-54 64c-29 35-76 98-102 140l-48 76-309 0-308 0 0-140zM472 1223l3-138 630 0 630 0 3 110 2 110-73 28-74 27-562 0-562 0 3-137zM470 735l0-135 635 0 635 0 0 135 0 135-635 0-635 0 0-135z" class="color000 svgShape"/></g></svg></svg>