<svg xmlns="http://www.w3.org/2000/svg" xmlns:svgjs="http://svgjs.com/svgjs" xmlns:xlink="http://www.w3.org/1999/xlink" width="288" height="288"><svg xmlns="http://www.w3.org/2000/svg" width="288" height="288" version="1.0" viewBox="0 0 372 310"><g fill="#fff" class="color000 svgShape" transform="matrix(.1 0 0 -.1 0 310)"><path d="M3515 3079c-20-5-110-89-260-239l-230-230-300 0-300 0-380-281c-209-155-390-288-403-296-21-15-33-11-223 82-172 84-204 97-220 87-11-7-274-217-584-468-333-268-571-467-580-484-34-66-7-163 55-195 16-8 51-15 79-15 60 0 0-44 610 448l472 381 92-43c50-24 138-66 194-95 57-28 107-51 113-51 6 0 206 144 445 320l434 320 308 0 308 0 273 273c216 216 274 280 283 310 20 74-26 156-102 177-39 11-43 11-84-1zM2810 995l0-995 310 0 310 0 0 995 0 995-310 0-310 0 0-995zM1970 785l0-785 310 0 310 0 0 785 0 785-310 0-310 0 0-785zM1130 475l0-475 315 0 315 0 0 475 0 475-315 0-315 0 0-475zM290 335l0-335 315 0 315 0 0 335 0 335-315 0-315 0 0-335z" class="color000 svgShape"/></g></svg></svg>