<svg xmlns="http://www.w3.org/2000/svg" xmlns:svgjs="http://svgjs.com/svgjs" xmlns:xlink="http://www.w3.org/1999/xlink" width="288" height="288"><svg xmlns="http://www.w3.org/2000/svg" width="288" height="288" version="1.0" viewBox="0 0 395 408"><g fill="#fff" class="color000 svgShape" transform="matrix(.1 0 0 -.1 0 408)"><path d="M135 4061 c-51 -23 -93 -65 -116 -116 -18 -38 -19 -100 -19 -1338 0-1066 2 -1303 13 -1330 20 -47 64 -95 111 -120 41 -22 44 -22 655 -25 499 -2
612 0 604 10 -5 7 -47 59 -92 116 l-82 102 -489 0 -490 0 0 1245 0 1245 1705
0 1705 0 0 -845 0 -845 115 0 115 0 -2 889 -3 889 -30 44 c-20 28 -49 52 -84
71 l-55 27 -1760 0 c-1687 0 -1763 -1 -1801 -19z" class="color000 svgShape"/><path d="M2428 3550 c-297 -47 -528 -214 -659 -476 -211 -423 -37 -940 388
-1153 34 -17 65 -31 68 -31 3 0 5 40 5 89 l0 89 -68 46 c-127 84 -228 214
-277 354 -36 103 -45 266 -21 374 54 241 235 439 471 514 327 104 678 -47 835
-358 55 -110 74 -204 68 -341 -6 -136 -41 -240 -117 -353 l-50 -73 27 -9 c15
-5 36 -6 47 -1 11 4 46 8 77 8 l58 1 40 80 c67 134 85 212 85 380 0 175 -15
241 -86 385 -140 287 -414 464 -739 479 -52 3 -121 1 -152 -4z" class="color000 svgShape"/><path d="M2435 3209 c-87 -18 -191 -75 -259 -142 -207 -208 -211 -525 -9 -737
l62 -65 1 125 c0 103 -4 134 -21 180 -17 45 -20 71 -17 140 3 73 9 94 38 148
39 73 92 124 170 161 47 22 68 26 145 26 77 0 98 -4 145 -26 78 -37 131 -88
170 -160 29 -55 34 -75 41 -173 4 -61 8 -169 9 -241 l1 -130 37 41 c77 85 122
208 122 334 0 229 -139 425 -356 501 -69 24 -206 33 -279 18z" class="color000 svgShape"/><path d="M2417 2755 c-50 -17 -85 -50 -108 -100 -17 -38 -19 -79 -19 -659 l0
-620 -147 146 c-187 184 -232 210 -375 216 -102 5 -167 -9 -238 -51 -141 -82
-189 -179 -141 -282 11 -22 177 -236 371 -475 193 -239 353 -439 355 -445 2
-5 10 -48 19 -95 38 -207 155 -326 361 -365 112 -22 958 -22 1072 0 197 38
314 147 363 341 19 73 20 112 20 752 0 668 0 676 -21 720 -13 26 -38 54 -62
70 -37 25 -50 27 -163 30 l-122 4 -4 58 c-5 69 -38 119 -99 151 -37 18 -53 20
-187 15 -183 -6 -173 -6 -319 0 l-121 5 -4 232 c-3 194 -6 237 -20 263 -23 43
-71 81 -116 94 -54 15 -249 12 -295 -5z m243 -741 l0 -566 29 -29 c38 -37 88
-39 128 -5 l28 24 3 277 3 276 87 -3 87 -3 5 -270 c3 -148 7 -271 8 -272 48
-49 102 -58 143 -24 24 19 24 20 29 293 l5 273 90 0 90 0 3 -266 2 -266 25
-27 c33 -36 95 -37 130 -1 24 23 25 28 25 175 l0 150 96 0 96 0 -5 -637 c-5
-672 -6 -690 -52 -787 -22 -46 -80 -90 -149 -113 -43 -14 -114 -17 -473 -21
-266 -2 -454 0 -510 7 -109 13 -183 48 -223 103 -30 41 -60 149 -60 216 0 37
-23 69 -370 498 l-370 459 32 27 c36 31 107 58 153 58 17 0 54 -7 81 -17 42
-14 79 -46 260 -225 l210 -208 92 0 92 0 0 735 0 735 90 0 90 0 0 -566z" class="color000 svgShape"/></g></svg></svg>