<svg xmlns="http://www.w3.org/2000/svg" xmlns:svgjs="http://svgjs.com/svgjs" xmlns:xlink="http://www.w3.org/1999/xlink" width="288" height="288"><svg xmlns="http://www.w3.org/2000/svg" width="288" height="288" version="1.0" viewBox="0 0 351 406"><g fill="#2a569a" class="color000 svgShape" transform="matrix(.1 0 0 -.1 0 406)"><path d="M1375 4042c-16-10-36-30-42-43-23-43-673-2453-673-2493 0-30 7-45 33-71 19-19 47-37 62-41 38-9 103 14 127 46 23 32 680 2438 681 2495 0 50-16 81-56 105-40 25-93 25-132 2zM2272 3690c-386-54-706-331-814-705-20-70-23-102-23-255 0-210 11-263 90-425 122-251 331-429 601-511 83-26 102-28 269-28 159-1 189 2 259 22 444 128 732 523 713 977-10 251-101 464-273 639-125 126-299 226-463 265-98 23-270 33-359 21zm273-345c89-23 213-87 277-145 156-139 238-359 208-556-80-527-708-739-1080-365-200 201-244 480-118 739 48 98 178 227 279 275 41 20 102 43 135 51 79 19 226 20 299 1zM384 3650c-46-10-89-44-108-84-14-30-16-117-16-841 0-804 0-807 21-845 28-50 83-80 146-80 58 0 105 26 140 79l23 34 0 810 0 809-22 40c-36 64-111 96-184 78zM85 1282c-31-11-50-25-68-52-15-22-17-75-17-578 0-596-1-589 52-626 20-14 196-16 1703-16 1507 0 1683 2 1703 16 53 37 52 30 52 624 0 490-2 555-16 579-35 60 89 56-1724 58-916 0-1674-2-1685-5zm2200-253c131-49 197-168 130-234-41-42-80-30-121 40-43 75-75 95-149 95-73 0-105-10-134-41-32-34-28-82 9-112 16-14 38-28 47-31 10-3 70-19 133-36 175-47 239-90 269-179 28-86-2-197-72-258-84-74-261-101-390-59-136 44-232 202-165 273 21 23 51 29 83 17 9-4 32-38 51-76 45-89 74-108 169-108 54 0 78 5 105 21 48 30 59 48 60 94 0 76-32 100-187 139-133 34-184 57-231 104-86 86-75 233 24 308 85 65 256 85 369 43zm-1341-9c26-27 29-64 8-91-19-23-27-24-136-27l-116-4 0-301c0-366-4-388-78-403-26-5-36-1-62 24l-30 30 0 326 0 326-109 0c-94 0-112 3-135 21-35 28-35 70 1 99 26 20 34 21 335 18 257-3 310-5 322-18zm731-5c14-13 25-31 25-40 0-9-11-27-25-40-24-25-25-25-230-25l-205 0 0-105 0-105 194 0c164 0 197-3 210-16 21-20 20-63-1-86-14-16-35-18-210-18l-193 0 0-119 0-120 221-3c205-3 222-4 235-22 20-28 17-63-6-86-19-19-33-20-295-20l-276 0-24 25-25 24 0 355c0 371 2 394 44 414 13 7 123 11 279 11l258 1 24-25zm1540 13c46-21 46-95 0-116-15-7-72-12-130-12l-105 0 0-326 0-326-30-30c-26-25-36-29-62-24-74 15-78 37-78 404l0 302-99 0c-55 0-111 4-126 10-51 19-53 100-3 120 35 14 602 12 633-2z" class="color000 svgShape"/></g></svg></svg>