<svg xmlns="http://www.w3.org/2000/svg" xmlns:svgjs="http://svgjs.com/svgjs" xmlns:xlink="http://www.w3.org/1999/xlink" width="288" height="288"><svg xmlns="http://www.w3.org/2000/svg" width="288" height="288" version="1.0" viewBox="0 0 293 246"><g fill="#2a569a" class="color000 svgShape" transform="matrix(.1 0 0 -.1 0 246)"><path d="M1117 2120 c-185 -187 -338 -340 -341 -340 -3 0 -6 27 -6 60 l0 60-170 0 -170 0 0 -238 0 -237 -196 -195 c-230 -229 -246 -255 -207 -337 22 -48
66 -73 126 -73 l49 0 630 623 c347 342 631 622 633 622 1 0 286 -280 633 -622
l630 -623 47 0 c78 0 126 38 140 111 3 19 1 47 -4 63 -12 31 -1428 1466 -1447
1466 -6 0 -163 -153 -347 -340z" class="color000 svgShape"/><path d="M947 1387 l-518 -512 1 -437 0 -438 365 0 365 0 2 438 3 437 300 0
300 0 3 -437 2 -438 365 0 365 0 0 438 0 437 -267 265 c-148 146 -380 376
-518 512 l-250 247 -518 -512z" class="color000 svgShape"/></g></svg></svg>