<svg xmlns="http://www.w3.org/2000/svg" xmlns:svgjs="http://svgjs.com/svgjs" xmlns:xlink="http://www.w3.org/1999/xlink" width="288" height="288"><svg xmlns="http://www.w3.org/2000/svg" width="288" height="288" version="1.0" viewBox="0 0 318 318"><g fill="#fff" class="color000 svgShape" transform="matrix(.1 0 0 -.1 0 318)"><path d="M2372 3157c-20-21-22-35-22-123l0-99-59-22c-32-13-62-23-67-23-5 0-36 27-69 60-51 51-65 60-95 60-29 0-44-8-83-48-68-70-66-94 19-182l65-68-19-39c-10-21-22-50-26-65-6-28-7-28-94-28-80 0-91-2-110-23-18-19-22-35-22-93 0-61 3-74 23-92 20-19 35-22 113-22l89 0 32-67 33-67-62-63c-80-80-81-104-13-173 71-72 96-70 186 17l69 66 51-16c28-10 58-17 65-17 11 0 14-21 14-100 0-130 8-140 114-140 69 0 76 2 95 26 18 23 21 41 21 128l0 101 54 26 54 26 59-59c66-68 110-92 145-79 13 5 42 29 66 55 64 69 60 90-34 187l-77 78 17 56 18 55 107 0c99 0 109 2 129 23 18 19 22 35 22 91 0 58-3 70-25 91-23 24-31 25-133 25l-110 0-22 56-23 56 72 72c62 62 71 76 71 107 0 30-8 44-50 83-73 68-93 65-189-29l-77-74-57 22-57 22 0 101c0 92-2 102-23 122-19 18-35 22-93 22-61 0-74-3-92-23zm200-515c79-49 106-168 56-253-73-124-253-124-325-1-83 141 36 310 198 281 20-3 52-15 71-27zM955 2176c-65-29-70-42-73-216l-3-158-62-22c-34-12-77-31-96-42l-34-19-96 95c-144 143-180 146-301 21l-73-75 5-51c5-49 9-55 105-152l101-102-24-50c-13-27-31-74-40-102l-15-53-120 0c-128 0-169-10-204-50-28-31-35-209-10-256 30-56 57-64 212-64l138 0 19-52c10-29 31-75 48-102l29-48-94-97c-52-53-98-107-102-119-14-47 4-93 63-155 64-67 97-87 142-87 47 0 77 20 179 124 94 94 95 95 122 81 15-8 58-23 96-33l68-19 5-152 5-153 38-35 39-35 108 4c165 5 180 26 180 255l1 148 84 41 84 41 98-99c158-159 192-164 313-43 73 73 75 76 75 125l0 50-124 124-123 124 25 63c14 35 27 73 29 84 3 19 13 20 175 25 189 6 201 9 229 77 20 47 18 180-4 223-30 60-64 70-247 70l-161 0-37 82-37 82 110 111c154 155 160 189 48 302-116 117-150 113-309-44l-117-115-33 17c-18 10-56 25-83 35l-51 17-5 154c-6 172-15 200-77 225-41 18-178 17-218 0zm230-810c73-34 110-69 144-138 55-109 39-242-40-332-116-132-320-136-443-10-56 58-79 117-80 204-1 63 4 84 27 132 33 66 100 130 160 152 67 23 173 20 232-8z" class="color000 svgShape"/></g></svg></svg>