<svg xmlns="http://www.w3.org/2000/svg" xmlns:svgjs="http://svgjs.com/svgjs" xmlns:xlink="http://www.w3.org/1999/xlink" width="288" height="288"><svg xmlns="http://www.w3.org/2000/svg" width="288" height="288" version="1.0" viewBox="0 0 302 290"><path fill="#2a569a" d="M52 2884 c-47 -33 -52 -59 -52 -279 0 -227 5 -252 60 -280 l30 -16 0-570 c0 -616 -1 -599 55 -673 14 -18 45 -44 69 -57 39 -20 45 -28 51 -66 19
-128 99 -331 178 -455 52 -81 159 -191 238 -243 120 -81 263 -128 426 -142 71
-6 80 -9 109 -40 54 -57 82 -63 286 -63 203 0 240 9 289 67 23 27 32 30 110
36 419 33 710 305 827 775 l26 104 47 23 c25 13 59 39 74 57 62 73 60 50 63
680 3 569 3 577 23 583 11 4 29 21 40 38 17 29 19 52 19 240 0 222 -5 248 -52
281 -33 24 -543 24 -576 0 -47 -33 -52 -59 -52 -281 0 -232 6 -257 69 -283
l31 -12 0 -572 0 -572 26 -52 c14 -29 37 -60 50 -71 30 -23 30 -35 0 -141 -72
-261 -196 -430 -379 -519 -78 -39 -201 -71 -267 -71 l-30 0 34 68 c62 122 103
290 126 512 8 73 16 108 26 113 36 20 87 73 107 111 22 41 22 46 25 618 l3
578 29 15 c55 28 60 53 60 282 0 190 -2 211 -20 241 -11 18 -32 37 -46 42 -14
6 -141 10 -286 10 l-260 0 -34 -34 -34 -34 0 -216 c0 -239 5 -262 60 -291 l30
-16 0 -563 c0 -399 3 -573 12 -597 16 -48 57 -103 96 -129 32 -23 33 -24 26
-84 -20 -205 -57 -363 -106 -463 l-31 -63 -156 0 -157 0 -23 48 c-54 109 -84
225 -106 412 -13 105 -13 116 2 125 46 28 99 85 119 130 l24 50 0 568 0 568
35 33 35 33 0 228 0 227 -34 34 -34 34 -261 0 c-368 0 -351 14 -351 -290 0
-234 7 -262 72 -289 l38 -16 0 -565 0 -565 24 -50 c12 -27 42 -67 65 -88 l41
-37 10 -103 c23 -224 58 -373 121 -506 l39 -84 -58 7 c-171 20 -276 70 -393
186 -75 75 -94 100 -137 191 -48 98 -102 257 -102 300 0 11 16 34 36 51 19 17
45 50 57 72 22 41 22 46 25 618 l3 578 29 15 c55 28 60 53 60 280 0 163 -3
212 -15 235 -31 59 -35 60 -325 60 -224 0 -269 -2 -288 -16z" class="color000 svgShape" transform="matrix(.1 0 0 -.1 0 290)"/></svg></svg>