<svg xmlns="http://www.w3.org/2000/svg" xmlns:svgjs="http://svgjs.com/svgjs" xmlns:xlink="http://www.w3.org/1999/xlink" width="288" height="288"><svg xmlns="http://www.w3.org/2000/svg" width="288" height="288" version="1.0" viewBox="0 0 556 476"><g fill="#2a569a" class="color000 svgShape" transform="matrix(.1 0 0 -.1 0 476)"><path d="M3590 4740 c-17 -17 -20 -33 -20 -103 l0 -83 -55 -23 -56 -23 -59 56c-33 31 -68 56 -79 56 -12 0 -42 -19 -66 -41 -64 -59 -62 -86 10 -159 l54 -55
-22 -57 -22 -58 -72 0 c-97 0 -113 -15 -113 -103 0 -87 12 -97 116 -97 l79 -1
26 -58 27 -59 -54 -52 c-69 -66 -70 -90 -11 -148 61 -60 86 -57 159 15 l57 56
55 -17 56 -18 0 -79 c0 -104 13 -119 104 -119 86 0 96 13 96 130 l0 86 46 22
46 23 64 -61 c79 -73 98 -75 159 -19 66 61 63 86 -21 170 l-66 66 15 44 15 44
97 5 c116 6 125 14 125 102 0 87 -15 98 -133 98 l-93 0 -21 43 -20 42 63 68
c79 83 81 102 20 163 -61 62 -82 59 -164 -19 l-67 -64 -45 17 -45 18 -5 86
c-7 112 -18 126 -100 126 -47 0 -64 -4 -80 -20z m146 -429 c105 -48 126 -193
39 -270 -63 -55 -150 -53 -214 5 -71 63 -76 158 -12 228 52 56 116 69 187 37z" class="color000 svgShape"/><path d="M3633 4240 c-44 -18 -60 -102 -25 -133 29 -26 107 -23 126 5 31 44
17 101 -31 126 -25 14 -40 14 -70 2z" class="color000 svgShape"/><path d="M930 4376 l0 -115 -387 -3 -388 -3 -45 -25 c-24 -14 -58 -45 -75 -68
l-30 -44 -3 -1966 c-2 -1397 0 -1978 8 -2005 14 -49 65 -106 115 -128 38 -18
147 -19 2658 -19 2873 0 2654 -5 2720 58 61 58 57 -99 57 2075 l0 1994 -30 41
c-16 23 -49 52 -72 64 -43 23 -43 23 -571 26 l-528 3 7 -49 c3 -26 1 -65 -4
-85 l-10 -37 504 0 c329 0 512 -4 525 -10 19 -11 19 -43 19 -1948 0 -1494 -3
-1941 -12 -1950 -17 -17 -5189 -17 -5206 0 -9 9 -12 456 -12 1950 0 1905 0
1937 19 1948 13 6 151 10 380 10 l361 0 0 -55 0 -55 -50 0 c-42 0 -52 -4 -66
-25 -9 -13 -18 -44 -21 -67 -10 -96 3 -88 -144 -88 -148 0 -183 -10 -220 -61
l-24 -34 0 -610 c0 -680 -4 -642 68 -685 28 -17 51 -20 168 -20 133 0 137 -1
143 -23 3 -12 6 -34 6 -49 0 -15 7 -46 16 -68 16 -40 16 -40 70 -40 l54 0 0
-260 0 -260 205 0 205 0 0 260 0 260 54 0 c50 0 54 2 66 30 7 17 15 56 19 88
l6 57 105 5 105 5 4 30 c5 47 28 85 89 147 l55 57 -18 41 -18 40 -99 0 c-180
0 -238 58 -238 237 0 106 20 157 76 199 35 27 45 29 140 32 l102 4 16 41 16
41 -65 66 c-131 132 -128 229 9 358 37 34 65 66 62 71 -3 5 -21 16 -40 25 -26
12 -65 16 -169 16 l-134 0 -5 65 c-8 92 -25 115 -88 115 l-50 0 0 55 0 55 833
0 832 0 0 53 c0 28 4 67 8 85 l9 32 -841 0 -841 0 0 115 0 115 -205 0 -205 0
0 -114z" class="color000 svgShape"/><path d="M2360 3895c-42-22-50-51-52-189l-3-129-51-17c-27-10-65-25-83-35l-33-17-88 86c-78 77-91 86-124 86-46 0-70-12-119-59-47-44-67-80-67-122 0-27 15-47 91-124l90-93-24-49c-14-26-30-67-36-91l-12-42-110 0c-167 0-189-19-189-161 0-79 1-82 34-115l34-34 120 0 119 0 45-89 44-89-83-85c-78-79-83-87-83-127 0-38 6-48 64-109 61-62 68-66 110-66 44 0 49 3 138 92l93 92 85-29 85-29 5-130c4-107 8-132 24-150 28-31 81-44 159-38 64 4 74 8 99 36 28 31 28 32 28 170l0 138 76 37 76 38 97-96c94-91 100-96 141-96 40 0 48 5 112 68 56 57 68 74 68 101 0 48-13 66-116 171l-94 95 25 70 24 70 146 5 147 5 29 33c27 30 29 38 29 113 0 85-15 130-49 149-11 5-84 10-165 10l-146 0-33 73-34 72 98 101c94 96 99 103 99 144 0 40-5 48-68 112-57 56-74 68-101 68-47 0-66-13-166-111l-90-89-75 29-75 29-5 137-5 137-33 29c-30 27-38 29-115 29-50-1-92-6-107-15zm193-681c56-19 122-80 148-137 22-49 25-131 7-191-8-25-32-61-63-93-202-208-539 29-412 289 60 123 190 176 320 132zM3612 2474c-21-14-22-22-22-140 0-120 1-126 25-148l25-23 0-302c0-314 3-336 44-370 12-10 16-32 16-86l0-72-167 44c-181 47-222 49-271 14-60-42-62-59-62-518 0-396 1-419 20-458 13-26 34-49 59-63 39-22 42-22 588-22l550 0 33 22c63 43 75 69 78 176l4 97 61 18c225 66 393 230 452 442 11 39 18 117 22 225 4 138 8 168 23 185 38 44 40 58 40 366l0 302 25 23c24 22 25 28 25 147 0 164 8 157-182 157-186 0-178 7-178-163 0-124 1-127 25-143l25-16 0-316 0-315 40-38 40-38 0-133c0-213-40-327-154-436-62-60-168-121-238-138l-28-6 0 89c0 84 2 91 26 114 35 32 79 121 93 187 6 29 11 117 11 196 0 133 2 144 21 162 47 43 49 55 49 373l0 300 25 25c24 24 25 31 25 141 0 159 5 155-185 155-190 0-185 4-185-155 0-110 1-117 25-141l25-25 0-306c0-286 1-308 20-337 10-18 31-38 45-46 24-13 25-16 25-125 0-112-9-185-29-238l-11-29-34 30c-19 17-49 33-68 36-134 26-170 39-179 63-5 13-9 75-9 136l0 113 30 17c58 35 60 46 60 381l0 305 25 25c24 24 25 31 25 141 0 159 5 155-185 155-190 0-185 4-185-155 0-110 1-117 25-141l25-25 0-295c0-312 3-338 49-378 19-18 21-29 21-143 0-67-3-123-7-123-3 0-68 16-145 36l-138 37 0 81c0 80 0 81 35 109 20 16 38 42 44 65 7 21 11 157 11 327 0 279 1 291 20 303 18 11 20 23 20 141 0 168 8 161-176 161-110 0-144-3-162-16zM815 1566c-36-54-40-205-9-293l16-43 309 0 309 0 17 27c15 22 18 49 18 153 0 104-3 131-18 153l-17 27-305 0-305 0-15-24zM2843 1250c-34-4-73-14-87-24l-26-16 0-305 0-304 33-18c41-23 244-26 295-4l32 14-2 316-3 316-35 11c-49 16-134 21-207 14zM999 1107c-116-62-143-214-56-314 67-76 19-73 890-73l777 0 0 205 0 205-783 0-784 0-44-23z" class="color000 svgShape"/></g></svg></svg>