<svg xmlns="http://www.w3.org/2000/svg" xmlns:svgjs="http://svgjs.com/svgjs" xmlns:xlink="http://www.w3.org/1999/xlink" width="288" height="288"><svg xmlns="http://www.w3.org/2000/svg" width="288" height="288" version="1.0" viewBox="0 0 356 354"><g fill="#fff" class="color000 svgShape" transform="matrix(.1 0 0 -.1 0 354)"><path d="M2961 3504 c-48 -40 -55 -61 -57 -170 -2 -115 -20 -185 -66 -251 -59-87 -147 -130 -339 -169 -410 -81 -651 -245 -795 -539 -35 -72 -84 -227 -84
-268 0 -4 66 -6 147 -5 l147 3 26 70 c43 114 69 156 144 231 116 115 259 181
488 224 138 26 214 51 294 95 161 90 262 221 310 406 25 93 25 282 1 327 -40
74 -155 98 -216 46z" class="color000 svgShape"/><path d="M760 2240 c-84 -31 -148 -79 -242 -181 -134 -147 -222 -271 -293
-414 -103 -208 -151 -385 -175 -645 -18 -186 -8 -474 20 -604 52 -243 169
-380 336 -394 115 -9 181 39 421 304 216 239 309 317 429 361 65 23 67 23 524
23 457 0 459 0 524 -23 120 -44 213 -122 429 -361 240 -265 306 -313 421 -304
168 14 284 151 338 399 20 92 22 133 23 354 0 273 -9 366 -56 556 -71 291
-211 535 -445 775 -79 81 -113 108 -169 135 -66 32 -76 34 -180 34 -105 0
-114 -2 -177 -33 -37 -18 -100 -63 -143 -102 -87 -79 -168 -116 -320 -146
-123 -25 -367 -25 -490 0 -152 30 -233 67 -320 146 -43 39 -106 84 -142 102
-59 29 -78 33 -162 35 -77 3 -107 -1 -151 -17z m1950 -456 c30 -26 31 -28 28
-103 l-3 -76 -39 -19 c-38 -18 -39 -18 -85 0 -45 19 -46 21 -49 69 -5 69 13
121 46 139 40 22 67 19 102 -10z m-1800 -70 c23 -23 25 -32 29 -139 l3 -115
110 0 c108 0 110 0 139 -29 36 -37 38 -79 5 -118 -24 -27 -27 -28 -140 -31
l-116 -4 0 -94 c0 -136 -25 -184 -95 -184 -70 0 -95 48 -95 184 l0 94 -116 4
c-113 3 -116 4 -140 31 -33 39 -31 81 5 118 29 29 31 29 139 29 l110 0 3 114
c4 97 7 117 24 136 41 46 91 47 135 4z m1524 -288 c20 -43 20 -67 -1 -111
l-17 -35 -69 0 c-62 0 -71 3 -98 29 -21 21 -29 39 -29 63 1 63 38 87 131 88
66 0 67 0 83 -34z m627 5 c36 -37 38 -79 5 -118 -21 -25 -31 -28 -100 -31
l-76 -4 -21 46 -20 46 20 45 20 45 71 0 c66 0 74 -2 101 -29z m-356 -278 l35
-17 0 -72 c0 -62 -3 -77 -24 -100 -32 -38 -86 -39 -124 -1 -24 25 -27 34 -27
98 0 71 0 71 35 90 43 23 60 24 105 2z" class="color000 svgShape"/></g></svg></svg>