<svg xmlns="http://www.w3.org/2000/svg" xmlns:svgjs="http://svgjs.com/svgjs" xmlns:xlink="http://www.w3.org/1999/xlink" width="288" height="288"><svg xmlns="http://www.w3.org/2000/svg" width="288" height="288" version="1.0" viewBox="0 0 406 331"><g fill="#fff" class="color000 svgShape" transform="matrix(.1 0 0 -.1 0 331)"><path d="M187 3296 c-85 -31 -155 -104 -177 -187 -7 -24 -9 -539 -8 -1476 l3-1438 22 -41 c28 -53 74 -99 127 -127 l41 -22 1835 0 1835 0 41 22 c53 28 99
74 127 127 l22 41 0 1460 0 1460 -22 41 c-28 53 -74 99 -127 127 l-41 22
-1820 2 c-1510 2 -1826 0 -1858 -11z m3644 -215 l29 -29 0 -1397 0 -1397 -29
-29 -29 -29 -1772 0 -1772 0 -29 29 -29 29 0 1397 0 1397 29 29 29 29 1772 0
1772 0 29 -29z" class="color000 svgShape"/><path d="M880 2940c-25-25-25-53-1-105 33-74 34-93 6-118-23-20-27-37-48-192-23-169-23-170-48-168-98 10-146 7-172-10-89-58-88-205 1-251 16-8 274-58 573-111 299-53 558-98 576-101l32-6-50-101c-48-95-51-105-47-163 5-77 38-131 105-171 48-28 49-28 223-28 174 0 175 0 223 28 67 40 100 94 105 171 3 53 0 71-23 115-14 29-25 54-23 56 2 1 228-37 503-86 275-49 522-89 548-89 26 0 61 7 78 15 88 46 92 193 6 249-12 9-69 23-125 33l-101 17 71 38c122 64 193 151 213 261l7 37-487 0-488 0 6-45c8-52 27-94 69-147 18-23 24-38 16-38-7 1-324 56-704 123l-691 122 15 23c14 21 13 40-7 195-25 189-34 223-62 232-22 7-19 29 13 103 25 59 23 97-4 116-18 13-51 16-155 16-120 0-135-2-153-20zM1155 1191c-79-37-125-111-125-201l0-50-195 0c-210 0-227-3-274-54-33-35-41-116-16-163 37-68 58-73 284-73l201 0 0-50c0-88 44-161 122-201 32-17 60-19 213-19 142 0 182 3 208 16 75 38 116 103 124 196l6 58 865 0c844 0 865 0 897 20 17 11 40 35 50 53 25 47 17 128-16 163-53 57-8 54-937 54l-859 0-6 60c-6 75-43 141-99 178-41 27-44 27-222 30-160 2-186 0-221-17zm245-396l0-125-40 0-40 0 0 125 0 125 40 0 40 0 0-125z" class="color000 svgShape"/></g></svg></svg>