<svg xmlns="http://www.w3.org/2000/svg" xmlns:svgjs="http://svgjs.com/svgjs" xmlns:xlink="http://www.w3.org/1999/xlink" width="288" height="288"><svg xmlns="http://www.w3.org/2000/svg" width="288" height="288" version="1.0" viewBox="0 0 150 384"><g fill="#2a569a" class="color000 svgShape" transform="matrix(.1 0 0 -.1 0 384)"><path d="M440 3831 c-106 -34 -189 -138 -190 -238 0 -32 152 -779 195 -961 l5-22 303 2 302 3 97 465 c54 256 97 485 98 510 0 85 -61 178 -145 223 -38 21
-53 22 -340 24 -165 1 -311 -2 -325 -6z m504 -308 c-3 -16 -34 -161 -68 -323
l-62 -295 -61 -3 c-52 -2 -62 0 -67 15 -2 10 -32 149 -66 308 -34 160 -63 298
-66 308 -5 16 9 17 195 17 l201 0 -6 -27z" class="color000 svgShape"/><path d="M46 2859 c-13 -329 -46 -2636 -38 -2665 22 -73 72 -133 142 -170 33
-18 71 -19 578 -22 350 -2 556 1 581 8 79 21 160 102 181 181 8 29 5 378 -10
1282 -11 683 -23 1307 -26 1386 l-6 144 -141 -7 c-77 -3 -142 -8 -144 -10 -2
-1 8 -605 21 -1342 13 -736 21 -1342 19 -1346 -5 -10 -901 -10 -906 0 -2 4 6
610 19 1346 13 737 23 1341 21 1342 -2 2 -67 7 -144 10 l-141 7 -6 -144z" class="color000 svgShape"/><path d="M402 1008 l-11 -553 31 -33 32 -32 296 0 296 0 32 32 31 33 -11 553
-12 552 -336 0 -336 0 -12 -552z" class="color000 svgShape"/></g></svg></svg>