<?xml version="1.0" standalone="no"?>
<!DOCTYPE svg PUBLIC "-//W3C//DTD SVG 20010904//EN"
 "http://www.w3.org/TR/2001/REC-SVG-20010904/DTD/svg10.dtd">
<svg version="1.0" xmlns="http://www.w3.org/2000/svg"
 width="355.000000pt" height="203.000000pt" viewBox="0 0 355.000000 203.000000"
 preserveAspectRatio="xMidYMid meet">

<g transform="translate(0.000000,203.000000) scale(0.100000,-0.100000)"
fill="#000000" stroke="none">
<path d="M1849 2001 c-52 -52 -36 -143 29 -170 20 -8 125 -11 370 -9 l342 3
26 26 c16 16 28 41 31 67 5 37 2 45 -30 77 l-35 35 -352 0 -352 0 -29 -29z"/>
<path d="M476 1724 c-100 -24 -193 -80 -281 -168 -92 -93 -143 -183 -175 -310
-25 -97 -27 -296 -5 -401 19 -90 91 -235 151 -303 67 -77 173 -147 268 -180
l81 -27 703 -3 702 -3 0 706 0 705 -692 -1 c-562 -1 -704 -3 -752 -15z"/>
<path d="M2060 1620 l0 -120 175 0 175 0 0 120 0 120 -175 0 -175 0 0 -120z"/>
<path d="M2540 1034 l0 -706 248 4 c236 4 250 5 328 31 156 52 281 164 360
322 56 114 74 197 74 356 0 149 -21 245 -77 359 -51 101 -170 221 -269 273
-113 58 -167 67 -431 67 l-233 0 0 -706z"/>
<path d="M2060 1230 l0 -120 175 0 175 0 0 120 0 120 -175 0 -175 0 0 -120z"/>
<path d="M2060 845 l0 -125 175 0 176 0 -3 123 -3 122 -172 3 -173 2 0 -125z"/>
<path d="M2060 455 l0 -125 175 0 176 0 -3 123 -3 122 -172 3 -173 2 0 -125z"/>
<path d="M524 235 c-12 -30 2 -160 20 -187 22 -34 67 -52 112 -45 70 12 98 64
92 177 l-3 65 -108 3 c-91 2 -108 0 -113 -13z"/>
<path d="M2830 166 c0 -47 5 -97 12 -111 24 -53 113 -73 160 -35 38 29 49 68
46 151 l-3 74 -107 3 -108 3 0 -85z"/>
</g>
</svg>
