<svg xmlns="http://www.w3.org/2000/svg" xmlns:svgjs="http://svgjs.com/svgjs" xmlns:xlink="http://www.w3.org/1999/xlink" width="288" height="288"><svg xmlns="http://www.w3.org/2000/svg" width="288" height="288" version="1.0" viewBox="0 0 407 446"><g fill="#2a569a" class="color000 svgShape" transform="matrix(.1 0 0 -.1 0 446)"><path d="M1649 4426c-63-13-109-39-109-61 0-13-57-15-429-15l-430 0-20-25c-55-71-55-319 0-390l20-25 430 0 429 0 0-60 0-60 220 0 220 0 0 60 0 60 428 0c492 0 450-9 478 100 18 72 15 220-6 275-26 69 3 65-472 65-371 0-428 2-428 15 0 22-46 48-114 62-74 15-143 15-217-1zM1335 3675c-50-18-91-62-105-115l-11-40-444 0-445 0 0-535 0-535 1240 0c1351 0 1298 2 1320-55 6-15 10-78 10-141l0-114 330 0 330 0 0 144c0 222-35 387-114 540-110 215-278 356-516 437l-55 19 50-6c334-37 569-189 719-464 80-148 136-386 136-579l0-91 96 0 97 0-6 183c-7 192-20 281-63 412-128 388-459 669-894 761-56 12-160 17-401 21l-325 5-12 43c-15 56-59 99-116 114-71 17-769 14-821-4zM28 3548l-28-10 0-553c0-639-12-575 112-575 50 0 81 5 96 16l22 15 0 537c0 295-4 542-8 549-19 31-134 43-194 21zM2853 2015c-70-30-83-134-23-187l30-28 576 0 576 0 29 29c24 25 29 37 29 80 0 42-5 56-29 83l-29 33-564 2c-464 2-569 0-595-12zM3343 1468c-293-411-447-709-460-890-19-257 148-490 401-563 82-24 258-17 339 13 260 95 415 379 348 637-26 98-142 336-245 502-88 140-276 405-292 410-5 2-46-47-91-109zm194-393c94-147 194-338 223-425 55-164-18-334-178-412-60-30-75-33-152-33-103 1-156 22-232 92-59 55-104 141-113 217-5 41-2 68 19 129 43 127 147 320 279 516 58 86 40 96 154-84z" class="color000 svgShape"/></g></svg></svg>