<?xml version="1.0" standalone="no"?>
<!DOCTYPE svg PUBLIC "-//W3C//DTD SVG 20010904//EN"
 "http://www.w3.org/TR/2001/REC-SVG-20010904/DTD/svg10.dtd">
<svg version="1.0" xmlns="http://www.w3.org/2000/svg"
 width="407.000000pt" height="446.000000pt" viewBox="0 0 407.000000 446.000000"
 preserveAspectRatio="xMidYMid meet">

<g transform="translate(0.000000,446.000000) scale(0.100000,-0.100000)"
fill="#000000" stroke="none">
<path d="M1618 4414 c-26 -8 -56 -25 -66 -39 l-20 -25 -421 0 -420 0 -21 -22
c-30 -33 -43 -91 -43 -198 -1 -102 13 -162 46 -197 l20 -23 424 0 423 0 0 -55
0 -55 220 0 220 0 0 55 0 55 423 0 c406 0 425 1 441 19 32 35 45 93 46 196 0
112 -12 169 -43 203 l-20 22 -423 0 -422 0 -16 25 c-23 35 -101 55 -210 54
-50 0 -112 -7 -138 -15z"/>
<path d="M1325 3666 c-43 -19 -75 -57 -89 -107 l-13 -44 -442 -3 -441 -2 0
-530 0 -530 1245 0 c1333 0 1290 2 1310 -47 4 -10 10 -73 13 -140 l5 -123 325
0 325 0 -6 168 c-4 103 -14 201 -25 257 -73 343 -282 582 -607 692 l-70 24 80
-5 c112 -7 223 -39 342 -96 168 -82 311 -233 397 -422 69 -150 106 -323 106
-499 l0 -119 91 0 91 0 -5 198 c-6 217 -20 304 -76 448 -117 304 -386 552
-717 663 -152 51 -245 61 -580 61 l-301 0 -12 42 c-18 59 -39 86 -82 109 -36
18 -61 19 -436 19 -309 -1 -405 -4 -428 -14z"/>
<path d="M54 3551 c-17 -4 -36 -11 -42 -15 -9 -5 -12 -148 -12 -550 0 -493 2
-545 17 -557 10 -9 42 -14 93 -14 51 0 83 5 93 14 15 12 17 64 17 557 0 516
-1 544 -18 553 -27 14 -112 21 -148 12z"/>
<path d="M2829 1991 c-56 -57 -31 -168 43 -186 12 -3 274 -4 581 -3 l559 3 29
33 c43 47 41 102 -5 148 l-34 34 -572 0 -572 0 -29 -29z"/>
<path d="M3368 1493 c-217 -296 -395 -604 -457 -789 -64 -192 -15 -390 134
-540 133 -134 308 -189 496 -154 90 17 214 84 283 154 146 149 192 349 126
546 -65 194 -258 526 -471 808 l-47 62 -64 -87z m167 -403 c106 -167 220 -393
242 -481 16 -61 16 -70 0 -135 -32 -127 -119 -223 -237 -260 -270 -85 -530
171 -441 435 53 155 318 609 341 585 5 -5 47 -70 95 -144z"/>
</g>
</svg>
