<?xml version="1.0" standalone="no"?>
<!DOCTYPE svg PUBLIC "-//W3C//DTD SVG 20010904//EN"
 "http://www.w3.org/TR/2001/REC-SVG-20010904/DTD/svg10.dtd">
<svg version="1.0" xmlns="http://www.w3.org/2000/svg"
 width="313.000000pt" height="324.000000pt" viewBox="0 0 313.000000 324.000000"
 preserveAspectRatio="xMidYMid meet">

<g transform="translate(0.000000,324.000000) scale(0.100000,-0.100000)"
fill="#000000" stroke="none">
<path d="M1103 3220 l-33 -20 0 -139 c0 -139 0 -140 26 -160 15 -12 40 -21 55
-21 27 0 29 -3 29 -41 0 -33 6 -47 34 -75 l34 -34 189 0 c155 0 193 3 211 16
29 20 52 66 52 104 0 26 3 30 29 30 15 0 40 9 55 21 26 20 26 22 26 154 0 144
-4 156 -57 176 -13 5 -158 9 -321 9 -278 0 -299 -1 -329 -20z"/>
<path d="M147 2551 l-140 -140 6 -46 c4 -42 13 -55 73 -117 131 -134 159 -130
331 44 161 164 165 182 64 296 -69 77 -107 102 -157 102 -36 0 -47 -9 -177
-139z"/>
<path d="M1309 2610 c-216 -22 -421 -97 -609 -223 -96 -64 -273 -241 -337
-337 -216 -322 -283 -708 -188 -1074 130 -501 558 -886 1066 -960 561 -83
1102 193 1357 691 74 146 110 256 137 426 l6 37 155 0 c200 0 224 10 224 96 0
29 -38 91 -222 362 -122 179 -230 334 -240 344 -24 24 -89 24 -116 1 -25 -23
-452 -649 -465 -684 -8 -19 -7 -35 3 -58 21 -53 51 -61 215 -61 167 0 156 10
125 -110 -120 -469 -573 -801 -1045 -765 -571 44 -989 533 -944 1103 28 349
242 660 564 817 168 83 245 100 445 100 140 0 178 -4 250 -23 154 -42 301
-123 442 -243 43 -36 110 -49 158 -29 67 28 103 107 82 179 -28 92 -279 265
-500 345 -156 56 -393 84 -563 66z"/>
<path d="M1730 1745 l-235 -235 -48 0 c-85 0 -151 -40 -189 -114 -16 -31 -19
-53 -16 -102 7 -112 82 -184 191 -184 67 0 102 12 140 48 42 40 67 95 67 149
l0 47 235 236 235 237 0 47 c0 39 -5 53 -29 77 -24 23 -38 29 -73 29 l-44 0
-234 -235z"/>
</g>
</svg>
